<?xml version="1.0" encoding="utf-8" standalone="no"?>
<!DOCTYPE svg PUBLIC "-//W3C//DTD SVG 1.1//EN"
  "http://www.w3.org/Graphics/SVG/1.1/DTD/svg11.dtd">
<svg xmlns:xlink="http://www.w3.org/1999/xlink" width="432pt" height="360pt" viewBox="0 0 432 360" xmlns="http://www.w3.org/2000/svg" version="1.1">
 <metadata>
  <rdf:RDF xmlns:dc="http://purl.org/dc/elements/1.1/" xmlns:cc="http://creativecommons.org/ns#" xmlns:rdf="http://www.w3.org/1999/02/22-rdf-syntax-ns#">
   <cc:Work>
    <dc:type rdf:resource="http://purl.org/dc/dcmitype/StillImage"/>
    <dc:date>2024-02-19T14:36:37.991256</dc:date>
    <dc:format>image/svg+xml</dc:format>
    <dc:creator>
     <cc:Agent>
      <dc:title>Matplotlib v3.7.1, https://matplotlib.org/</dc:title>
     </cc:Agent>
    </dc:creator>
   </cc:Work>
  </rdf:RDF>
 </metadata>
 <defs>
  <style type="text/css">*{stroke-linejoin: round; stroke-linecap: butt}</style>
 </defs>
 <g id="figure_1">
  <g id="patch_1">
   <path d="M 0 360 
L 432 360 
L 432 0 
L 0 0 
L 0 360 
z
" style="fill: none"/>
  </g>
  <g id="axes_1">
   <g id="patch_2">
    <path d="M 179.509091 104.972727 
C 179.509091 104.409164 179.499451 103.845642 179.480174 103.282408 
C 179.460898 102.719174 179.431988 102.156311 179.393458 101.594067 
L 130.090909 104.972727 
z
" style="fill: #1f77b4"/>
   </g>
   <g id="patch_3">
    <path d="M 179.393458 101.594067 
C 178.954638 95.19066 177.272482 88.933649 174.441195 83.173442 
C 171.609907 77.413234 167.683347 72.259405 162.881411 68.00058 
C 158.079475 63.741755 152.493509 60.45895 146.43634 58.336008 
C 140.379171 56.213066 133.966023 55.290373 127.556047 55.6196 
C 121.146071 55.948827 114.861203 57.523713 109.05341 60.25606 
C 103.245617 62.988407 98.025379 66.826238 93.685042 71.554625 
C 89.344705 76.283013 85.966833 81.812011 83.740596 87.831982 
C 81.514359 93.851952 80.482105 100.24838 80.701644 106.663049 
C 80.921183 113.077718 82.388337 119.388605 85.020944 125.242284 
C 87.65355 131.095963 91.40153 136.381083 96.054985 140.801662 
C 100.708441 145.222242 106.178853 148.694192 112.159864 151.023073 
C 118.140875 153.351954 124.51871 154.493465 130.936196 154.383679 
C 137.353682 154.273894 143.688741 152.914899 149.586593 150.382803 
C 155.484446 147.850707 160.8329 144.193677 165.332429 139.616514 
C 169.831958 135.039352 173.396969 129.629127 175.827813 123.688826 
C 178.258656 117.748525 179.509092 111.391147 179.509091 104.972723 
L 130.090909 104.972727 
z
" style="fill: #ff7f0e"/>
   </g>
   <g id="matplotlib.axis_1"/>
   <g id="matplotlib.axis_2"/>
   <g id="text_1">
    <!-- Usado -->
    <g transform="translate(184.419101 105.872751) scale(0.1 -0.1)">
     <defs>
      <path id="DejaVuSans-55" d="M 556 4666 
L 1191 4666 
L 1191 1831 
Q 1191 1081 1462 751 
Q 1734 422 2344 422 
Q 2950 422 3222 751 
Q 3494 1081 3494 1831 
L 3494 4666 
L 4128 4666 
L 4128 1753 
Q 4128 841 3676 375 
Q 3225 -91 2344 -91 
Q 1459 -91 1007 375 
Q 556 841 556 1753 
L 556 4666 
z
" transform="scale(0.015625)"/>
      <path id="DejaVuSans-73" d="M 2834 3397 
L 2834 2853 
Q 2591 2978 2328 3040 
Q 2066 3103 1784 3103 
Q 1356 3103 1142 2972 
Q 928 2841 928 2578 
Q 928 2378 1081 2264 
Q 1234 2150 1697 2047 
L 1894 2003 
Q 2506 1872 2764 1633 
Q 3022 1394 3022 966 
Q 3022 478 2636 193 
Q 2250 -91 1575 -91 
Q 1294 -91 989 -36 
Q 684 19 347 128 
L 347 722 
Q 666 556 975 473 
Q 1284 391 1588 391 
Q 1994 391 2212 530 
Q 2431 669 2431 922 
Q 2431 1156 2273 1281 
Q 2116 1406 1581 1522 
L 1381 1569 
Q 847 1681 609 1914 
Q 372 2147 372 2553 
Q 372 3047 722 3315 
Q 1072 3584 1716 3584 
Q 2034 3584 2315 3537 
Q 2597 3491 2834 3397 
z
" transform="scale(0.015625)"/>
      <path id="DejaVuSans-61" d="M 2194 1759 
Q 1497 1759 1228 1600 
Q 959 1441 959 1056 
Q 959 750 1161 570 
Q 1363 391 1709 391 
Q 2188 391 2477 730 
Q 2766 1069 2766 1631 
L 2766 1759 
L 2194 1759 
z
M 3341 1997 
L 3341 0 
L 2766 0 
L 2766 531 
Q 2569 213 2275 61 
Q 1981 -91 1556 -91 
Q 1019 -91 701 211 
Q 384 513 384 1019 
Q 384 1609 779 1909 
Q 1175 2209 1959 2209 
L 2766 2209 
L 2766 2266 
Q 2766 2663 2505 2880 
Q 2244 3097 1772 3097 
Q 1472 3097 1187 3025 
Q 903 2953 641 2809 
L 641 3341 
Q 956 3463 1253 3523 
Q 1550 3584 1831 3584 
Q 2591 3584 2966 3190 
Q 3341 2797 3341 1997 
z
" transform="scale(0.015625)"/>
      <path id="DejaVuSans-64" d="M 2906 2969 
L 2906 4863 
L 3481 4863 
L 3481 0 
L 2906 0 
L 2906 525 
Q 2725 213 2448 61 
Q 2172 -91 1784 -91 
Q 1150 -91 751 415 
Q 353 922 353 1747 
Q 353 2572 751 3078 
Q 1150 3584 1784 3584 
Q 2172 3584 2448 3432 
Q 2725 3281 2906 2969 
z
M 947 1747 
Q 947 1113 1208 752 
Q 1469 391 1925 391 
Q 2381 391 2643 752 
Q 2906 1113 2906 1747 
Q 2906 2381 2643 2742 
Q 2381 3103 1925 3103 
Q 1469 3103 1208 2742 
Q 947 2381 947 1747 
z
" transform="scale(0.015625)"/>
      <path id="DejaVuSans-6f" d="M 1959 3097 
Q 1497 3097 1228 2736 
Q 959 2375 959 1747 
Q 959 1119 1226 758 
Q 1494 397 1959 397 
Q 2419 397 2687 759 
Q 2956 1122 2956 1747 
Q 2956 2369 2687 2733 
Q 2419 3097 1959 3097 
z
M 1959 3584 
Q 2709 3584 3137 3096 
Q 3566 2609 3566 1747 
Q 3566 888 3137 398 
Q 2709 -91 1959 -91 
Q 1206 -91 779 398 
Q 353 888 353 1747 
Q 353 2609 779 3096 
Q 1206 3584 1959 3584 
z
" transform="scale(0.015625)"/>
     </defs>
     <use xlink:href="#DejaVuSans-55"/>
     <use xlink:href="#DejaVuSans-73" x="73.193359"/>
     <use xlink:href="#DejaVuSans-61" x="125.292969"/>
     <use xlink:href="#DejaVuSans-64" x="186.572266"/>
     <use xlink:href="#DejaVuSans-6f" x="250.048828"/>
    </g>
   </g>
   <g id="text_2">
    <!-- Libre -->
    <g transform="translate(51.025217 109.591456) scale(0.1 -0.1)">
     <defs>
      <path id="DejaVuSans-4c" d="M 628 4666 
L 1259 4666 
L 1259 531 
L 3531 531 
L 3531 0 
L 628 0 
L 628 4666 
z
" transform="scale(0.015625)"/>
      <path id="DejaVuSans-69" d="M 603 3500 
L 1178 3500 
L 1178 0 
L 603 0 
L 603 3500 
z
M 603 4863 
L 1178 4863 
L 1178 4134 
L 603 4134 
L 603 4863 
z
" transform="scale(0.015625)"/>
      <path id="DejaVuSans-62" d="M 3116 1747 
Q 3116 2381 2855 2742 
Q 2594 3103 2138 3103 
Q 1681 3103 1420 2742 
Q 1159 2381 1159 1747 
Q 1159 1113 1420 752 
Q 1681 391 2138 391 
Q 2594 391 2855 752 
Q 3116 1113 3116 1747 
z
M 1159 2969 
Q 1341 3281 1617 3432 
Q 1894 3584 2278 3584 
Q 2916 3584 3314 3078 
Q 3713 2572 3713 1747 
Q 3713 922 3314 415 
Q 2916 -91 2278 -91 
Q 1894 -91 1617 61 
Q 1341 213 1159 525 
L 1159 0 
L 581 0 
L 581 4863 
L 1159 4863 
L 1159 2969 
z
" transform="scale(0.015625)"/>
      <path id="DejaVuSans-72" d="M 2631 2963 
Q 2534 3019 2420 3045 
Q 2306 3072 2169 3072 
Q 1681 3072 1420 2755 
Q 1159 2438 1159 1844 
L 1159 0 
L 581 0 
L 581 3500 
L 1159 3500 
L 1159 2956 
Q 1341 3275 1631 3429 
Q 1922 3584 2338 3584 
Q 2397 3584 2469 3576 
Q 2541 3569 2628 3553 
L 2631 2963 
z
" transform="scale(0.015625)"/>
      <path id="DejaVuSans-65" d="M 3597 1894 
L 3597 1613 
L 953 1613 
Q 991 1019 1311 708 
Q 1631 397 2203 397 
Q 2534 397 2845 478 
Q 3156 559 3463 722 
L 3463 178 
Q 3153 47 2828 -22 
Q 2503 -91 2169 -91 
Q 1331 -91 842 396 
Q 353 884 353 1716 
Q 353 2575 817 3079 
Q 1281 3584 2069 3584 
Q 2775 3584 3186 3129 
Q 3597 2675 3597 1894 
z
M 3022 2063 
Q 3016 2534 2758 2815 
Q 2500 3097 2075 3097 
Q 1594 3097 1305 2825 
Q 1016 2553 972 2059 
L 3022 2063 
z
" transform="scale(0.015625)"/>
     </defs>
     <use xlink:href="#DejaVuSans-4c"/>
     <use xlink:href="#DejaVuSans-69" x="55.712891"/>
     <use xlink:href="#DejaVuSans-62" x="83.496094"/>
     <use xlink:href="#DejaVuSans-72" x="146.972656"/>
     <use xlink:href="#DejaVuSans-65" x="185.835938"/>
    </g>
   </g>
   <g id="text_3">
    <!-- LUT -->
    <g transform="translate(117.519972 37.2) scale(0.12 -0.12)">
     <defs>
      <path id="DejaVuSans-Bold-4c" d="M 588 4666 
L 1791 4666 
L 1791 909 
L 3903 909 
L 3903 0 
L 588 0 
L 588 4666 
z
" transform="scale(0.015625)"/>
      <path id="DejaVuSans-Bold-55" d="M 588 4666 
L 1791 4666 
L 1791 1869 
Q 1791 1291 1980 1042 
Q 2169 794 2597 794 
Q 3028 794 3217 1042 
Q 3406 1291 3406 1869 
L 3406 4666 
L 4609 4666 
L 4609 1869 
Q 4609 878 4112 393 
Q 3616 -91 2597 -91 
Q 1581 -91 1084 393 
Q 588 878 588 1869 
L 588 4666 
z
" transform="scale(0.015625)"/>
      <path id="DejaVuSans-Bold-54" d="M 31 4666 
L 4331 4666 
L 4331 3756 
L 2784 3756 
L 2784 0 
L 1581 0 
L 1581 3756 
L 31 3756 
L 31 4666 
z
" transform="scale(0.015625)"/>
     </defs>
     <use xlink:href="#DejaVuSans-Bold-4c"/>
     <use xlink:href="#DejaVuSans-Bold-55" x="60.095703"/>
     <use xlink:href="#DejaVuSans-Bold-54" x="141.296875"/>
    </g>
   </g>
  </g>
  <g id="axes_2">
   <g id="patch_4">
    <path d="M 362.127273 104.972727 
C 362.127273 104.759639 362.125894 104.546552 362.123138 104.333482 
C 362.120382 104.120411 362.116247 103.90736 362.110735 103.694343 
L 312.709091 104.972727 
z
" style="fill: #1f77b4"/>
   </g>
   <g id="patch_5">
    <path d="M 362.110735 103.694343 
C 361.943555 97.23386 360.510685 90.868471 357.893462 84.9595 
C 355.276239 79.050529 351.525139 73.711939 346.853089 69.246769 
C 342.181039 64.781599 336.678146 61.275966 330.656775 58.928864 
C 324.635405 56.581762 318.211687 55.438457 311.750257 55.563848 
C 305.288828 55.689239 298.914304 57.080908 292.988529 59.659858 
C 287.062754 62.238808 281.700014 65.9553 277.204719 70.598372 
C 272.709425 75.241444 269.168273 80.721549 266.782274 86.727612 
C 264.396276 92.733676 263.211447 99.149865 263.295044 105.61197 
C 263.37864 112.074075 264.72905 118.457467 267.269619 124.399799 
C 269.810188 130.34213 273.491917 135.728796 278.105817 140.254027 
C 282.719717 144.779259 288.176803 148.355781 294.167309 150.780576 
C 300.157814 153.205371 306.566206 154.431674 313.028716 154.389875 
C 319.491227 154.348077 325.88322 153.038982 331.841859 150.536901 
C 337.800498 148.034819 343.210864 144.388007 347.765843 139.803473 
C 352.320822 135.218938 355.932565 129.785099 358.396055 123.810401 
C 360.859546 117.835704 362.127272 111.435379 362.127273 104.972733 
L 312.709091 104.972727 
z
" style="fill: #ff7f0e"/>
   </g>
   <g id="matplotlib.axis_3"/>
   <g id="matplotlib.axis_4"/>
   <g id="text_4">
    <!-- Usado -->
    <g transform="translate(367.064543 107.028932) scale(0.1 -0.1)">
     <use xlink:href="#DejaVuSans-55"/>
     <use xlink:href="#DejaVuSans-73" x="73.193359"/>
     <use xlink:href="#DejaVuSans-61" x="125.292969"/>
     <use xlink:href="#DejaVuSans-64" x="186.572266"/>
     <use xlink:href="#DejaVuSans-6f" x="250.048828"/>
    </g>
   </g>
   <g id="text_5">
    <!-- Libre -->
    <g transform="translate(233.616139 108.435269) scale(0.1 -0.1)">
     <use xlink:href="#DejaVuSans-4c"/>
     <use xlink:href="#DejaVuSans-69" x="55.712891"/>
     <use xlink:href="#DejaVuSans-62" x="83.496094"/>
     <use xlink:href="#DejaVuSans-72" x="146.972656"/>
     <use xlink:href="#DejaVuSans-65" x="185.835938"/>
    </g>
   </g>
   <g id="text_6">
    <!-- FF -->
    <g transform="translate(304.511591 37.2) scale(0.12 -0.12)">
     <defs>
      <path id="DejaVuSans-Bold-46" d="M 588 4666 
L 3834 4666 
L 3834 3756 
L 1791 3756 
L 1791 2888 
L 3713 2888 
L 3713 1978 
L 1791 1978 
L 1791 0 
L 588 0 
L 588 4666 
z
" transform="scale(0.015625)"/>
     </defs>
     <use xlink:href="#DejaVuSans-Bold-46"/>
     <use xlink:href="#DejaVuSans-Bold-46" x="68.310547"/>
    </g>
   </g>
  </g>
  <g id="axes_3">
   <g id="patch_6">
    <path d="M 179.509091 253.227273 
C 179.509091 248.514693 178.834995 243.826249 177.507307 239.304562 
C 176.17962 234.782874 174.211942 230.474261 171.664129 226.509786 
L 130.090909 253.227273 
z
" style="fill: #1f77b4"/>
   </g>
   <g id="patch_7">
    <path d="M 171.664129 226.509786 
C 168.476337 221.549486 164.426368 217.199512 159.706121 213.665979 
C 154.985873 210.132446 149.671096 207.472059 144.013618 205.810874 
C 138.35614 204.149689 132.446751 203.514364 126.565454 203.935003 
C 120.684157 204.355642 114.925333 205.825494 109.561852 208.274915 
C 104.19837 210.724335 99.316303 214.114015 95.146975 218.283344 
C 90.977647 222.452672 87.587968 227.33474 85.138548 232.698222 
C 82.689129 238.061703 81.219277 243.820527 80.798639 249.701825 
C 80.378001 255.583122 81.013326 261.492511 82.674512 267.149988 
C 84.335698 272.807466 86.996086 278.122243 90.52962 282.84249 
C 94.063153 287.562737 98.413127 291.612705 103.373428 294.800496 
C 108.333729 297.988287 113.824754 300.262743 119.586325 301.516096 
C 125.347896 302.769448 131.287553 302.981582 137.123857 302.142448 
C 142.960161 301.303313 148.599453 299.426375 153.774529 296.600569 
C 158.949605 293.774763 163.577416 290.045435 167.438684 285.589293 
C 171.299952 281.133151 174.332712 276.021705 176.393264 270.497149 
C 178.453816 264.972593 179.509092 259.123584 179.509091 253.227263 
L 130.090909 253.227273 
z
" style="fill: #ff7f0e"/>
   </g>
   <g id="matplotlib.axis_5"/>
   <g id="matplotlib.axis_6"/>
   <g id="text_7">
    <!-- Usado -->
    <g transform="translate(182.248947 240.671665) scale(0.1 -0.1)">
     <use xlink:href="#DejaVuSans-55"/>
     <use xlink:href="#DejaVuSans-73" x="73.193359"/>
     <use xlink:href="#DejaVuSans-61" x="125.292969"/>
     <use xlink:href="#DejaVuSans-64" x="186.572266"/>
     <use xlink:href="#DejaVuSans-6f" x="250.048828"/>
    </g>
   </g>
   <g id="text_8">
    <!-- Libre -->
    <g transform="translate(53.195373 271.301635) scale(0.1 -0.1)">
     <use xlink:href="#DejaVuSans-4c"/>
     <use xlink:href="#DejaVuSans-69" x="55.712891"/>
     <use xlink:href="#DejaVuSans-62" x="83.496094"/>
     <use xlink:href="#DejaVuSans-72" x="146.972656"/>
     <use xlink:href="#DejaVuSans-65" x="185.835938"/>
    </g>
   </g>
   <g id="text_9">
    <!-- DSP -->
    <g transform="translate(116.391222 185.454545) scale(0.12 -0.12)">
     <defs>
      <path id="DejaVuSans-Bold-44" d="M 1791 3756 
L 1791 909 
L 2222 909 
Q 2959 909 3348 1275 
Q 3738 1641 3738 2338 
Q 3738 3031 3350 3393 
Q 2963 3756 2222 3756 
L 1791 3756 
z
M 588 4666 
L 1856 4666 
Q 2919 4666 3439 4514 
Q 3959 4363 4331 4000 
Q 4659 3684 4818 3271 
Q 4978 2859 4978 2338 
Q 4978 1809 4818 1395 
Q 4659 981 4331 666 
Q 3956 303 3431 151 
Q 2906 0 1856 0 
L 588 0 
L 588 4666 
z
" transform="scale(0.015625)"/>
      <path id="DejaVuSans-Bold-53" d="M 3834 4519 
L 3834 3531 
Q 3450 3703 3084 3790 
Q 2719 3878 2394 3878 
Q 1963 3878 1756 3759 
Q 1550 3641 1550 3391 
Q 1550 3203 1689 3098 
Q 1828 2994 2194 2919 
L 2706 2816 
Q 3484 2659 3812 2340 
Q 4141 2022 4141 1434 
Q 4141 663 3683 286 
Q 3225 -91 2284 -91 
Q 1841 -91 1394 -6 
Q 947 78 500 244 
L 500 1259 
Q 947 1022 1364 901 
Q 1781 781 2169 781 
Q 2563 781 2772 912 
Q 2981 1044 2981 1288 
Q 2981 1506 2839 1625 
Q 2697 1744 2272 1838 
L 1806 1941 
Q 1106 2091 782 2419 
Q 459 2747 459 3303 
Q 459 4000 909 4375 
Q 1359 4750 2203 4750 
Q 2588 4750 2994 4692 
Q 3400 4634 3834 4519 
z
" transform="scale(0.015625)"/>
      <path id="DejaVuSans-Bold-50" d="M 588 4666 
L 2584 4666 
Q 3475 4666 3951 4270 
Q 4428 3875 4428 3144 
Q 4428 2409 3951 2014 
Q 3475 1619 2584 1619 
L 1791 1619 
L 1791 0 
L 588 0 
L 588 4666 
z
M 1791 3794 
L 1791 2491 
L 2456 2491 
Q 2806 2491 2997 2661 
Q 3188 2831 3188 3144 
Q 3188 3456 2997 3625 
Q 2806 3794 2456 3794 
L 1791 3794 
z
" transform="scale(0.015625)"/>
     </defs>
     <use xlink:href="#DejaVuSans-Bold-44"/>
     <use xlink:href="#DejaVuSans-Bold-53" x="83.007812"/>
     <use xlink:href="#DejaVuSans-Bold-50" x="155.029297"/>
    </g>
   </g>
  </g>
  <g id="axes_4">
   <g id="patch_8">
    <path d="M 362.127273 253.227273 
C 362.127273 241.765734 358.139868 230.653658 350.852589 221.807052 
C 343.56531 212.960446 333.422536 206.918777 322.173142 204.723784 
L 312.709091 253.227273 
z
" style="fill: #1f77b4"/>
   </g>
   <g id="patch_9">
    <path d="M 322.173142 204.723784 
C 317.206917 203.754769 312.121196 203.554207 307.094085 204.129122 
C 302.066973 204.704037 297.157847 206.047638 292.538628 208.112872 
C 287.919409 210.178106 283.644655 212.94058 279.864071 216.303549 
C 276.083487 219.666519 272.841727 223.590263 270.252318 227.937371 
C 267.66291 232.284478 265.756438 237.003603 264.599668 241.92948 
C 263.442898 246.855357 263.049493 251.929804 263.433231 256.975111 
C 263.816968 262.020419 264.973316 266.976994 266.861777 271.671256 
C 268.750238 276.365517 271.348508 280.74202 274.565594 284.647495 
C 277.78268 288.55297 281.580584 291.94129 285.8263 294.693792 
C 290.072017 297.446295 294.715398 299.53047 299.593831 300.873329 
C 304.472265 302.216187 309.528128 302.801869 314.584363 302.609861 
C 319.640598 302.417854 324.637483 301.450426 329.400025 299.741458 
C 334.162567 298.032489 338.634514 295.602165 342.659255 292.535597 
C 346.683996 289.469029 350.213993 285.802437 353.125626 281.664228 
C 356.037258 277.526018 358.296134 272.965069 359.823147 268.141107 
C 361.35016 263.317145 362.127273 258.287147 362.127273 253.227268 
L 312.709091 253.227273 
z
" style="fill: #ff7f0e"/>
   </g>
   <g id="matplotlib.axis_7"/>
   <g id="matplotlib.axis_8"/>
   <g id="text_10">
    <!-- Usado -->
    <g transform="translate(354.666939 221.424405) scale(0.1 -0.1)">
     <use xlink:href="#DejaVuSans-55"/>
     <use xlink:href="#DejaVuSans-73" x="73.193359"/>
     <use xlink:href="#DejaVuSans-61" x="125.292969"/>
     <use xlink:href="#DejaVuSans-64" x="186.572266"/>
     <use xlink:href="#DejaVuSans-6f" x="250.048828"/>
    </g>
   </g>
   <g id="text_11">
    <!-- Libre -->
    <g transform="translate(246.013745 290.548892) scale(0.1 -0.1)">
     <use xlink:href="#DejaVuSans-4c"/>
     <use xlink:href="#DejaVuSans-69" x="55.712891"/>
     <use xlink:href="#DejaVuSans-62" x="83.496094"/>
     <use xlink:href="#DejaVuSans-72" x="146.972656"/>
     <use xlink:href="#DejaVuSans-65" x="185.835938"/>
    </g>
   </g>
   <g id="text_12">
    <!-- IO -->
    <g transform="translate(305.375966 185.454545) scale(0.12 -0.12)">
     <defs>
      <path id="DejaVuSans-Bold-49" d="M 588 4666 
L 1791 4666 
L 1791 0 
L 588 0 
L 588 4666 
z
" transform="scale(0.015625)"/>
      <path id="DejaVuSans-Bold-4f" d="M 2719 3878 
Q 2169 3878 1866 3472 
Q 1563 3066 1563 2328 
Q 1563 1594 1866 1187 
Q 2169 781 2719 781 
Q 3272 781 3575 1187 
Q 3878 1594 3878 2328 
Q 3878 3066 3575 3472 
Q 3272 3878 2719 3878 
z
M 2719 4750 
Q 3844 4750 4481 4106 
Q 5119 3463 5119 2328 
Q 5119 1197 4481 553 
Q 3844 -91 2719 -91 
Q 1597 -91 958 553 
Q 319 1197 319 2328 
Q 319 3463 958 4106 
Q 1597 4750 2719 4750 
z
" transform="scale(0.015625)"/>
     </defs>
     <use xlink:href="#DejaVuSans-Bold-49"/>
     <use xlink:href="#DejaVuSans-Bold-4f" x="37.207031"/>
    </g>
   </g>
  </g>
 </g>
</svg>
