<?xml version="1.0" encoding="utf-8" standalone="no"?>
<!DOCTYPE svg PUBLIC "-//W3C//DTD SVG 1.1//EN"
  "http://www.w3.org/Graphics/SVG/1.1/DTD/svg11.dtd">
<svg xmlns:xlink="http://www.w3.org/1999/xlink" width="1080pt" height="360pt" viewBox="0 0 1080 360" xmlns="http://www.w3.org/2000/svg" version="1.1">
 <metadata>
  <rdf:RDF xmlns:dc="http://purl.org/dc/elements/1.1/" xmlns:cc="http://creativecommons.org/ns#" xmlns:rdf="http://www.w3.org/1999/02/22-rdf-syntax-ns#">
   <cc:Work>
    <dc:type rdf:resource="http://purl.org/dc/dcmitype/StillImage"/>
    <dc:date>2024-07-05T12:00:43.147119</dc:date>
    <dc:format>image/svg+xml</dc:format>
    <dc:creator>
     <cc:Agent>
      <dc:title>Matplotlib v3.8.4, https://matplotlib.org/</dc:title>
     </cc:Agent>
    </dc:creator>
   </cc:Work>
  </rdf:RDF>
 </metadata>
 <defs>
  <style type="text/css">*{stroke-linejoin: round; stroke-linecap: butt}</style>
 </defs>
 <g id="figure_1">
  <g id="patch_1">
   <path d="M 0 360 
L 1080 360 
L 1080 0 
L 0 0 
z
" style="fill: #ffffff"/>
  </g>
  <g id="axes_1">
   <g id="patch_2">
    <path d="M 135 320.4 
L 972 320.4 
L 972 43.2 
L 135 43.2 
z
" style="fill: #ffffff"/>
   </g>
   <g id="matplotlib.axis_1">
    <g id="xtick_1">
     <g id="line2d_1">
      <path d="M 135 320.4 
L 135 43.2 
" clip-path="url(#p174d04414a)" style="fill: none; stroke: #b0b0b0; stroke-width: 0.8; stroke-linecap: square"/>
     </g>
     <g id="line2d_2">
      <defs>
       <path id="m2c01a1dce5" d="M 0 0 
L 0 3.5 
" style="stroke: #000000; stroke-width: 0.8"/>
      </defs>
      <g>
       <use xlink:href="#m2c01a1dce5" x="135" y="320.4" style="stroke: #000000; stroke-width: 0.8"/>
      </g>
     </g>
     <g id="text_1">
      <!-- 0 -->
      <g transform="translate(128.6375 342.596875) scale(0.2 -0.2)">
       <defs>
        <path id="DejaVuSans-30" d="M 2034 4250 
Q 1547 4250 1301 3770 
Q 1056 3291 1056 2328 
Q 1056 1369 1301 889 
Q 1547 409 2034 409 
Q 2525 409 2770 889 
Q 3016 1369 3016 2328 
Q 3016 3291 2770 3770 
Q 2525 4250 2034 4250 
z
M 2034 4750 
Q 2819 4750 3233 4129 
Q 3647 3509 3647 2328 
Q 3647 1150 3233 529 
Q 2819 -91 2034 -91 
Q 1250 -91 836 529 
Q 422 1150 422 2328 
Q 422 3509 836 4129 
Q 1250 4750 2034 4750 
z
" transform="scale(0.015625)"/>
       </defs>
       <use xlink:href="#DejaVuSans-30"/>
      </g>
     </g>
    </g>
    <g id="xtick_2">
     <g id="line2d_3">
      <path d="M 239.625 320.4 
L 239.625 43.2 
" clip-path="url(#p174d04414a)" style="fill: none; stroke: #b0b0b0; stroke-width: 0.8; stroke-linecap: square"/>
     </g>
     <g id="line2d_4">
      <g>
       <use xlink:href="#m2c01a1dce5" x="239.625" y="320.4" style="stroke: #000000; stroke-width: 0.8"/>
      </g>
     </g>
     <g id="text_2">
      <!-- 250 -->
      <g transform="translate(220.5375 342.596875) scale(0.2 -0.2)">
       <defs>
        <path id="DejaVuSans-32" d="M 1228 531 
L 3431 531 
L 3431 0 
L 469 0 
L 469 531 
Q 828 903 1448 1529 
Q 2069 2156 2228 2338 
Q 2531 2678 2651 2914 
Q 2772 3150 2772 3378 
Q 2772 3750 2511 3984 
Q 2250 4219 1831 4219 
Q 1534 4219 1204 4116 
Q 875 4013 500 3803 
L 500 4441 
Q 881 4594 1212 4672 
Q 1544 4750 1819 4750 
Q 2544 4750 2975 4387 
Q 3406 4025 3406 3419 
Q 3406 3131 3298 2873 
Q 3191 2616 2906 2266 
Q 2828 2175 2409 1742 
Q 1991 1309 1228 531 
z
" transform="scale(0.015625)"/>
        <path id="DejaVuSans-35" d="M 691 4666 
L 3169 4666 
L 3169 4134 
L 1269 4134 
L 1269 2991 
Q 1406 3038 1543 3061 
Q 1681 3084 1819 3084 
Q 2600 3084 3056 2656 
Q 3513 2228 3513 1497 
Q 3513 744 3044 326 
Q 2575 -91 1722 -91 
Q 1428 -91 1123 -41 
Q 819 9 494 109 
L 494 744 
Q 775 591 1075 516 
Q 1375 441 1709 441 
Q 2250 441 2565 725 
Q 2881 1009 2881 1497 
Q 2881 1984 2565 2268 
Q 2250 2553 1709 2553 
Q 1456 2553 1204 2497 
Q 953 2441 691 2322 
L 691 4666 
z
" transform="scale(0.015625)"/>
       </defs>
       <use xlink:href="#DejaVuSans-32"/>
       <use xlink:href="#DejaVuSans-35" x="63.623047"/>
       <use xlink:href="#DejaVuSans-30" x="127.246094"/>
      </g>
     </g>
    </g>
    <g id="xtick_3">
     <g id="line2d_5">
      <path d="M 344.25 320.4 
L 344.25 43.2 
" clip-path="url(#p174d04414a)" style="fill: none; stroke: #b0b0b0; stroke-width: 0.8; stroke-linecap: square"/>
     </g>
     <g id="line2d_6">
      <g>
       <use xlink:href="#m2c01a1dce5" x="344.25" y="320.4" style="stroke: #000000; stroke-width: 0.8"/>
      </g>
     </g>
     <g id="text_3">
      <!-- 500 -->
      <g transform="translate(325.1625 342.596875) scale(0.2 -0.2)">
       <use xlink:href="#DejaVuSans-35"/>
       <use xlink:href="#DejaVuSans-30" x="63.623047"/>
       <use xlink:href="#DejaVuSans-30" x="127.246094"/>
      </g>
     </g>
    </g>
    <g id="xtick_4">
     <g id="line2d_7">
      <path d="M 448.875 320.4 
L 448.875 43.2 
" clip-path="url(#p174d04414a)" style="fill: none; stroke: #b0b0b0; stroke-width: 0.8; stroke-linecap: square"/>
     </g>
     <g id="line2d_8">
      <g>
       <use xlink:href="#m2c01a1dce5" x="448.875" y="320.4" style="stroke: #000000; stroke-width: 0.8"/>
      </g>
     </g>
     <g id="text_4">
      <!-- 750 -->
      <g transform="translate(429.7875 342.596875) scale(0.2 -0.2)">
       <defs>
        <path id="DejaVuSans-37" d="M 525 4666 
L 3525 4666 
L 3525 4397 
L 1831 0 
L 1172 0 
L 2766 4134 
L 525 4134 
L 525 4666 
z
" transform="scale(0.015625)"/>
       </defs>
       <use xlink:href="#DejaVuSans-37"/>
       <use xlink:href="#DejaVuSans-35" x="63.623047"/>
       <use xlink:href="#DejaVuSans-30" x="127.246094"/>
      </g>
     </g>
    </g>
    <g id="xtick_5">
     <g id="line2d_9">
      <path d="M 553.5 320.4 
L 553.5 43.2 
" clip-path="url(#p174d04414a)" style="fill: none; stroke: #b0b0b0; stroke-width: 0.8; stroke-linecap: square"/>
     </g>
     <g id="line2d_10">
      <g>
       <use xlink:href="#m2c01a1dce5" x="553.5" y="320.4" style="stroke: #000000; stroke-width: 0.8"/>
      </g>
     </g>
     <g id="text_5">
      <!-- 1000 -->
      <g transform="translate(528.05 342.596875) scale(0.2 -0.2)">
       <defs>
        <path id="DejaVuSans-31" d="M 794 531 
L 1825 531 
L 1825 4091 
L 703 3866 
L 703 4441 
L 1819 4666 
L 2450 4666 
L 2450 531 
L 3481 531 
L 3481 0 
L 794 0 
L 794 531 
z
" transform="scale(0.015625)"/>
       </defs>
       <use xlink:href="#DejaVuSans-31"/>
       <use xlink:href="#DejaVuSans-30" x="63.623047"/>
       <use xlink:href="#DejaVuSans-30" x="127.246094"/>
       <use xlink:href="#DejaVuSans-30" x="190.869141"/>
      </g>
     </g>
    </g>
    <g id="xtick_6">
     <g id="line2d_11">
      <path d="M 658.125 320.4 
L 658.125 43.2 
" clip-path="url(#p174d04414a)" style="fill: none; stroke: #b0b0b0; stroke-width: 0.8; stroke-linecap: square"/>
     </g>
     <g id="line2d_12">
      <g>
       <use xlink:href="#m2c01a1dce5" x="658.125" y="320.4" style="stroke: #000000; stroke-width: 0.8"/>
      </g>
     </g>
     <g id="text_6">
      <!-- 1250 -->
      <g transform="translate(632.675 342.596875) scale(0.2 -0.2)">
       <use xlink:href="#DejaVuSans-31"/>
       <use xlink:href="#DejaVuSans-32" x="63.623047"/>
       <use xlink:href="#DejaVuSans-35" x="127.246094"/>
       <use xlink:href="#DejaVuSans-30" x="190.869141"/>
      </g>
     </g>
    </g>
    <g id="xtick_7">
     <g id="line2d_13">
      <path d="M 762.75 320.4 
L 762.75 43.2 
" clip-path="url(#p174d04414a)" style="fill: none; stroke: #b0b0b0; stroke-width: 0.8; stroke-linecap: square"/>
     </g>
     <g id="line2d_14">
      <g>
       <use xlink:href="#m2c01a1dce5" x="762.75" y="320.4" style="stroke: #000000; stroke-width: 0.8"/>
      </g>
     </g>
     <g id="text_7">
      <!-- 1500 -->
      <g transform="translate(737.3 342.596875) scale(0.2 -0.2)">
       <use xlink:href="#DejaVuSans-31"/>
       <use xlink:href="#DejaVuSans-35" x="63.623047"/>
       <use xlink:href="#DejaVuSans-30" x="127.246094"/>
       <use xlink:href="#DejaVuSans-30" x="190.869141"/>
      </g>
     </g>
    </g>
    <g id="xtick_8">
     <g id="line2d_15">
      <path d="M 867.375 320.4 
L 867.375 43.2 
" clip-path="url(#p174d04414a)" style="fill: none; stroke: #b0b0b0; stroke-width: 0.8; stroke-linecap: square"/>
     </g>
     <g id="line2d_16">
      <g>
       <use xlink:href="#m2c01a1dce5" x="867.375" y="320.4" style="stroke: #000000; stroke-width: 0.8"/>
      </g>
     </g>
     <g id="text_8">
      <!-- 1750 -->
      <g transform="translate(841.925 342.596875) scale(0.2 -0.2)">
       <use xlink:href="#DejaVuSans-31"/>
       <use xlink:href="#DejaVuSans-37" x="63.623047"/>
       <use xlink:href="#DejaVuSans-35" x="127.246094"/>
       <use xlink:href="#DejaVuSans-30" x="190.869141"/>
      </g>
     </g>
    </g>
    <g id="xtick_9">
     <g id="line2d_17">
      <path d="M 972 320.4 
L 972 43.2 
" clip-path="url(#p174d04414a)" style="fill: none; stroke: #b0b0b0; stroke-width: 0.8; stroke-linecap: square"/>
     </g>
     <g id="line2d_18">
      <g>
       <use xlink:href="#m2c01a1dce5" x="972" y="320.4" style="stroke: #000000; stroke-width: 0.8"/>
      </g>
     </g>
     <g id="text_9">
      <!-- 2000 -->
      <g transform="translate(946.55 342.596875) scale(0.2 -0.2)">
       <use xlink:href="#DejaVuSans-32"/>
       <use xlink:href="#DejaVuSans-30" x="63.623047"/>
       <use xlink:href="#DejaVuSans-30" x="127.246094"/>
       <use xlink:href="#DejaVuSans-30" x="190.869141"/>
      </g>
     </g>
    </g>
    <g id="text_10">
     <!-- n -->
     <g transform="translate(547.1625 365.953125) scale(0.2 -0.2)">
      <defs>
       <path id="DejaVuSans-6e" d="M 3513 2113 
L 3513 0 
L 2938 0 
L 2938 2094 
Q 2938 2591 2744 2837 
Q 2550 3084 2163 3084 
Q 1697 3084 1428 2787 
Q 1159 2491 1159 1978 
L 1159 0 
L 581 0 
L 581 3500 
L 1159 3500 
L 1159 2956 
Q 1366 3272 1645 3428 
Q 1925 3584 2291 3584 
Q 2894 3584 3203 3211 
Q 3513 2838 3513 2113 
z
" transform="scale(0.015625)"/>
      </defs>
      <use xlink:href="#DejaVuSans-6e"/>
     </g>
    </g>
   </g>
   <g id="matplotlib.axis_2">
    <g id="ytick_1">
     <g id="line2d_19">
      <path d="M 135 307.8 
L 972 307.8 
" clip-path="url(#p174d04414a)" style="fill: none; stroke: #b0b0b0; stroke-width: 0.8; stroke-linecap: square"/>
     </g>
     <g id="line2d_20">
      <defs>
       <path id="m0b04518d19" d="M 0 0 
L -3.5 0 
" style="stroke: #000000; stroke-width: 0.8"/>
      </defs>
      <g>
       <use xlink:href="#m0b04518d19" x="135" y="307.8" style="stroke: #000000; stroke-width: 0.8"/>
      </g>
     </g>
     <g id="text_11">
      <!-- −1.00 -->
      <g transform="translate(66.709375 315.398438) scale(0.2 -0.2)">
       <defs>
        <path id="DejaVuSans-2212" d="M 678 2272 
L 4684 2272 
L 4684 1741 
L 678 1741 
L 678 2272 
z
" transform="scale(0.015625)"/>
        <path id="DejaVuSans-2e" d="M 684 794 
L 1344 794 
L 1344 0 
L 684 0 
L 684 794 
z
" transform="scale(0.015625)"/>
       </defs>
       <use xlink:href="#DejaVuSans-2212"/>
       <use xlink:href="#DejaVuSans-31" x="83.789062"/>
       <use xlink:href="#DejaVuSans-2e" x="147.412109"/>
       <use xlink:href="#DejaVuSans-30" x="179.199219"/>
       <use xlink:href="#DejaVuSans-30" x="242.822266"/>
      </g>
     </g>
    </g>
    <g id="ytick_2">
     <g id="line2d_21">
      <path d="M 135 276.3 
L 972 276.3 
" clip-path="url(#p174d04414a)" style="fill: none; stroke: #b0b0b0; stroke-width: 0.8; stroke-linecap: square"/>
     </g>
     <g id="line2d_22">
      <g>
       <use xlink:href="#m0b04518d19" x="135" y="276.3" style="stroke: #000000; stroke-width: 0.8"/>
      </g>
     </g>
     <g id="text_12">
      <!-- −0.75 -->
      <g transform="translate(66.709375 283.898438) scale(0.2 -0.2)">
       <use xlink:href="#DejaVuSans-2212"/>
       <use xlink:href="#DejaVuSans-30" x="83.789062"/>
       <use xlink:href="#DejaVuSans-2e" x="147.412109"/>
       <use xlink:href="#DejaVuSans-37" x="179.199219"/>
       <use xlink:href="#DejaVuSans-35" x="242.822266"/>
      </g>
     </g>
    </g>
    <g id="ytick_3">
     <g id="line2d_23">
      <path d="M 135 244.8 
L 972 244.8 
" clip-path="url(#p174d04414a)" style="fill: none; stroke: #b0b0b0; stroke-width: 0.8; stroke-linecap: square"/>
     </g>
     <g id="line2d_24">
      <g>
       <use xlink:href="#m0b04518d19" x="135" y="244.8" style="stroke: #000000; stroke-width: 0.8"/>
      </g>
     </g>
     <g id="text_13">
      <!-- −0.50 -->
      <g transform="translate(66.709375 252.398438) scale(0.2 -0.2)">
       <use xlink:href="#DejaVuSans-2212"/>
       <use xlink:href="#DejaVuSans-30" x="83.789062"/>
       <use xlink:href="#DejaVuSans-2e" x="147.412109"/>
       <use xlink:href="#DejaVuSans-35" x="179.199219"/>
       <use xlink:href="#DejaVuSans-30" x="242.822266"/>
      </g>
     </g>
    </g>
    <g id="ytick_4">
     <g id="line2d_25">
      <path d="M 135 213.3 
L 972 213.3 
" clip-path="url(#p174d04414a)" style="fill: none; stroke: #b0b0b0; stroke-width: 0.8; stroke-linecap: square"/>
     </g>
     <g id="line2d_26">
      <g>
       <use xlink:href="#m0b04518d19" x="135" y="213.3" style="stroke: #000000; stroke-width: 0.8"/>
      </g>
     </g>
     <g id="text_14">
      <!-- −0.25 -->
      <g transform="translate(66.709375 220.898438) scale(0.2 -0.2)">
       <use xlink:href="#DejaVuSans-2212"/>
       <use xlink:href="#DejaVuSans-30" x="83.789062"/>
       <use xlink:href="#DejaVuSans-2e" x="147.412109"/>
       <use xlink:href="#DejaVuSans-32" x="179.199219"/>
       <use xlink:href="#DejaVuSans-35" x="242.822266"/>
      </g>
     </g>
    </g>
    <g id="ytick_5">
     <g id="line2d_27">
      <path d="M 135 181.8 
L 972 181.8 
" clip-path="url(#p174d04414a)" style="fill: none; stroke: #b0b0b0; stroke-width: 0.8; stroke-linecap: square"/>
     </g>
     <g id="line2d_28">
      <g>
       <use xlink:href="#m0b04518d19" x="135" y="181.8" style="stroke: #000000; stroke-width: 0.8"/>
      </g>
     </g>
     <g id="text_15">
      <!-- 0.00 -->
      <g transform="translate(83.46875 189.398438) scale(0.2 -0.2)">
       <use xlink:href="#DejaVuSans-30"/>
       <use xlink:href="#DejaVuSans-2e" x="63.623047"/>
       <use xlink:href="#DejaVuSans-30" x="95.410156"/>
       <use xlink:href="#DejaVuSans-30" x="159.033203"/>
      </g>
     </g>
    </g>
    <g id="ytick_6">
     <g id="line2d_29">
      <path d="M 135 150.3 
L 972 150.3 
" clip-path="url(#p174d04414a)" style="fill: none; stroke: #b0b0b0; stroke-width: 0.8; stroke-linecap: square"/>
     </g>
     <g id="line2d_30">
      <g>
       <use xlink:href="#m0b04518d19" x="135" y="150.3" style="stroke: #000000; stroke-width: 0.8"/>
      </g>
     </g>
     <g id="text_16">
      <!-- 0.25 -->
      <g transform="translate(83.46875 157.898438) scale(0.2 -0.2)">
       <use xlink:href="#DejaVuSans-30"/>
       <use xlink:href="#DejaVuSans-2e" x="63.623047"/>
       <use xlink:href="#DejaVuSans-32" x="95.410156"/>
       <use xlink:href="#DejaVuSans-35" x="159.033203"/>
      </g>
     </g>
    </g>
    <g id="ytick_7">
     <g id="line2d_31">
      <path d="M 135 118.8 
L 972 118.8 
" clip-path="url(#p174d04414a)" style="fill: none; stroke: #b0b0b0; stroke-width: 0.8; stroke-linecap: square"/>
     </g>
     <g id="line2d_32">
      <g>
       <use xlink:href="#m0b04518d19" x="135" y="118.8" style="stroke: #000000; stroke-width: 0.8"/>
      </g>
     </g>
     <g id="text_17">
      <!-- 0.50 -->
      <g transform="translate(83.46875 126.398438) scale(0.2 -0.2)">
       <use xlink:href="#DejaVuSans-30"/>
       <use xlink:href="#DejaVuSans-2e" x="63.623047"/>
       <use xlink:href="#DejaVuSans-35" x="95.410156"/>
       <use xlink:href="#DejaVuSans-30" x="159.033203"/>
      </g>
     </g>
    </g>
    <g id="ytick_8">
     <g id="line2d_33">
      <path d="M 135 87.3 
L 972 87.3 
" clip-path="url(#p174d04414a)" style="fill: none; stroke: #b0b0b0; stroke-width: 0.8; stroke-linecap: square"/>
     </g>
     <g id="line2d_34">
      <g>
       <use xlink:href="#m0b04518d19" x="135" y="87.3" style="stroke: #000000; stroke-width: 0.8"/>
      </g>
     </g>
     <g id="text_18">
      <!-- 0.75 -->
      <g transform="translate(83.46875 94.898438) scale(0.2 -0.2)">
       <use xlink:href="#DejaVuSans-30"/>
       <use xlink:href="#DejaVuSans-2e" x="63.623047"/>
       <use xlink:href="#DejaVuSans-37" x="95.410156"/>
       <use xlink:href="#DejaVuSans-35" x="159.033203"/>
      </g>
     </g>
    </g>
    <g id="ytick_9">
     <g id="line2d_35">
      <path d="M 135 55.8 
L 972 55.8 
" clip-path="url(#p174d04414a)" style="fill: none; stroke: #b0b0b0; stroke-width: 0.8; stroke-linecap: square"/>
     </g>
     <g id="line2d_36">
      <g>
       <use xlink:href="#m0b04518d19" x="135" y="55.8" style="stroke: #000000; stroke-width: 0.8"/>
      </g>
     </g>
     <g id="text_19">
      <!-- 1.00 -->
      <g transform="translate(83.46875 63.398437) scale(0.2 -0.2)">
       <use xlink:href="#DejaVuSans-31"/>
       <use xlink:href="#DejaVuSans-2e" x="63.623047"/>
       <use xlink:href="#DejaVuSans-30" x="95.410156"/>
       <use xlink:href="#DejaVuSans-30" x="159.033203"/>
      </g>
     </g>
    </g>
    <g id="text_20">
     <!-- d(n) -->
     <g transform="translate(58.55 202.289062) rotate(-90) scale(0.2 -0.2)">
      <defs>
       <path id="DejaVuSans-64" d="M 2906 2969 
L 2906 4863 
L 3481 4863 
L 3481 0 
L 2906 0 
L 2906 525 
Q 2725 213 2448 61 
Q 2172 -91 1784 -91 
Q 1150 -91 751 415 
Q 353 922 353 1747 
Q 353 2572 751 3078 
Q 1150 3584 1784 3584 
Q 2172 3584 2448 3432 
Q 2725 3281 2906 2969 
z
M 947 1747 
Q 947 1113 1208 752 
Q 1469 391 1925 391 
Q 2381 391 2643 752 
Q 2906 1113 2906 1747 
Q 2906 2381 2643 2742 
Q 2381 3103 1925 3103 
Q 1469 3103 1208 2742 
Q 947 2381 947 1747 
z
" transform="scale(0.015625)"/>
       <path id="DejaVuSans-28" d="M 1984 4856 
Q 1566 4138 1362 3434 
Q 1159 2731 1159 2009 
Q 1159 1288 1364 580 
Q 1569 -128 1984 -844 
L 1484 -844 
Q 1016 -109 783 600 
Q 550 1309 550 2009 
Q 550 2706 781 3412 
Q 1013 4119 1484 4856 
L 1984 4856 
z
" transform="scale(0.015625)"/>
       <path id="DejaVuSans-29" d="M 513 4856 
L 1013 4856 
Q 1481 4119 1714 3412 
Q 1947 2706 1947 2009 
Q 1947 1309 1714 600 
Q 1481 -109 1013 -844 
L 513 -844 
Q 928 -128 1133 580 
Q 1338 1288 1338 2009 
Q 1338 2731 1133 3434 
Q 928 4138 513 4856 
z
" transform="scale(0.015625)"/>
      </defs>
      <use xlink:href="#DejaVuSans-64"/>
      <use xlink:href="#DejaVuSans-28" x="63.476562"/>
      <use xlink:href="#DejaVuSans-6e" x="102.490234"/>
      <use xlink:href="#DejaVuSans-29" x="165.869141"/>
     </g>
    </g>
   </g>
   <g id="line2d_37">
    <path d="M 135 55.8 
L 143.7885 55.892642 
L 147.1365 56.136807 
L 149.6475 56.514241 
L 151.74 57.01765 
L 153.8325 57.748546 
L 155.5065 58.536461 
L 157.1805 59.54047 
L 158.8545 60.795647 
L 160.5285 62.338978 
L 162.2025 64.209027 
L 163.8765 66.445526 
L 165.5505 69.088888 
L 167.2245 72.179626 
L 168.8985 75.757681 
L 170.5725 79.861643 
L 172.2465 84.527871 
L 173.9205 89.789504 
L 175.5945 95.675367 
L 177.687 103.945421 
L 179.7795 113.25703 
L 181.872 123.619675 
L 183.9645 135.017696 
L 186.4755 149.995985 
L 189.405 169.07479 
L 192.753 192.53186 
L 202.3785 261.351118 
L 204.471 274.394341 
L 206.145 283.727279 
L 207.819 291.840724 
L 209.0745 296.992028 
L 210.33 301.241079 
L 211.167 303.528859 
L 212.004 305.351507 
L 212.841 306.685363 
L 213.678 307.508238 
L 214.0965 307.721586 
L 214.515 307.79966 
L 214.9335 307.740208 
L 215.352 307.541119 
L 215.7705 307.200429 
L 216.6075 306.087158 
L 217.4445 304.387902 
L 218.2815 302.093014 
L 219.1185 299.195941 
L 220.374 293.715169 
L 221.6295 286.877499 
L 222.885 278.707021 
L 224.1405 269.248924 
L 225.8145 254.755113 
L 227.4885 238.319059 
L 229.581 215.505483 
L 232.5105 180.716146 
L 237.5325 120.575042 
L 239.625 98.46834 
L 241.299 83.261913 
L 242.5545 73.698941 
L 243.81 65.976464 
L 244.647 61.95594 
L 245.484 58.903154 
L 246.321 56.866764 
L 246.7395 56.242873 
L 247.158 55.887849 
L 247.5765 55.805512 
L 247.995 55.999107 
L 248.4135 56.471287 
L 248.832 57.224088 
L 249.669 59.576488 
L 250.506 63.05951 
L 251.343 67.665304 
L 252.18 73.374501 
L 253.4355 83.935514 
L 254.691 96.749335 
L 256.365 116.952394 
L 258.039 140.080605 
L 260.55 178.32926 
L 264.735 242.529044 
L 266.409 264.878891 
L 267.6645 279.279622 
L 268.92 291.142908 
L 269.757 297.438447 
L 270.594 302.319385 
L 271.431 305.696567 
L 271.8495 306.79807 
L 272.268 307.498137 
L 272.6865 307.790774 
L 273.105 307.671279 
L 273.5235 307.136282 
L 273.942 306.183785 
L 274.3605 304.813202 
L 275.1975 300.822655 
L 276.0345 295.1892 
L 276.8715 287.961459 
L 278.127 274.296785 
L 279.3825 257.562802 
L 281.0565 231.297537 
L 283.149 194.134457 
L 287.334 118.502658 
L 289.008 93.102113 
L 290.2635 77.598954 
L 291.1005 69.32931 
L 291.9375 62.911143 
L 292.7745 58.484201 
L 293.193 57.052666 
L 293.6115 56.157021 
L 294.03 55.805442 
L 294.4485 56.003789 
L 294.867 56.755535 
L 295.2855 58.06171 
L 295.704 59.920847 
L 296.541 65.279455 
L 297.378 72.768561 
L 298.215 82.284195 
L 299.4705 100.030151 
L 300.726 121.349175 
L 302.4 153.87176 
L 307.422 255.402937 
L 308.6775 275.589823 
L 309.5145 286.742342 
L 310.3515 295.738791 
L 311.1885 302.356274 
L 311.607 304.715764 
L 312.0255 306.418239 
L 312.444 307.449772 
L 312.8625 307.799965 
L 313.281 307.462071 
L 313.6995 306.433087 
L 314.118 304.713837 
L 314.5365 302.309023 
L 315.3735 295.48114 
L 316.2105 286.065561 
L 317.0475 274.240517 
L 318.303 252.521728 
L 319.977 217.810107 
L 324.999 106.032646 
L 326.2545 84.460489 
L 327.0915 73.001044 
L 327.9285 64.265478 
L 328.7655 58.51452 
L 329.184 56.82016 
L 329.6025 55.9365 
L 330.021 55.874581 
L 330.4395 56.640119 
L 330.858 58.233383 
L 331.2765 60.649112 
L 332.1135 67.899036 
L 332.9505 78.236375 
L 333.7875 91.420108 
L 335.043 115.801728 
L 336.717 154.626176 
L 340.902 255.993632 
L 342.1575 279.481476 
L 342.9945 291.694599 
L 343.8315 300.673753 
L 344.25 303.849915 
L 344.6685 306.109126 
L 345.087 307.428695 
L 345.5055 307.792914 
L 345.924 307.193276 
L 346.3425 305.628644 
L 346.761 303.105363 
L 347.598 295.245902 
L 348.435 283.81584 
L 349.272 269.133052 
L 350.5275 241.973379 
L 352.2015 199.15967 
L 355.131 121.624696 
L 356.3865 93.804279 
L 357.2235 78.763876 
L 358.0605 67.179037 
L 358.8975 59.487024 
L 359.316 57.203138 
L 359.7345 55.998 
L 360.153 55.888177 
L 360.5715 56.880752 
L 360.99 58.973142 
L 361.4085 62.152989 
L 362.2455 71.676754 
L 363.0825 85.159337 
L 363.9195 102.159865 
L 365.175 132.962241 
L 367.2675 192.17417 
L 369.36 249.499751 
L 370.6155 277.304723 
L 371.4525 291.493337 
L 372.2895 301.501039 
L 372.708 304.795056 
L 373.1265 306.89449 
L 373.545 307.77245 
L 373.9635 307.413857 
L 374.382 305.815743 
L 374.8005 302.987427 
L 375.219 298.950572 
L 376.056 287.399101 
L 376.893 271.575873 
L 378.1485 241.177048 
L 379.8225 192.512209 
L 382.3335 118.268984 
L 383.589 88.175718 
L 384.426 72.845966 
L 385.263 62.139118 
L 385.6815 58.68652 
L 386.1 56.564248 
L 386.5185 55.802088 
L 386.937 56.415174 
L 387.3555 58.403643 
L 387.774 61.752464 
L 388.1925 66.431425 
L 389.0295 79.584151 
L 389.8665 97.326883 
L 391.122 130.855016 
L 393.2145 196.649841 
L 394.8885 247.525143 
L 396.144 278.393682 
L 396.981 293.57065 
L 397.818 303.508469 
L 398.2365 306.338946 
L 398.655 307.683794 
L 399.0735 307.519777 
L 399.492 305.84169 
L 399.9105 302.662621 
L 400.329 298.013993 
L 401.166 284.524135 
L 402.003 265.977745 
L 403.2585 230.629275 
L 405.7695 147.697306 
L 407.025 109.367182 
L 407.862 88.069027 
L 408.699 71.514218 
L 409.536 60.600942 
L 409.9545 57.46521 
L 410.373 55.947587 
L 410.7915 56.075336 
L 411.21 57.854277 
L 411.6285 61.268476 
L 412.047 66.280231 
L 412.884 80.838663 
L 413.721 100.810104 
L 414.9765 138.613633 
L 418.743 263.392647 
L 419.58 283.594163 
L 420.417 298.177264 
L 420.8355 303.07747 
L 421.254 306.274295 
L 421.6725 307.715023 
L 422.091 307.371511 
L 422.5095 305.240841 
L 422.928 301.345622 
L 423.3465 295.733926 
L 424.1835 279.677735 
L 425.0205 257.940481 
L 426.276 217.408389 
L 429.624 101.844765 
L 430.461 80.594807 
L 431.298 65.367041 
L 431.7165 60.330494 
L 432.135 57.132811 
L 432.5535 55.830513 
L 432.972 56.45151 
L 433.3905 58.994387 
L 433.809 63.428138 
L 434.2275 69.692352 
L 435.0645 87.327858 
L 435.9015 110.865496 
L 437.157 154.051289 
L 439.668 245.986534 
L 440.505 271.134384 
L 441.342 290.61288 
L 442.179 303.117681 
L 442.5975 306.464454 
L 443.016 307.780018 
L 443.4345 307.034547 
L 443.853 304.231894 
L 444.2715 299.409854 
L 444.69 292.639856 
L 445.527 273.704129 
L 446.364 248.622152 
L 447.6195 203.119636 
L 450.1305 109.348176 
L 450.9675 85.098057 
L 451.8045 67.424914 
L 452.223 61.471959 
L 452.6415 57.600793 
L 453.06 55.887065 
L 453.4785 56.369217 
L 453.897 59.047459 
L 454.3155 63.88342 
L 454.734 70.800466 
L 455.571 90.38666 
L 456.408 116.482536 
L 457.6635 163.784213 
L 459.756 245.40632 
L 460.593 272.137434 
L 461.43 292.351787 
L 461.8485 299.515523 
L 462.267 304.518444 
L 462.6855 307.259784 
L 463.104 307.680076 
L 463.5225 305.762635 
L 463.941 301.534249 
L 464.3595 295.065067 
L 465.1965 275.895336 
L 466.0335 249.62649 
L 467.289 201.243002 
L 469.3815 117.266442 
L 470.2185 90.021594 
L 471.0555 69.79777 
L 471.474 62.849871 
L 471.8925 58.216867 
L 472.311 55.998123 
L 472.7295 56.246183 
L 473.148 58.965328 
L 473.5665 64.111069 
L 473.985 71.590608 
L 474.822 92.947847 
L 475.659 121.406095 
L 477.333 190.336414 
L 479.007 256.870785 
L 479.844 282.390924 
L 480.681 299.754379 
L 481.0995 304.884305 
L 481.518 307.476917 
L 481.9365 307.469313 
L 482.355 304.852253 
L 482.7735 299.670799 
L 483.192 292.023834 
L 484.029 269.987187 
L 484.866 240.520794 
L 486.54 169.44984 
L 487.7955 117.317644 
L 488.6325 88.751305 
L 489.4695 68.109411 
L 489.888 61.364803 
L 490.3065 57.228757 
L 490.725 55.800564 
L 491.1435 57.120948 
L 491.562 61.170692 
L 491.9805 67.870567 
L 492.8175 88.612535 
L 493.6545 117.592724 
L 494.91 170.88125 
L 496.584 243.630412 
L 497.421 273.389305 
L 498.258 294.957521 
L 498.6765 302.008465 
L 499.095 306.325271 
L 499.5135 307.799807 
L 499.932 306.3885 
L 500.3505 302.113861 
L 500.769 295.064491 
L 501.606 273.315831 
L 502.443 243.078197 
L 504.117 168.680674 
L 505.3725 114.307007 
L 506.2095 85.212791 
L 507.0465 65.186776 
L 507.465 59.226194 
L 507.8835 56.191579 
L 508.302 56.165544 
L 508.7205 59.158816 
L 509.139 65.10941 
L 509.5575 73.883561 
L 510.3945 99.026338 
L 511.2315 132.22509 
L 514.5795 276.629136 
L 515.4165 297.709123 
L 515.835 304.044782 
L 516.2535 307.329996 
L 516.672 307.472384 
L 517.0905 304.458051 
L 517.509 298.352541 
L 517.9275 289.299794 
L 518.7645 263.300098 
L 519.6015 229.014978 
L 522.531 96.933175 
L 523.368 71.794307 
L 523.7865 63.347099 
L 524.205 57.978086 
L 524.6235 55.837424 
L 525.042 56.991532 
L 525.4605 61.420715 
L 525.879 69.019034 
L 526.716 92.883233 
L 527.553 126.148682 
L 530.901 276.726903 
L 531.738 298.425006 
L 532.1565 304.673699 
L 532.575 307.587473 
L 532.9935 307.076409 
L 533.412 303.143687 
L 533.8305 295.886188 
L 534.249 285.49252 
L 535.086 256.480215 
L 536.3415 198.735889 
L 538.0155 117.697589 
L 538.8525 85.571738 
L 539.6895 64.133312 
L 540.108 58.248493 
L 540.5265 55.853054 
L 540.945 57.025687 
L 541.3635 61.744081 
L 541.782 69.884831 
L 542.619 95.453919 
L 543.456 130.899916 
L 546.3855 270.111379 
L 547.2225 295.152863 
L 547.641 302.876068 
L 548.0595 307.053435 
L 548.478 307.55135 
L 548.8965 304.344 
L 549.315 297.514894 
L 549.7335 287.255173 
L 550.5705 257.714002 
L 551.826 197.849926 
L 553.5 114.171236 
L 554.337 81.956061 
L 554.7555 70.136976 
L 555.174 61.697213 
L 555.5925 56.90367 
L 556.011 55.913363 
L 556.4295 58.767855 
L 556.848 65.391179 
L 557.2665 75.591354 
L 558.1035 105.40833 
L 559.359 166.329278 
L 561.033 251.242572 
L 561.87 283.416167 
L 562.2885 294.973131 
L 562.707 302.980346 
L 563.1255 307.174968 
L 563.544 307.413343 
L 563.9625 303.676373 
L 564.381 296.070977 
L 564.7995 284.827546 
L 565.6365 252.922746 
L 566.892 189.620901 
L 568.566 104.82374 
L 569.403 74.570652 
L 569.8215 64.429227 
L 570.24 58.102147 
L 570.6585 55.806929 
L 571.077 57.630223 
L 571.4955 63.524094 
L 571.914 73.306688 
L 572.751 103.175881 
L 573.588 143.403127 
L 575.6805 253.34544 
L 576.5175 285.769857 
L 576.936 297.015991 
L 577.3545 304.395394 
L 577.773 307.648314 
L 578.1915 306.653201 
L 578.61 301.431749 
L 579.0285 292.149098 
L 579.8655 262.745233 
L 580.7025 222.337478 
L 582.795 110.577073 
L 583.632 77.630751 
L 584.0505 66.291959 
L 584.469 58.955573 
L 584.8875 55.888095 
L 585.306 57.208361 
L 585.7245 62.88243 
L 586.143 72.723776 
L 586.98 103.437815 
L 587.817 145.14529 
L 589.9095 257.843366 
L 590.7465 289.582735 
L 591.165 299.945589 
L 591.5835 306.08269 
L 592.002 307.762051 
L 592.4205 304.911054 
L 592.839 297.620084 
L 593.2575 286.14031 
L 594.0945 252.368943 
L 595.35 184.485578 
L 596.6055 115.576 
L 597.4425 80.239577 
L 597.861 67.860647 
L 598.2795 59.675417 
L 598.698 55.997828 
L 599.1165 56.976247 
L 599.535 62.586909 
L 599.9535 72.633715 
L 600.7905 104.433284 
L 601.6275 147.748784 
L 603.72 262.791239 
L 604.557 293.401846 
L 604.9755 302.628128 
L 605.394 307.265888 
L 605.8125 307.12618 
L 606.231 302.201657 
L 606.6495 292.667982 
L 607.068 278.878232 
L 607.905 240.748683 
L 610.8345 83.641909 
L 611.253 70.02935 
L 611.6715 60.770995 
L 612.09 56.240563 
L 612.5085 56.628036 
L 612.927 61.931066 
L 613.3455 71.95389 
L 614.1825 104.455425 
L 615.0195 149.128266 
L 617.112 266.509912 
L 617.949 296.202101 
L 618.3675 304.434949 
L 618.786 307.74076 
L 619.2045 305.973571 
L 619.623 299.191643 
L 620.0415 287.656343 
L 620.8785 252.32246 
L 622.134 180.222232 
L 623.3895 108.524353 
L 624.2265 73.980962 
L 624.645 63.033142 
L 625.0635 56.978997 
L 625.482 56.081363 
L 625.9005 60.390554 
L 626.319 69.741006 
L 626.7375 83.756877 
L 627.5745 123.32481 
L 630.504 284.625556 
L 630.9225 297.347227 
L 631.341 305.186864 
L 631.7595 307.799655 
L 632.178 305.061449 
L 632.5965 297.075344 
L 633.015 284.168622 
L 633.852 245.938253 
L 635.526 144.975919 
L 636.363 99.387444 
L 637.2 67.843438 
L 637.6185 59.175523 
L 638.037 55.833404 
L 638.4555 57.975895 
L 638.874 65.523106 
L 639.2925 78.158549 
L 640.1295 116.330061 
L 641.385 192.392113 
L 642.6405 264.529374 
L 643.4775 296.211834 
L 643.896 304.740005 
L 644.3145 307.794594 
L 644.733 305.22579 
L 645.1515 297.134718 
L 645.57 283.870345 
L 646.407 244.360718 
L 649.3365 77.693668 
L 649.755 65.002568 
L 650.1735 57.628065 
L 650.592 55.919924 
L 651.0105 59.970017 
L 651.429 69.606652 
L 651.8475 84.400961 
L 652.6845 126.582017 
L 655.1955 275.653013 
L 655.614 291.50692 
L 656.0325 302.255917 
L 656.451 307.385551 
L 656.8695 306.64232 
L 657.288 300.047021 
L 657.7065 287.89531 
L 658.5435 249.39289 
L 659.799 170.81663 
L 661.0545 96.621039 
L 661.473 78.505459 
L 661.8915 65.302651 
L 662.31 57.655017 
L 662.7285 55.941646 
L 663.147 60.258681 
L 663.5655 70.413136 
L 663.984 85.930578 
L 664.821 129.889951 
L 666.9135 260.877071 
L 667.7505 295.26287 
L 668.169 304.527977 
L 668.5875 307.797146 
L 669.006 304.896198 
L 669.4245 295.953071 
L 669.843 281.393175 
L 670.68 238.482344 
L 673.191 85.313343 
L 673.6095 69.738402 
L 674.028 59.744861 
L 674.4465 55.845227 
L 674.865 58.248837 
L 675.2835 66.849715 
L 675.702 81.230194 
L 676.539 124.231671 
L 679.05 278.829039 
L 679.4685 294.384268 
L 679.887 304.20949 
L 680.3055 307.789728 
L 680.724 304.927547 
L 681.1425 295.754879 
L 681.561 280.728005 
L 682.398 236.412482 
L 684.4905 101.468355 
L 685.3275 66.875215 
L 685.746 58.154479 
L 686.1645 55.878692 
L 686.583 60.181357 
L 687.0015 70.85215 
L 687.42 87.346131 
L 688.257 134.128245 
L 690.3495 268.948689 
L 690.768 287.460268 
L 691.1865 300.371967 
L 691.605 306.984209 
L 692.0235 306.930526 
L 692.442 300.198872 
L 692.8605 287.134119 
L 693.6975 245.051482 
L 696.2085 85.467698 
L 696.627 69.300281 
L 697.0455 59.224063 
L 697.464 55.8 
L 697.8825 59.229138 
L 698.301 69.339784 
L 698.7195 85.594943 
L 699.5565 132.74779 
L 701.649 269.999707 
L 702.0675 288.565757 
L 702.486 301.241079 
L 702.9045 307.310742 
L 703.323 306.423607 
L 703.7415 298.613702 
L 704.16 284.300311 
L 704.997 239.617697 
L 707.508 79.47944 
L 707.9265 65.028071 
L 708.345 57.157336 
L 708.7635 56.32644 
L 709.182 62.597698 
L 709.6005 75.630988 
L 710.4375 118.736624 
L 712.9485 281.570373 
L 713.367 297.0167 
L 713.7855 305.847305 
L 714.204 307.539319 
L 714.6225 301.979796 
L 715.041 289.474307 
L 715.4595 270.731361 
L 716.2965 219.126314 
L 717.9705 103.858267 
L 718.389 82.376741 
L 718.8075 66.697658 
L 719.226 57.752157 
L 719.6445 56.079522 
L 720.063 61.793534 
L 720.4815 74.573644 
L 720.9 93.681708 
L 721.737 146.112581 
L 723.411 261.962358 
L 723.8295 283.119168 
L 724.248 298.251712 
L 724.6665 306.444011 
L 725.085 307.191728 
L 725.5035 300.434405 
L 725.922 286.561275 
L 726.759 241.120215 
L 728.8515 96.690822 
L 729.27 76.565801 
L 729.6885 62.815076 
L 730.107 56.287908 
L 730.5255 57.396751 
L 730.944 66.089962 
L 731.3625 81.852689 
L 732.1995 130.413246 
L 734.292 274.183612 
L 734.7105 292.457805 
L 735.129 303.904171 
L 735.5475 307.799998 
L 735.966 303.888149 
L 736.3845 292.395285 
L 736.803 274.020122 
L 737.64 221.503635 
L 739.314 102.317217 
L 739.7325 80.507936 
L 740.151 65.04998 
L 740.5695 56.929285 
L 740.988 56.672715 
L 741.4065 64.312607 
L 741.825 79.382339 
L 742.662 127.642963 
L 744.7545 273.971427 
L 745.173 292.570583 
L 745.5915 304.095273 
L 746.01 307.792731 
L 746.4285 303.409817 
L 746.847 291.211662 
L 747.2655 271.967085 
L 748.1025 217.619803 
L 749.7765 97.558029 
L 750.195 76.607278 
L 750.6135 62.483282 
L 751.032 56.11958 
L 751.4505 57.946797 
L 751.869 67.862144 
L 752.2875 85.233621 
L 753.1245 137.436594 
L 754.7985 259.956433 
L 755.217 282.560646 
L 755.6355 298.520493 
L 756.054 306.766438 
L 756.4725 306.736591 
L 756.891 298.416378 
L 757.3095 282.342075 
L 758.1465 231.597237 
L 759.8205 107.470052 
L 760.239 83.832627 
L 760.6575 66.759075 
L 761.076 57.410622 
L 761.4945 56.432115 
L 761.913 63.90614 
L 762.3315 79.344824 
L 763.1685 129.531184 
L 765.261 278.888289 
L 765.6795 296.37724 
L 766.098 306.048994 
L 766.5165 307.226447 
L 766.935 299.812221 
L 767.3535 284.298017 
L 768.1905 233.656929 
L 770.283 83.594936 
L 770.7015 66.393046 
L 771.12 57.190643 
L 771.5385 56.642951 
L 771.957 64.804979 
L 772.3755 81.124942 
L 773.2125 133.252073 
L 774.8865 259.725203 
L 775.305 283.013547 
L 775.7235 299.189891 
L 776.142 307.099902 
L 776.5605 306.169128 
L 776.979 296.446249 
L 777.3975 278.602456 
L 778.2345 224.039663 
L 779.9085 97.887074 
L 780.327 75.986229 
L 780.7455 61.638915 
L 781.164 55.887065 
L 781.5825 59.15962 
L 782.001 71.238962 
L 782.4195 91.273653 
L 783.2565 149.026688 
L 784.512 247.213385 
L 785.349 293.284434 
L 785.7675 304.915718 
L 786.186 307.601385 
L 786.6045 301.128825 
L 787.023 285.952479 
L 787.86 234.413533 
L 789.534 104.95705 
L 789.9525 80.947589 
L 790.371 64.351131 
L 790.7895 56.405651 
L 791.208 57.714223 
L 791.6265 68.197607 
L 792.045 87.097088 
L 792.882 144.078304 
L 794.556 271.38993 
L 794.9745 292.032539 
L 795.393 304.444903 
L 795.8115 307.682189 
L 796.23 301.48447 
L 796.6485 286.299254 
L 797.067 263.250953 
L 797.904 200.912098 
L 799.1595 103.064625 
L 799.578 79.230404 
L 799.9965 63.158215 
L 800.415 56.082653 
L 800.8335 58.558307 
L 801.252 70.41457 
L 801.6705 90.765473 
L 802.5075 150.26748 
L 803.763 250.855915 
L 804.1815 277.1284 
L 804.6 296.089435 
L 805.0185 306.266193 
L 805.437 306.858207 
L 805.8555 297.802064 
L 806.274 279.779499 
L 807.111 222.936606 
L 808.785 92.643824 
L 809.2035 71.504681 
L 809.622 58.957523 
L 810.0405 55.998246 
L 810.459 62.875912 
L 810.8775 79.070028 
L 811.7145 133.760513 
L 813.3885 266.307582 
L 813.807 288.977762 
L 814.2255 303.186206 
L 814.644 307.792504 
L 815.0625 302.413979 
L 815.481 287.459313 
L 815.8995 264.099446 
L 816.7365 200.065606 
L 817.992 100.123222 
L 818.4105 76.517378 
L 818.829 61.335471 
L 819.2475 55.811047 
L 819.666 60.405454 
L 820.0845 74.767442 
L 820.503 97.75801 
L 821.34 161.718104 
L 822.5955 262.624927 
L 823.014 286.600221 
L 823.4325 302.077615 
L 823.851 307.783162 
L 824.2695 303.234732 
L 824.688 288.78466 
L 825.1065 265.594505 
L 825.9435 201.078 
L 827.199 99.801969 
L 827.6175 76.023126 
L 828.036 60.936264 
L 828.4545 55.800159 
L 828.873 61.056345 
L 829.2915 76.289213 
L 829.71 100.256792 
L 830.547 165.953539 
L 831.8025 266.932444 
L 832.221 289.917943 
L 832.6395 303.900385 
L 833.058 307.69631 
L 833.4765 300.970313 
L 833.895 284.266655 
L 834.732 227.179486 
L 836.406 91.752699 
L 836.8245 70.218302 
L 837.243 58.099146 
L 837.6615 56.437035 
L 838.08 65.391179 
L 838.4985 84.221036 
L 839.3355 144.473686 
L 840.591 250.656365 
L 841.0095 278.224901 
L 841.428 297.565478 
L 841.8465 307.00818 
L 842.265 305.726447 
L 842.6835 293.811464 
L 843.102 272.268101 
L 843.939 208.316083 
L 845.1945 103.297523 
L 845.613 78.017926 
L 846.0315 61.711931 
L 846.45 55.80902 
L 846.8685 60.83973 
L 847.287 76.385862 
L 847.7055 101.113009 
L 848.5425 168.937445 
L 849.798 271.138093 
L 850.2165 293.23804 
L 850.635 305.574929 
L 851.0535 307.048376 
L 851.472 297.510038 
L 851.8905 277.780534 
L 852.7275 215.385109 
L 853.983 107.996574 
L 854.4015 81.198255 
L 854.82 63.312625 
L 855.2385 55.944108 
L 855.657 59.766216 
L 856.0755 74.457804 
L 856.494 98.7277 
L 857.331 166.733004 
L 858.5865 270.545501 
L 859.005 293.061436 
L 859.4235 305.590401 
L 859.842 306.987989 
L 860.2605 297.109291 
L 860.679 276.825977 
L 861.516 213.081672 
L 862.7715 104.978934 
L 863.19 78.711684 
L 863.6085 61.801417 
L 864.027 55.803086 
L 864.4455 61.281766 
L 864.864 77.75716 
L 865.2825 103.743302 
L 866.1195 174.147519 
L 866.9565 247.363531 
L 867.375 276.588433 
L 867.7935 297.113884 
L 868.212 307.035752 
L 868.6305 305.421765 
L 869.049 292.401375 
L 869.4675 269.158006 
L 870.3045 201.28587 
L 871.56 94.791006 
L 871.9785 71.367652 
L 872.397 58.212512 
L 872.8155 56.56893 
L 873.234 66.609571 
L 873.6525 87.416073 
L 874.4895 152.782632 
L 875.745 262.038077 
L 876.1635 287.708135 
L 876.582 303.420935 
L 877.0005 307.67883 
L 877.419 300.060941 
L 877.8375 281.267129 
L 878.6745 218.083435 
L 879.93 106.973015 
L 880.3485 79.639021 
L 880.767 62.016709 
L 881.1855 55.801853 
L 881.604 61.606387 
L 882.0225 78.895728 
L 882.441 106.035447 
L 883.6965 217.529871 
L 884.5335 281.289186 
L 884.952 300.20127 
L 885.3705 307.712298 
L 885.789 303.078777 
L 886.2075 286.728271 
L 886.626 260.222575 
L 887.463 187.68659 
L 888.3 112.851166 
L 888.7185 83.716697 
L 889.137 64.114043 
L 889.5555 55.969078 
L 889.974 60.095161 
L 890.3925 76.109418 
L 890.811 102.465582 
L 891.648 175.18326 
L 892.485 250.503601 
L 892.9035 279.837067 
L 893.322 299.537859 
L 893.7405 307.649279 
L 894.159 303.352406 
L 894.5775 287.05131 
L 894.996 260.337783 
L 895.833 186.957993 
L 896.67 111.512709 
L 897.0885 82.446513 
L 897.507 63.25014 
L 897.9255 55.851639 
L 898.344 61.007851 
L 898.7625 78.224394 
L 899.181 105.800324 
L 901.2735 283.745054 
L 901.692 301.807001 
L 902.1105 307.794843 
L 902.529 301.085556 
L 902.9475 282.335735 
L 903.7845 217.246498 
L 905.04 103.152595 
L 905.4585 76.171977 
L 905.877 59.916846 
L 906.2955 56.058909 
L 906.714 65.01112 
L 907.1325 85.880826 
L 907.9695 153.916637 
L 909.225 266.88429 
L 909.6435 291.911743 
L 910.062 305.635848 
L 910.4805 306.626619 
L 910.899 294.761733 
L 911.3175 271.244039 
L 912.1545 199.847018 
L 912.9915 121.108977 
L 913.41 89.164056 
L 913.8285 66.814922 
L 914.247 56.398334 
L 914.6655 59.01639 
L 915.084 74.417201 
L 915.5025 101.0161 
L 916.3395 175.891083 
L 917.1765 253.241502 
L 917.595 282.653199 
L 918.0135 301.503228 
L 918.432 307.795954 
L 918.8505 300.850242 
L 919.269 281.375991 
L 920.106 214.079175 
L 921.3615 98.666753 
L 921.78 72.666777 
L 922.1985 58.220285 
L 922.617 56.878176 
L 923.0355 68.803535 
L 923.454 92.749184 
L 924.291 165.564036 
L 925.128 245.188271 
L 925.5465 276.926351 
L 925.965 298.502491 
L 926.3835 307.589833 
L 926.802 303.194546 
L 927.2205 285.767381 
L 927.639 257.160522 
L 929.7315 75.228333 
L 930.15 59.186112 
L 930.5685 56.406767 
L 930.987 67.212004 
L 931.4055 90.450933 
L 932.2425 163.128594 
L 933.0795 243.777381 
L 933.498 276.128449 
L 933.9165 298.200937 
L 934.335 307.567482 
L 934.7535 303.184091 
L 935.172 285.509448 
L 935.5905 256.460093 
L 937.683 73.682057 
L 938.1015 58.454051 
L 938.52 56.834458 
L 938.9385 69.023138 
L 939.357 93.692986 
L 940.194 168.535965 
L 941.031 249.169705 
L 941.4495 280.435524 
L 941.868 300.738561 
L 942.2865 307.799941 
L 942.705 300.811864 
L 943.1235 280.53308 
L 943.9605 210.329224 
L 945.216 93.102113 
L 945.6345 68.511518 
L 946.053 56.647969 
L 946.4715 58.866239 
L 946.89 74.937765 
L 947.3085 103.070784 
L 949.401 288.844813 
L 949.8195 304.84216 
L 950.238 306.869512 
L 950.6565 294.675197 
L 951.075 269.625859 
L 951.912 193.4521 
L 952.749 112.04177 
L 953.1675 81.048565 
L 953.586 61.579063 
L 954.0045 55.882707 
L 954.423 64.633944 
L 954.8415 86.84918 
L 955.6785 160.269598 
L 956.5155 243.392354 
L 956.934 276.647315 
L 957.3525 298.956541 
L 957.771 307.722619 
L 958.1895 301.910074 
L 958.608 282.170909 
L 959.445 211.351495 
L 960.7005 92.125977 
L 961.119 67.568941 
L 961.5375 56.335685 
L 961.956 59.758801 
L 962.3745 77.45969 
L 962.793 107.386911 
L 964.8855 293.542513 
L 965.304 306.64759 
L 965.7225 305.037314 
L 966.141 288.879938 
L 966.5595 260.062958 
L 968.652 71.890182 
L 969.0705 57.498325 
L 969.489 57.888785 
L 969.9075 73.036873 
L 970.326 101.158462 
L 971.163 181.815778 
L 972 262.5331 
L 972.4185 290.678452 
L 972.4185 290.678452 
" clip-path="url(#p174d04414a)" style="fill: none; stroke: #000000; stroke-linecap: square"/>
   </g>
   <g id="patch_3">
    <path d="M 135 320.4 
L 135 43.2 
" style="fill: none; stroke: #000000; stroke-width: 0.8; stroke-linejoin: miter; stroke-linecap: square"/>
   </g>
   <g id="patch_4">
    <path d="M 972 320.4 
L 972 43.2 
" style="fill: none; stroke: #000000; stroke-width: 0.8; stroke-linejoin: miter; stroke-linecap: square"/>
   </g>
   <g id="patch_5">
    <path d="M 135 320.4 
L 972 320.4 
" style="fill: none; stroke: #000000; stroke-width: 0.8; stroke-linejoin: miter; stroke-linecap: square"/>
   </g>
   <g id="patch_6">
    <path d="M 135 43.2 
L 972 43.2 
" style="fill: none; stroke: #000000; stroke-width: 0.8; stroke-linejoin: miter; stroke-linecap: square"/>
   </g>
  </g>
 </g>
 <defs>
  <clipPath id="p174d04414a">
   <rect x="135" y="43.2" width="837" height="277.2"/>
  </clipPath>
 </defs>
</svg>
