<?xml version="1.0" encoding="utf-8" standalone="no"?>
<!DOCTYPE svg PUBLIC "-//W3C//DTD SVG 1.1//EN"
  "http://www.w3.org/Graphics/SVG/1.1/DTD/svg11.dtd">
<svg xmlns:xlink="http://www.w3.org/1999/xlink" width="1080pt" height="360pt" viewBox="0 0 1080 360" xmlns="http://www.w3.org/2000/svg" version="1.1">
 <metadata>
  <rdf:RDF xmlns:dc="http://purl.org/dc/elements/1.1/" xmlns:cc="http://creativecommons.org/ns#" xmlns:rdf="http://www.w3.org/1999/02/22-rdf-syntax-ns#">
   <cc:Work>
    <dc:type rdf:resource="http://purl.org/dc/dcmitype/StillImage"/>
    <dc:date>2024-07-05T12:00:59.329718</dc:date>
    <dc:format>image/svg+xml</dc:format>
    <dc:creator>
     <cc:Agent>
      <dc:title>Matplotlib v3.8.4, https://matplotlib.org/</dc:title>
     </cc:Agent>
    </dc:creator>
   </cc:Work>
  </rdf:RDF>
 </metadata>
 <defs>
  <style type="text/css">*{stroke-linejoin: round; stroke-linecap: butt}</style>
 </defs>
 <g id="figure_1">
  <g id="patch_1">
   <path d="M 0 360 
L 1080 360 
L 1080 0 
L 0 0 
z
" style="fill: #ffffff"/>
  </g>
  <g id="axes_1">
   <g id="patch_2">
    <path d="M 135 320.4 
L 972 320.4 
L 972 43.2 
L 135 43.2 
z
" style="fill: #ffffff"/>
   </g>
   <g id="matplotlib.axis_1">
    <g id="xtick_1">
     <g id="line2d_1">
      <path d="M 135 320.4 
L 135 43.2 
" clip-path="url(#pd49a46a4fd)" style="fill: none; stroke: #b0b0b0; stroke-width: 0.8; stroke-linecap: square"/>
     </g>
     <g id="line2d_2">
      <defs>
       <path id="mfd0960388e" d="M 0 0 
L 0 3.5 
" style="stroke: #000000; stroke-width: 0.8"/>
      </defs>
      <g>
       <use xlink:href="#mfd0960388e" x="135" y="320.4" style="stroke: #000000; stroke-width: 0.8"/>
      </g>
     </g>
     <g id="text_1">
      <!-- 0 -->
      <g transform="translate(128.6375 342.596875) scale(0.2 -0.2)">
       <defs>
        <path id="DejaVuSans-30" d="M 2034 4250 
Q 1547 4250 1301 3770 
Q 1056 3291 1056 2328 
Q 1056 1369 1301 889 
Q 1547 409 2034 409 
Q 2525 409 2770 889 
Q 3016 1369 3016 2328 
Q 3016 3291 2770 3770 
Q 2525 4250 2034 4250 
z
M 2034 4750 
Q 2819 4750 3233 4129 
Q 3647 3509 3647 2328 
Q 3647 1150 3233 529 
Q 2819 -91 2034 -91 
Q 1250 -91 836 529 
Q 422 1150 422 2328 
Q 422 3509 836 4129 
Q 1250 4750 2034 4750 
z
" transform="scale(0.015625)"/>
       </defs>
       <use xlink:href="#DejaVuSans-30"/>
      </g>
     </g>
    </g>
    <g id="xtick_2">
     <g id="line2d_3">
      <path d="M 239.625 320.4 
L 239.625 43.2 
" clip-path="url(#pd49a46a4fd)" style="fill: none; stroke: #b0b0b0; stroke-width: 0.8; stroke-linecap: square"/>
     </g>
     <g id="line2d_4">
      <g>
       <use xlink:href="#mfd0960388e" x="239.625" y="320.4" style="stroke: #000000; stroke-width: 0.8"/>
      </g>
     </g>
     <g id="text_2">
      <!-- 250 -->
      <g transform="translate(220.5375 342.596875) scale(0.2 -0.2)">
       <defs>
        <path id="DejaVuSans-32" d="M 1228 531 
L 3431 531 
L 3431 0 
L 469 0 
L 469 531 
Q 828 903 1448 1529 
Q 2069 2156 2228 2338 
Q 2531 2678 2651 2914 
Q 2772 3150 2772 3378 
Q 2772 3750 2511 3984 
Q 2250 4219 1831 4219 
Q 1534 4219 1204 4116 
Q 875 4013 500 3803 
L 500 4441 
Q 881 4594 1212 4672 
Q 1544 4750 1819 4750 
Q 2544 4750 2975 4387 
Q 3406 4025 3406 3419 
Q 3406 3131 3298 2873 
Q 3191 2616 2906 2266 
Q 2828 2175 2409 1742 
Q 1991 1309 1228 531 
z
" transform="scale(0.015625)"/>
        <path id="DejaVuSans-35" d="M 691 4666 
L 3169 4666 
L 3169 4134 
L 1269 4134 
L 1269 2991 
Q 1406 3038 1543 3061 
Q 1681 3084 1819 3084 
Q 2600 3084 3056 2656 
Q 3513 2228 3513 1497 
Q 3513 744 3044 326 
Q 2575 -91 1722 -91 
Q 1428 -91 1123 -41 
Q 819 9 494 109 
L 494 744 
Q 775 591 1075 516 
Q 1375 441 1709 441 
Q 2250 441 2565 725 
Q 2881 1009 2881 1497 
Q 2881 1984 2565 2268 
Q 2250 2553 1709 2553 
Q 1456 2553 1204 2497 
Q 953 2441 691 2322 
L 691 4666 
z
" transform="scale(0.015625)"/>
       </defs>
       <use xlink:href="#DejaVuSans-32"/>
       <use xlink:href="#DejaVuSans-35" x="63.623047"/>
       <use xlink:href="#DejaVuSans-30" x="127.246094"/>
      </g>
     </g>
    </g>
    <g id="xtick_3">
     <g id="line2d_5">
      <path d="M 344.25 320.4 
L 344.25 43.2 
" clip-path="url(#pd49a46a4fd)" style="fill: none; stroke: #b0b0b0; stroke-width: 0.8; stroke-linecap: square"/>
     </g>
     <g id="line2d_6">
      <g>
       <use xlink:href="#mfd0960388e" x="344.25" y="320.4" style="stroke: #000000; stroke-width: 0.8"/>
      </g>
     </g>
     <g id="text_3">
      <!-- 500 -->
      <g transform="translate(325.1625 342.596875) scale(0.2 -0.2)">
       <use xlink:href="#DejaVuSans-35"/>
       <use xlink:href="#DejaVuSans-30" x="63.623047"/>
       <use xlink:href="#DejaVuSans-30" x="127.246094"/>
      </g>
     </g>
    </g>
    <g id="xtick_4">
     <g id="line2d_7">
      <path d="M 448.875 320.4 
L 448.875 43.2 
" clip-path="url(#pd49a46a4fd)" style="fill: none; stroke: #b0b0b0; stroke-width: 0.8; stroke-linecap: square"/>
     </g>
     <g id="line2d_8">
      <g>
       <use xlink:href="#mfd0960388e" x="448.875" y="320.4" style="stroke: #000000; stroke-width: 0.8"/>
      </g>
     </g>
     <g id="text_4">
      <!-- 750 -->
      <g transform="translate(429.7875 342.596875) scale(0.2 -0.2)">
       <defs>
        <path id="DejaVuSans-37" d="M 525 4666 
L 3525 4666 
L 3525 4397 
L 1831 0 
L 1172 0 
L 2766 4134 
L 525 4134 
L 525 4666 
z
" transform="scale(0.015625)"/>
       </defs>
       <use xlink:href="#DejaVuSans-37"/>
       <use xlink:href="#DejaVuSans-35" x="63.623047"/>
       <use xlink:href="#DejaVuSans-30" x="127.246094"/>
      </g>
     </g>
    </g>
    <g id="xtick_5">
     <g id="line2d_9">
      <path d="M 553.5 320.4 
L 553.5 43.2 
" clip-path="url(#pd49a46a4fd)" style="fill: none; stroke: #b0b0b0; stroke-width: 0.8; stroke-linecap: square"/>
     </g>
     <g id="line2d_10">
      <g>
       <use xlink:href="#mfd0960388e" x="553.5" y="320.4" style="stroke: #000000; stroke-width: 0.8"/>
      </g>
     </g>
     <g id="text_5">
      <!-- 1000 -->
      <g transform="translate(528.05 342.596875) scale(0.2 -0.2)">
       <defs>
        <path id="DejaVuSans-31" d="M 794 531 
L 1825 531 
L 1825 4091 
L 703 3866 
L 703 4441 
L 1819 4666 
L 2450 4666 
L 2450 531 
L 3481 531 
L 3481 0 
L 794 0 
L 794 531 
z
" transform="scale(0.015625)"/>
       </defs>
       <use xlink:href="#DejaVuSans-31"/>
       <use xlink:href="#DejaVuSans-30" x="63.623047"/>
       <use xlink:href="#DejaVuSans-30" x="127.246094"/>
       <use xlink:href="#DejaVuSans-30" x="190.869141"/>
      </g>
     </g>
    </g>
    <g id="xtick_6">
     <g id="line2d_11">
      <path d="M 658.125 320.4 
L 658.125 43.2 
" clip-path="url(#pd49a46a4fd)" style="fill: none; stroke: #b0b0b0; stroke-width: 0.8; stroke-linecap: square"/>
     </g>
     <g id="line2d_12">
      <g>
       <use xlink:href="#mfd0960388e" x="658.125" y="320.4" style="stroke: #000000; stroke-width: 0.8"/>
      </g>
     </g>
     <g id="text_6">
      <!-- 1250 -->
      <g transform="translate(632.675 342.596875) scale(0.2 -0.2)">
       <use xlink:href="#DejaVuSans-31"/>
       <use xlink:href="#DejaVuSans-32" x="63.623047"/>
       <use xlink:href="#DejaVuSans-35" x="127.246094"/>
       <use xlink:href="#DejaVuSans-30" x="190.869141"/>
      </g>
     </g>
    </g>
    <g id="xtick_7">
     <g id="line2d_13">
      <path d="M 762.75 320.4 
L 762.75 43.2 
" clip-path="url(#pd49a46a4fd)" style="fill: none; stroke: #b0b0b0; stroke-width: 0.8; stroke-linecap: square"/>
     </g>
     <g id="line2d_14">
      <g>
       <use xlink:href="#mfd0960388e" x="762.75" y="320.4" style="stroke: #000000; stroke-width: 0.8"/>
      </g>
     </g>
     <g id="text_7">
      <!-- 1500 -->
      <g transform="translate(737.3 342.596875) scale(0.2 -0.2)">
       <use xlink:href="#DejaVuSans-31"/>
       <use xlink:href="#DejaVuSans-35" x="63.623047"/>
       <use xlink:href="#DejaVuSans-30" x="127.246094"/>
       <use xlink:href="#DejaVuSans-30" x="190.869141"/>
      </g>
     </g>
    </g>
    <g id="xtick_8">
     <g id="line2d_15">
      <path d="M 867.375 320.4 
L 867.375 43.2 
" clip-path="url(#pd49a46a4fd)" style="fill: none; stroke: #b0b0b0; stroke-width: 0.8; stroke-linecap: square"/>
     </g>
     <g id="line2d_16">
      <g>
       <use xlink:href="#mfd0960388e" x="867.375" y="320.4" style="stroke: #000000; stroke-width: 0.8"/>
      </g>
     </g>
     <g id="text_8">
      <!-- 1750 -->
      <g transform="translate(841.925 342.596875) scale(0.2 -0.2)">
       <use xlink:href="#DejaVuSans-31"/>
       <use xlink:href="#DejaVuSans-37" x="63.623047"/>
       <use xlink:href="#DejaVuSans-35" x="127.246094"/>
       <use xlink:href="#DejaVuSans-30" x="190.869141"/>
      </g>
     </g>
    </g>
    <g id="xtick_9">
     <g id="line2d_17">
      <path d="M 972 320.4 
L 972 43.2 
" clip-path="url(#pd49a46a4fd)" style="fill: none; stroke: #b0b0b0; stroke-width: 0.8; stroke-linecap: square"/>
     </g>
     <g id="line2d_18">
      <g>
       <use xlink:href="#mfd0960388e" x="972" y="320.4" style="stroke: #000000; stroke-width: 0.8"/>
      </g>
     </g>
     <g id="text_9">
      <!-- 2000 -->
      <g transform="translate(946.55 342.596875) scale(0.2 -0.2)">
       <use xlink:href="#DejaVuSans-32"/>
       <use xlink:href="#DejaVuSans-30" x="63.623047"/>
       <use xlink:href="#DejaVuSans-30" x="127.246094"/>
       <use xlink:href="#DejaVuSans-30" x="190.869141"/>
      </g>
     </g>
    </g>
    <g id="text_10">
     <!-- n -->
     <g transform="translate(547.1625 365.953125) scale(0.2 -0.2)">
      <defs>
       <path id="DejaVuSans-6e" d="M 3513 2113 
L 3513 0 
L 2938 0 
L 2938 2094 
Q 2938 2591 2744 2837 
Q 2550 3084 2163 3084 
Q 1697 3084 1428 2787 
Q 1159 2491 1159 1978 
L 1159 0 
L 581 0 
L 581 3500 
L 1159 3500 
L 1159 2956 
Q 1366 3272 1645 3428 
Q 1925 3584 2291 3584 
Q 2894 3584 3203 3211 
Q 3513 2838 3513 2113 
z
" transform="scale(0.015625)"/>
      </defs>
      <use xlink:href="#DejaVuSans-6e"/>
     </g>
    </g>
   </g>
   <g id="matplotlib.axis_2">
    <g id="ytick_1">
     <g id="line2d_19">
      <path d="M 135 307.8 
L 972 307.8 
" clip-path="url(#pd49a46a4fd)" style="fill: none; stroke: #b0b0b0; stroke-width: 0.8; stroke-linecap: square"/>
     </g>
     <g id="line2d_20">
      <defs>
       <path id="mcd9549d831" d="M 0 0 
L -3.5 0 
" style="stroke: #000000; stroke-width: 0.8"/>
      </defs>
      <g>
       <use xlink:href="#mcd9549d831" x="135" y="307.8" style="stroke: #000000; stroke-width: 0.8"/>
      </g>
     </g>
     <g id="text_11">
      <!-- −1.00 -->
      <g transform="translate(66.709375 315.398438) scale(0.2 -0.2)">
       <defs>
        <path id="DejaVuSans-2212" d="M 678 2272 
L 4684 2272 
L 4684 1741 
L 678 1741 
L 678 2272 
z
" transform="scale(0.015625)"/>
        <path id="DejaVuSans-2e" d="M 684 794 
L 1344 794 
L 1344 0 
L 684 0 
L 684 794 
z
" transform="scale(0.015625)"/>
       </defs>
       <use xlink:href="#DejaVuSans-2212"/>
       <use xlink:href="#DejaVuSans-31" x="83.789062"/>
       <use xlink:href="#DejaVuSans-2e" x="147.412109"/>
       <use xlink:href="#DejaVuSans-30" x="179.199219"/>
       <use xlink:href="#DejaVuSans-30" x="242.822266"/>
      </g>
     </g>
    </g>
    <g id="ytick_2">
     <g id="line2d_21">
      <path d="M 135 274.688773 
L 972 274.688773 
" clip-path="url(#pd49a46a4fd)" style="fill: none; stroke: #b0b0b0; stroke-width: 0.8; stroke-linecap: square"/>
     </g>
     <g id="line2d_22">
      <g>
       <use xlink:href="#mcd9549d831" x="135" y="274.688773" style="stroke: #000000; stroke-width: 0.8"/>
      </g>
     </g>
     <g id="text_12">
      <!-- −0.75 -->
      <g transform="translate(66.709375 282.28721) scale(0.2 -0.2)">
       <use xlink:href="#DejaVuSans-2212"/>
       <use xlink:href="#DejaVuSans-30" x="83.789062"/>
       <use xlink:href="#DejaVuSans-2e" x="147.412109"/>
       <use xlink:href="#DejaVuSans-37" x="179.199219"/>
       <use xlink:href="#DejaVuSans-35" x="242.822266"/>
      </g>
     </g>
    </g>
    <g id="ytick_3">
     <g id="line2d_23">
      <path d="M 135 241.577545 
L 972 241.577545 
" clip-path="url(#pd49a46a4fd)" style="fill: none; stroke: #b0b0b0; stroke-width: 0.8; stroke-linecap: square"/>
     </g>
     <g id="line2d_24">
      <g>
       <use xlink:href="#mcd9549d831" x="135" y="241.577545" style="stroke: #000000; stroke-width: 0.8"/>
      </g>
     </g>
     <g id="text_13">
      <!-- −0.50 -->
      <g transform="translate(66.709375 249.175983) scale(0.2 -0.2)">
       <use xlink:href="#DejaVuSans-2212"/>
       <use xlink:href="#DejaVuSans-30" x="83.789062"/>
       <use xlink:href="#DejaVuSans-2e" x="147.412109"/>
       <use xlink:href="#DejaVuSans-35" x="179.199219"/>
       <use xlink:href="#DejaVuSans-30" x="242.822266"/>
      </g>
     </g>
    </g>
    <g id="ytick_4">
     <g id="line2d_25">
      <path d="M 135 208.466318 
L 972 208.466318 
" clip-path="url(#pd49a46a4fd)" style="fill: none; stroke: #b0b0b0; stroke-width: 0.8; stroke-linecap: square"/>
     </g>
     <g id="line2d_26">
      <g>
       <use xlink:href="#mcd9549d831" x="135" y="208.466318" style="stroke: #000000; stroke-width: 0.8"/>
      </g>
     </g>
     <g id="text_14">
      <!-- −0.25 -->
      <g transform="translate(66.709375 216.064755) scale(0.2 -0.2)">
       <use xlink:href="#DejaVuSans-2212"/>
       <use xlink:href="#DejaVuSans-30" x="83.789062"/>
       <use xlink:href="#DejaVuSans-2e" x="147.412109"/>
       <use xlink:href="#DejaVuSans-32" x="179.199219"/>
       <use xlink:href="#DejaVuSans-35" x="242.822266"/>
      </g>
     </g>
    </g>
    <g id="ytick_5">
     <g id="line2d_27">
      <path d="M 135 175.355091 
L 972 175.355091 
" clip-path="url(#pd49a46a4fd)" style="fill: none; stroke: #b0b0b0; stroke-width: 0.8; stroke-linecap: square"/>
     </g>
     <g id="line2d_28">
      <g>
       <use xlink:href="#mcd9549d831" x="135" y="175.355091" style="stroke: #000000; stroke-width: 0.8"/>
      </g>
     </g>
     <g id="text_15">
      <!-- 0.00 -->
      <g transform="translate(83.46875 182.953528) scale(0.2 -0.2)">
       <use xlink:href="#DejaVuSans-30"/>
       <use xlink:href="#DejaVuSans-2e" x="63.623047"/>
       <use xlink:href="#DejaVuSans-30" x="95.410156"/>
       <use xlink:href="#DejaVuSans-30" x="159.033203"/>
      </g>
     </g>
    </g>
    <g id="ytick_6">
     <g id="line2d_29">
      <path d="M 135 142.243863 
L 972 142.243863 
" clip-path="url(#pd49a46a4fd)" style="fill: none; stroke: #b0b0b0; stroke-width: 0.8; stroke-linecap: square"/>
     </g>
     <g id="line2d_30">
      <g>
       <use xlink:href="#mcd9549d831" x="135" y="142.243863" style="stroke: #000000; stroke-width: 0.8"/>
      </g>
     </g>
     <g id="text_16">
      <!-- 0.25 -->
      <g transform="translate(83.46875 149.842301) scale(0.2 -0.2)">
       <use xlink:href="#DejaVuSans-30"/>
       <use xlink:href="#DejaVuSans-2e" x="63.623047"/>
       <use xlink:href="#DejaVuSans-32" x="95.410156"/>
       <use xlink:href="#DejaVuSans-35" x="159.033203"/>
      </g>
     </g>
    </g>
    <g id="ytick_7">
     <g id="line2d_31">
      <path d="M 135 109.132636 
L 972 109.132636 
" clip-path="url(#pd49a46a4fd)" style="fill: none; stroke: #b0b0b0; stroke-width: 0.8; stroke-linecap: square"/>
     </g>
     <g id="line2d_32">
      <g>
       <use xlink:href="#mcd9549d831" x="135" y="109.132636" style="stroke: #000000; stroke-width: 0.8"/>
      </g>
     </g>
     <g id="text_17">
      <!-- 0.50 -->
      <g transform="translate(83.46875 116.731073) scale(0.2 -0.2)">
       <use xlink:href="#DejaVuSans-30"/>
       <use xlink:href="#DejaVuSans-2e" x="63.623047"/>
       <use xlink:href="#DejaVuSans-35" x="95.410156"/>
       <use xlink:href="#DejaVuSans-30" x="159.033203"/>
      </g>
     </g>
    </g>
    <g id="ytick_8">
     <g id="line2d_33">
      <path d="M 135 76.021409 
L 972 76.021409 
" clip-path="url(#pd49a46a4fd)" style="fill: none; stroke: #b0b0b0; stroke-width: 0.8; stroke-linecap: square"/>
     </g>
     <g id="line2d_34">
      <g>
       <use xlink:href="#mcd9549d831" x="135" y="76.021409" style="stroke: #000000; stroke-width: 0.8"/>
      </g>
     </g>
     <g id="text_18">
      <!-- 0.75 -->
      <g transform="translate(83.46875 83.619846) scale(0.2 -0.2)">
       <use xlink:href="#DejaVuSans-30"/>
       <use xlink:href="#DejaVuSans-2e" x="63.623047"/>
       <use xlink:href="#DejaVuSans-37" x="95.410156"/>
       <use xlink:href="#DejaVuSans-35" x="159.033203"/>
      </g>
     </g>
    </g>
    <g id="text_19">
     <!-- d(n) -->
     <g transform="translate(58.55 202.289062) rotate(-90) scale(0.2 -0.2)">
      <defs>
       <path id="DejaVuSans-64" d="M 2906 2969 
L 2906 4863 
L 3481 4863 
L 3481 0 
L 2906 0 
L 2906 525 
Q 2725 213 2448 61 
Q 2172 -91 1784 -91 
Q 1150 -91 751 415 
Q 353 922 353 1747 
Q 353 2572 751 3078 
Q 1150 3584 1784 3584 
Q 2172 3584 2448 3432 
Q 2725 3281 2906 2969 
z
M 947 1747 
Q 947 1113 1208 752 
Q 1469 391 1925 391 
Q 2381 391 2643 752 
Q 2906 1113 2906 1747 
Q 2906 2381 2643 2742 
Q 2381 3103 1925 3103 
Q 1469 3103 1208 2742 
Q 947 2381 947 1747 
z
" transform="scale(0.015625)"/>
       <path id="DejaVuSans-28" d="M 1984 4856 
Q 1566 4138 1362 3434 
Q 1159 2731 1159 2009 
Q 1159 1288 1364 580 
Q 1569 -128 1984 -844 
L 1484 -844 
Q 1016 -109 783 600 
Q 550 1309 550 2009 
Q 550 2706 781 3412 
Q 1013 4119 1484 4856 
L 1984 4856 
z
" transform="scale(0.015625)"/>
       <path id="DejaVuSans-29" d="M 513 4856 
L 1013 4856 
Q 1481 4119 1714 3412 
Q 1947 2706 1947 2009 
Q 1947 1309 1714 600 
Q 1481 -109 1013 -844 
L 513 -844 
Q 928 -128 1133 580 
Q 1338 1288 1338 2009 
Q 1338 2731 1133 3434 
Q 928 4138 513 4856 
z
" transform="scale(0.015625)"/>
      </defs>
      <use xlink:href="#DejaVuSans-64"/>
      <use xlink:href="#DejaVuSans-28" x="63.476562"/>
      <use xlink:href="#DejaVuSans-6e" x="102.490234"/>
      <use xlink:href="#DejaVuSans-29" x="165.869141"/>
     </g>
    </g>
   </g>
   <g id="line2d_35">
    <path d="M 135 96.126765 
L 135.4185 116.855345 
L 135.837 116.966024 
L 136.2555 117.746988 
L 136.674 139.121946 
L 137.0925 123.570326 
L 137.511 113.281268 
L 137.9295 161.188299 
L 138.348 190.185314 
L 139.185 117.82441 
L 139.6035 152.03849 
L 140.022 162.007029 
L 140.4405 167.897318 
L 140.859 161.94148 
L 141.2775 196.892129 
L 141.696 197.212984 
L 142.533 206.992232 
L 142.9515 198.828395 
L 143.37 210.267843 
L 143.7885 173.766493 
L 144.207 178.971776 
L 144.6255 150.344324 
L 145.044 155.406905 
L 145.4625 184.657807 
L 145.881 173.85847 
L 146.718 160.57518 
L 147.1365 169.069623 
L 147.555 163.50549 
L 147.9735 195.503759 
L 148.392 192.541413 
L 148.8105 191.953886 
L 149.229 146.380989 
L 149.6475 158.076467 
L 150.066 164.739086 
L 150.4845 190.426333 
L 150.903 165.029894 
L 151.3215 173.375186 
L 151.74 154.273714 
L 152.1585 180.36981 
L 152.577 115.522751 
L 153.414 92.492337 
L 153.8325 178.344491 
L 154.251 172.587197 
L 154.6695 140.403447 
L 155.088 148.150162 
L 155.5065 176.714422 
L 155.925 197.34764 
L 156.3435 184.676041 
L 156.762 203.600933 
L 157.1805 170.619421 
L 157.599 189.567749 
L 158.0175 198.629884 
L 158.436 175.459732 
L 158.8545 196.830347 
L 159.6915 134.904224 
L 160.11 145.101354 
L 160.5285 114.51433 
L 160.947 127.453811 
L 161.3655 189.480992 
L 161.784 203.107119 
L 162.2025 191.068179 
L 162.621 174.063205 
L 163.0395 215.079505 
L 163.458 159.472371 
L 163.8765 131.898926 
L 164.295 141.906914 
L 164.7135 183.116186 
L 165.132 120.198673 
L 165.5505 114.902863 
L 165.969 154.276552 
L 166.3875 206.994215 
L 166.806 123.131642 
L 167.643 140.416716 
L 168.0615 177.244927 
L 168.48 166.40235 
L 168.8985 175.824613 
L 169.317 132.04278 
L 169.7355 171.872674 
L 170.154 146.030092 
L 170.5725 187.243301 
L 170.991 180.870911 
L 171.4095 214.834305 
L 171.828 132.59795 
L 172.2465 136.048742 
L 172.665 110.631502 
L 173.0835 185.470193 
L 173.502 179.601079 
L 173.9205 196.991346 
L 174.339 152.308509 
L 174.7575 138.45788 
L 175.176 118.462724 
L 175.5945 125.788273 
L 176.013 150.82475 
L 176.4315 146.512909 
L 176.85 175.045526 
L 177.2685 172.8172 
L 177.687 184.740193 
L 178.1055 175.792246 
L 178.524 151.753403 
L 178.9425 187.793571 
L 179.361 158.638806 
L 179.7795 204.983785 
L 180.198 231.927612 
L 180.6165 236.404844 
L 181.035 183.968444 
L 181.4535 185.825756 
L 181.872 178.276877 
L 182.2905 239.025707 
L 182.709 170.356287 
L 183.1275 163.608626 
L 183.546 216.355896 
L 183.9645 213.568494 
L 184.383 212.933695 
L 185.22 135.399549 
L 185.6385 123.646166 
L 186.057 138.495261 
L 186.4755 229.966899 
L 186.894 216.117668 
L 187.3125 218.133982 
L 187.731 166.397459 
L 188.1495 148.198221 
L 188.568 161.228072 
L 188.9865 126.743973 
L 189.405 205.019925 
L 189.8235 147.70143 
L 190.242 203.154735 
L 190.6605 201.025903 
L 191.079 228.981574 
L 191.4975 187.996532 
L 191.916 180.324917 
L 192.3345 140.370355 
L 193.1715 173.339775 
L 193.59 228.516898 
L 194.0085 205.991357 
L 194.427 229.493809 
L 195.264 190.486407 
L 195.6825 121.585836 
L 196.101 175.317057 
L 196.5195 185.003024 
L 196.938 182.329875 
L 197.3565 172.372156 
L 197.775 173.741175 
L 198.1935 184.565412 
L 198.612 153.253432 
L 199.0305 133.464844 
L 199.449 179.487924 
L 199.8675 175.348554 
L 200.286 198.064361 
L 200.7045 136.492225 
L 201.123 130.563885 
L 201.5415 139.525085 
L 201.96 160.685957 
L 202.3785 135.543048 
L 202.797 132.552406 
L 203.634 198.683569 
L 204.0525 222.597378 
L 204.471 168.532889 
L 204.8895 164.795241 
L 205.308 182.177892 
L 205.7265 180.246594 
L 206.145 208.779714 
L 206.5635 165.927134 
L 206.982 205.366708 
L 207.4005 193.76852 
L 207.819 206.143714 
L 208.2375 164.040863 
L 208.656 205.184986 
L 209.0745 213.122532 
L 209.493 191.553526 
L 209.9115 196.466175 
L 210.7485 233.638311 
L 211.167 223.226208 
L 211.5855 232.517226 
L 212.004 260.982917 
L 212.4225 246.910159 
L 212.841 166.653773 
L 213.2595 158.710823 
L 213.678 196.872634 
L 214.0965 205.803794 
L 214.515 223.147437 
L 214.9335 168.330349 
L 215.352 145.626046 
L 215.7705 148.528671 
L 216.189 154.254124 
L 217.026 185.673325 
L 217.4445 175.938062 
L 217.863 178.643519 
L 218.2815 222.805824 
L 219.1185 147.898775 
L 219.537 152.328097 
L 219.9555 240.762956 
L 220.7925 186.256027 
L 221.211 143.873819 
L 221.6295 156.396532 
L 222.048 150.03689 
L 222.4665 165.474446 
L 222.885 164.470593 
L 223.3035 150.958797 
L 223.722 202.864713 
L 224.1405 196.99963 
L 224.559 208.120798 
L 224.9775 201.496143 
L 225.396 200.844438 
L 225.8145 169.749077 
L 226.6515 236.493166 
L 227.07 235.822244 
L 227.4885 209.55246 
L 227.907 250.372904 
L 228.3255 201.862243 
L 228.744 242.481851 
L 229.1625 224.360651 
L 229.581 215.59339 
L 229.9995 188.057473 
L 230.418 217.535451 
L 230.8365 201.66921 
L 231.255 169.784263 
L 231.6735 173.480938 
L 232.092 153.438966 
L 232.5105 143.252512 
L 232.929 102.766076 
L 233.3475 145.310347 
L 233.766 175.97814 
L 234.1845 131.30028 
L 234.603 123.240501 
L 235.0215 119.096176 
L 235.44 186.525738 
L 235.8585 147.543399 
L 236.277 143.700874 
L 236.6955 124.955054 
L 237.114 125.256957 
L 237.5325 142.01095 
L 237.951 206.839222 
L 238.3695 177.612584 
L 238.788 200.385771 
L 239.2065 196.724204 
L 239.625 181.066791 
L 240.0435 126.51206 
L 240.462 173.360794 
L 240.8805 164.530952 
L 241.299 186.025831 
L 241.7175 191.77895 
L 242.136 123.401894 
L 242.5545 162.739216 
L 242.973 178.571041 
L 243.3915 203.149195 
L 243.81 118.969568 
L 244.2285 155.795312 
L 244.647 176.294686 
L 245.0655 210.786627 
L 245.484 182.72857 
L 245.9025 166.094472 
L 246.321 163.83036 
L 246.7395 169.879514 
L 247.158 157.158558 
L 247.5765 210.083219 
L 247.995 211.308848 
L 248.4135 178.70459 
L 248.832 118.987403 
L 249.2505 145.496579 
L 249.669 136.894789 
L 250.0875 187.581721 
L 250.506 115.173564 
L 250.9245 153.159698 
L 251.343 160.982458 
L 251.7615 203.30356 
L 252.18 145.778784 
L 252.5985 198.56999 
L 253.017 181.962318 
L 253.4355 197.618849 
L 253.854 180.617228 
L 254.2725 153.405646 
L 254.691 149.779225 
L 255.1095 182.412954 
L 255.528 195.892771 
L 255.9465 158.104841 
L 256.365 168.639579 
L 256.7835 162.60735 
L 257.202 147.54948 
L 257.6205 163.559356 
L 258.039 149.463952 
L 258.4575 202.916585 
L 259.2945 150.537717 
L 259.713 131.478234 
L 260.1315 156.857622 
L 260.55 199.386701 
L 260.9685 171.1863 
L 261.387 178.291963 
L 261.8055 183.092404 
L 262.224 185.600897 
L 262.6425 180.372588 
L 263.061 204.21102 
L 263.4795 174.164544 
L 263.898 186.243747 
L 264.735 255.633638 
L 265.1535 227.052785 
L 265.9905 156.949768 
L 266.8275 172.911826 
L 267.246 217.78874 
L 267.6645 200.902753 
L 268.083 169.590043 
L 268.5015 165.069186 
L 268.92 149.778053 
L 269.3385 195.220311 
L 269.757 156.620559 
L 270.1755 160.336367 
L 270.594 157.355344 
L 271.0125 188.616386 
L 271.431 166.665921 
L 271.8495 136.891488 
L 272.268 154.12933 
L 273.105 243.029591 
L 273.5235 200.445986 
L 273.942 188.409368 
L 274.3605 144.764736 
L 274.779 219.845265 
L 275.1975 184.07206 
L 276.0345 168.07941 
L 276.453 140.527896 
L 276.8715 148.427476 
L 277.29 203.923781 
L 277.7085 218.037253 
L 278.5455 157.622339 
L 278.964 237.651793 
L 279.3825 186.115047 
L 279.801 207.750346 
L 280.2195 142.84421 
L 280.638 197.783606 
L 281.0565 121.822364 
L 281.475 142.802017 
L 281.8935 132.806052 
L 282.312 185.15939 
L 282.7305 136.581888 
L 283.149 161.832884 
L 283.5675 172.31531 
L 283.986 246.448748 
L 284.4045 185.746461 
L 284.823 153.300632 
L 285.2415 103.343978 
L 285.66 172.252842 
L 286.0785 176.173552 
L 286.497 206.594143 
L 286.9155 163.507013 
L 287.334 190.853393 
L 287.7525 161.496061 
L 288.171 177.953493 
L 288.5895 176.100711 
L 289.008 121.965328 
L 289.4265 140.259498 
L 289.845 145.694638 
L 290.2635 191.008368 
L 290.682 155.667358 
L 291.1005 143.150353 
L 291.519 125.100857 
L 291.9375 177.195642 
L 292.356 167.820023 
L 292.7745 197.828526 
L 293.193 156.982087 
L 293.6115 155.443625 
L 294.4485 125.840418 
L 294.867 148.034202 
L 295.2855 157.048741 
L 295.704 157.533851 
L 296.1225 123.147514 
L 296.541 129.913832 
L 296.9595 128.065836 
L 297.378 133.612173 
L 297.7965 134.273405 
L 298.215 170.804926 
L 298.6335 119.730048 
L 299.052 132.161133 
L 299.4705 136.916437 
L 299.889 223.013932 
L 300.3075 201.789527 
L 300.726 192.669994 
L 301.1445 196.798365 
L 301.563 215.620264 
L 301.9815 207.265618 
L 302.4 212.077419 
L 302.8185 156.339995 
L 303.237 189.534351 
L 303.6555 171.255347 
L 304.074 198.395867 
L 304.4925 178.620343 
L 304.911 223.237474 
L 305.3295 225.786969 
L 305.748 176.673756 
L 306.1665 173.696024 
L 306.585 192.209477 
L 307.0035 167.865929 
L 307.422 192.542697 
L 307.8405 178.489729 
L 308.259 136.024581 
L 308.6775 166.031306 
L 309.096 170.517617 
L 309.5145 221.493476 
L 309.933 209.985867 
L 310.3515 211.868903 
L 310.77 172.735076 
L 311.1885 223.760789 
L 311.607 194.394153 
L 312.0255 174.894377 
L 312.444 136.01776 
L 312.8625 131.128329 
L 313.281 140.073502 
L 313.6995 157.148696 
L 314.118 200.454851 
L 314.955 180.159006 
L 315.3735 173.024276 
L 315.792 189.249078 
L 316.2105 235.169287 
L 316.629 226.556928 
L 317.0475 284.491329 
L 317.466 185.844936 
L 317.8845 187.493788 
L 318.303 166.045461 
L 318.7215 221.147221 
L 319.14 233.264146 
L 319.5585 195.953695 
L 319.977 213.015553 
L 320.3955 165.376708 
L 320.814 183.271957 
L 321.2325 196.15763 
L 321.651 164.355126 
L 322.0695 193.351932 
L 322.488 190.345316 
L 322.9065 205.972643 
L 323.325 175.900675 
L 323.7435 191.035105 
L 324.162 188.770384 
L 324.5805 139.752925 
L 324.999 133.105935 
L 325.4175 141.706891 
L 326.2545 212.275801 
L 326.673 217.554101 
L 327.0915 194.799627 
L 327.51 188.406225 
L 327.9285 167.409685 
L 328.347 173.97357 
L 328.7655 185.929856 
L 329.184 187.777541 
L 329.6025 177.80077 
L 330.021 180.298578 
L 330.4395 137.303315 
L 330.858 109.028935 
L 331.2765 173.444384 
L 331.695 184.45895 
L 332.532 152.191191 
L 332.9505 156.523392 
L 333.369 121.985091 
L 333.7875 134.84985 
L 334.206 113.085367 
L 334.6245 107.065936 
L 335.043 139.727548 
L 335.4615 125.553855 
L 335.88 171.864575 
L 336.2985 189.900319 
L 336.717 197.495494 
L 337.1355 139.090611 
L 337.554 148.874465 
L 337.9725 126.820846 
L 338.391 151.765878 
L 338.8095 122.835457 
L 339.228 192.000287 
L 339.6465 176.79493 
L 340.065 129.994067 
L 340.4835 136.741424 
L 340.902 163.226132 
L 341.3205 225.812943 
L 341.739 228.959464 
L 342.1575 165.203921 
L 342.576 227.423129 
L 342.9945 231.668653 
L 343.413 182.629623 
L 343.8315 177.399056 
L 344.25 192.25162 
L 344.6685 213.516645 
L 345.087 168.701733 
L 345.5055 209.713725 
L 345.924 229.772637 
L 346.3425 189.757908 
L 346.761 164.496512 
L 347.1795 196.612435 
L 347.598 260.613557 
L 348.0165 226.850186 
L 348.435 210.299735 
L 348.8535 212.747369 
L 349.272 180.275209 
L 349.6905 190.369363 
L 350.109 187.174142 
L 350.5275 163.084996 
L 350.946 203.561355 
L 351.3645 206.901356 
L 351.783 200.784936 
L 352.2015 130.302189 
L 352.62 155.485745 
L 353.0385 206.162716 
L 353.457 232.264287 
L 353.8755 218.584118 
L 354.294 152.149922 
L 354.7125 176.981 
L 355.131 182.541154 
L 355.5495 158.997032 
L 355.968 189.293085 
L 356.3865 159.937441 
L 356.805 187.550794 
L 357.2235 164.269148 
L 357.642 202.678705 
L 358.0605 157.149773 
L 358.479 135.546634 
L 358.8975 209.828466 
L 359.7345 161.896748 
L 360.153 147.132638 
L 360.5715 165.532237 
L 360.99 168.689037 
L 361.4085 198.95425 
L 361.827 140.222082 
L 362.2455 179.377906 
L 362.664 117.178499 
L 363.0825 203.478979 
L 363.501 177.44444 
L 363.9195 184.00873 
L 364.338 140.903579 
L 364.7565 159.46517 
L 365.175 109.667215 
L 365.5935 132.791998 
L 366.012 201.163186 
L 366.4305 186.622916 
L 366.849 142.728903 
L 367.2675 175.804111 
L 368.1045 164.788352 
L 368.523 164.325902 
L 368.9415 229.092252 
L 369.36 205.918292 
L 369.7785 226.354402 
L 370.197 191.807015 
L 370.6155 171.854781 
L 371.034 144.843493 
L 371.4525 174.164621 
L 371.871 184.485773 
L 372.2895 212.996817 
L 372.708 179.719447 
L 373.1265 244.85232 
L 373.545 167.157477 
L 373.9635 145.209708 
L 374.382 164.238301 
L 374.8005 223.07445 
L 375.219 206.728018 
L 375.6375 167.037637 
L 376.056 179.449784 
L 376.4745 122.217009 
L 376.893 122.660947 
L 377.3115 105.294214 
L 377.73 173.075768 
L 378.1485 178.190995 
L 378.567 164.304789 
L 378.9855 200.771332 
L 380.241 124.153043 
L 381.078 161.508512 
L 381.4965 165.16204 
L 381.915 137.726446 
L 382.3335 198.679898 
L 382.752 176.215642 
L 383.1705 191.389471 
L 383.589 162.043708 
L 384.0075 171.505167 
L 384.426 202.809278 
L 384.8445 223.991918 
L 385.263 197.474432 
L 385.6815 207.027207 
L 386.1 180.110351 
L 386.5185 176.679715 
L 386.937 122.745113 
L 387.3555 160.829967 
L 387.774 179.448979 
L 388.1925 203.942969 
L 388.611 180.104134 
L 389.0295 166.601497 
L 389.448 149.210892 
L 389.8665 156.190988 
L 390.285 144.432874 
L 390.7035 181.985655 
L 391.122 164.268448 
L 391.5405 168.570995 
L 391.959 130.522945 
L 392.3775 196.439546 
L 392.796 211.341766 
L 393.2145 232.532724 
L 393.633 210.212896 
L 394.0515 138.68655 
L 394.47 164.047912 
L 394.8885 134.4175 
L 395.307 191.375775 
L 395.7255 159.972668 
L 396.144 218.76368 
L 396.5625 209.732334 
L 396.981 194.724086 
L 397.3995 152.570145 
L 397.818 184.961538 
L 398.2365 183.900118 
L 398.655 199.57646 
L 399.0735 202.26977 
L 399.492 192.499397 
L 399.9105 140.537195 
L 400.329 184.175456 
L 400.7475 193.923204 
L 401.166 185.212394 
L 401.5845 168.336604 
L 402.003 196.668801 
L 402.4215 168.62679 
L 402.84 173.517917 
L 403.2585 180.96561 
L 404.0955 150.736403 
L 404.514 116.907474 
L 405.351 194.091252 
L 405.7695 173.722548 
L 406.188 176.934854 
L 406.6065 151.104817 
L 407.025 181.301619 
L 407.4435 162.797737 
L 407.862 185.31664 
L 408.2805 196.435473 
L 408.699 194.010657 
L 409.1175 148.978122 
L 409.536 208.263796 
L 409.9545 157.932192 
L 410.373 161.895165 
L 410.7915 146.89165 
L 411.21 250.123841 
L 411.6285 235.517612 
L 412.047 175.645212 
L 412.4655 92.003402 
L 412.884 164.811548 
L 413.3025 149.70048 
L 413.721 195.679755 
L 414.1395 176.591773 
L 414.558 204.730745 
L 414.9765 195.041967 
L 415.395 197.923893 
L 415.8135 190.340069 
L 416.232 168.025898 
L 416.6505 156.31559 
L 417.4875 184.726015 
L 417.906 162.975852 
L 418.3245 147.446302 
L 418.743 188.754327 
L 419.1615 180.244985 
L 419.58 163.972315 
L 419.9985 213.442037 
L 420.417 207.964793 
L 420.8355 241.231857 
L 421.254 188.573026 
L 421.6725 226.321266 
L 422.091 202.01563 
L 422.5095 244.005016 
L 422.928 193.02224 
L 423.3465 189.491971 
L 423.765 201.243705 
L 424.1835 161.121817 
L 424.602 145.329118 
L 425.0205 146.395604 
L 425.439 159.680567 
L 425.8575 144.86087 
L 426.276 148.170881 
L 426.6945 212.265723 
L 427.113 214.68163 
L 427.5315 170.404632 
L 427.95 146.026309 
L 428.3685 145.436325 
L 428.787 143.436704 
L 429.2055 123.879953 
L 429.624 143.503832 
L 430.0425 190.016105 
L 430.461 186.217963 
L 430.8795 168.320877 
L 431.298 207.270498 
L 431.7165 278.340464 
L 432.135 204.918633 
L 432.972 137.873822 
L 433.3905 122.430855 
L 433.809 84.904114 
L 434.2275 154.715164 
L 434.646 139.643984 
L 435.0645 195.133946 
L 435.483 201.480618 
L 435.9015 222.856441 
L 436.32 190.645741 
L 436.7385 117.607122 
L 437.157 133.823555 
L 437.5755 155.522711 
L 437.994 200.884788 
L 438.4125 153.235279 
L 438.831 186.58543 
L 439.2495 194.496288 
L 439.668 214.7381 
L 440.0865 220.917814 
L 440.505 214.905201 
L 440.9235 196.72726 
L 441.342 194.538674 
L 441.7605 220.790095 
L 442.179 224.674938 
L 442.5975 191.029148 
L 443.016 211.865376 
L 443.4345 243.278436 
L 443.853 207.962391 
L 444.2715 210.451809 
L 444.69 179.933702 
L 445.1085 196.866909 
L 445.527 193.751921 
L 446.364 136.490449 
L 447.201 207.841894 
L 447.6195 186.680379 
L 448.4565 167.357389 
L 448.875 163.204231 
L 449.2935 132.461013 
L 449.712 136.88777 
L 450.1305 127.345399 
L 450.549 173.245761 
L 450.9675 108.884842 
L 451.386 176.547461 
L 451.8045 134.633556 
L 452.223 186.124849 
L 452.6415 126.153802 
L 453.06 143.433326 
L 453.897 194.266289 
L 454.3155 240.927392 
L 454.734 194.643772 
L 455.571 189.341745 
L 455.9895 201.349725 
L 456.408 191.248361 
L 456.8265 197.881927 
L 457.245 166.415996 
L 457.6635 235.207349 
L 458.082 203.42463 
L 458.5005 189.206043 
L 458.919 132.039675 
L 459.3375 202.634924 
L 459.756 203.517306 
L 460.1745 245.62602 
L 460.593 201.974722 
L 461.0115 224.409134 
L 461.43 191.857847 
L 461.8485 176.059833 
L 462.267 201.100696 
L 462.6855 205.391674 
L 463.104 196.145531 
L 463.5225 212.083282 
L 463.941 204.587838 
L 464.3595 182.378153 
L 464.778 194.871229 
L 465.1965 180.423253 
L 465.615 232.393747 
L 466.0335 211.099919 
L 466.452 213.380202 
L 466.8705 154.27468 
L 467.289 165.808001 
L 467.7075 196.327509 
L 468.126 197.73304 
L 468.5445 184.985354 
L 469.3815 229.31839 
L 469.8 189.320162 
L 470.2185 185.431582 
L 470.637 155.145012 
L 471.0555 153.321587 
L 471.474 145.582802 
L 471.8925 167.534964 
L 472.311 156.938916 
L 472.7295 152.60087 
L 473.148 142.5779 
L 473.5665 154.912999 
L 473.985 152.180887 
L 474.4035 133.939948 
L 474.822 173.784352 
L 475.2405 97.062969 
L 476.0775 162.577166 
L 476.496 196.847798 
L 476.9145 159.839988 
L 477.333 172.969816 
L 478.17 223.173102 
L 478.5885 213.426482 
L 479.007 213.961028 
L 479.4255 176.897994 
L 479.844 181.911068 
L 480.2625 172.151041 
L 480.681 168.109541 
L 481.0995 123.824608 
L 481.9365 206.854843 
L 482.355 194.815504 
L 482.7735 202.314058 
L 483.192 212.358374 
L 483.6105 203.792326 
L 484.029 142.557103 
L 484.4475 130.090783 
L 484.866 125.691803 
L 485.2845 168.716304 
L 485.703 163.358783 
L 486.1215 192.730363 
L 486.9585 109.782682 
L 487.377 128.023616 
L 487.7955 122.824135 
L 488.214 148.899469 
L 488.6325 124.007195 
L 489.051 193.934947 
L 489.4695 227.710944 
L 489.888 213.839685 
L 490.725 107.286578 
L 491.1435 172.278251 
L 491.562 192.450857 
L 491.9805 180.650182 
L 492.399 177.59138 
L 492.8175 173.0978 
L 493.236 179.436317 
L 493.6545 203.467126 
L 494.073 165.23332 
L 494.4915 145.580809 
L 494.91 143.012665 
L 495.3285 158.777403 
L 495.747 161.485408 
L 496.1655 137.575648 
L 496.584 147.175908 
L 497.0025 195.365655 
L 497.421 198.333825 
L 497.8395 169.244866 
L 498.258 156.658009 
L 498.6765 212.944092 
L 499.095 200.945624 
L 499.5135 225.053083 
L 500.3505 186.487274 
L 500.769 155.906374 
L 501.1875 178.747341 
L 501.606 179.717999 
L 502.0245 147.552443 
L 502.443 145.30706 
L 502.8615 161.979751 
L 503.28 159.223339 
L 503.6985 226.284757 
L 504.5355 149.286275 
L 504.954 148.834102 
L 505.791 218.85896 
L 506.2095 218.575158 
L 506.628 176.958433 
L 507.8835 208.82457 
L 508.302 171.016332 
L 508.7205 217.866481 
L 509.139 242.843683 
L 509.5575 131.60144 
L 509.976 110.316289 
L 510.813 193.089774 
L 511.2315 122.809243 
L 511.65 110.525555 
L 512.0685 160.685127 
L 512.487 155.432849 
L 513.324 171.215913 
L 513.7425 169.170492 
L 514.161 172.735629 
L 514.5795 182.499469 
L 514.998 278.467321 
L 515.835 213.228891 
L 516.2535 167.413449 
L 516.672 187.096933 
L 517.0905 169.755353 
L 517.509 216.440981 
L 517.9275 202.828361 
L 518.346 224.385584 
L 518.7645 181.894642 
L 519.183 166.45405 
L 520.02 198.541708 
L 520.4385 165.097143 
L 520.857 144.143823 
L 521.2755 139.192445 
L 521.694 136.750558 
L 522.1125 185.205181 
L 522.531 190.254328 
L 522.9495 208.97005 
L 523.368 154.367061 
L 523.7865 142.956271 
L 524.205 177.740208 
L 524.6235 178.275022 
L 525.042 189.821445 
L 525.4605 186.96074 
L 525.879 168.890743 
L 526.2975 122.309154 
L 527.1345 190.081104 
L 527.553 219.699905 
L 527.9715 205.862544 
L 528.8085 158.685963 
L 529.227 191.18754 
L 529.6455 185.471019 
L 530.064 177.542298 
L 530.4825 185.24742 
L 530.901 206.136269 
L 531.3195 241.354508 
L 531.738 163.259932 
L 532.1565 143.234011 
L 532.575 166.57932 
L 532.9935 200.358334 
L 533.412 199.093182 
L 533.8305 163.495936 
L 534.249 164.98916 
L 534.6675 167.674021 
L 535.086 155.024496 
L 535.5045 178.363092 
L 535.923 173.589878 
L 536.3415 174.502757 
L 536.76 150.396843 
L 537.1785 228.912233 
L 537.597 223.38693 
L 538.0155 191.835853 
L 538.434 182.407217 
L 538.8525 163.613324 
L 539.271 157.691352 
L 539.6895 202.858956 
L 540.108 226.343995 
L 540.5265 207.157302 
L 540.945 168.516301 
L 541.3635 148.992871 
L 541.782 135.51336 
L 542.2005 202.815831 
L 542.619 245.771762 
L 543.0375 207.997106 
L 543.456 191.898702 
L 543.8745 211.579698 
L 544.293 188.630506 
L 544.7115 175.126515 
L 545.13 172.129904 
L 545.5485 245.903389 
L 546.3855 172.90816 
L 546.804 103.23252 
L 547.2225 206.417976 
L 547.641 167.004753 
L 548.0595 187.755716 
L 548.478 131.468811 
L 548.8965 193.485714 
L 549.315 181.629983 
L 549.7335 215.936559 
L 550.152 225.624103 
L 550.5705 199.545025 
L 550.989 215.880966 
L 551.4075 180.587106 
L 551.826 127.57559 
L 552.2445 169.081721 
L 553.0815 184.315865 
L 553.5 114.831653 
L 553.9185 135.349171 
L 554.337 165.831948 
L 554.7555 164.714894 
L 555.174 132.348528 
L 555.5925 144.392933 
L 556.011 164.708537 
L 556.4295 149.8837 
L 556.848 192.962622 
L 557.2665 211.603355 
L 557.685 210.54506 
L 558.1035 182.010794 
L 558.522 176.612293 
L 558.9405 180.822497 
L 559.359 104.702495 
L 559.7775 123.016754 
L 560.196 136.394257 
L 560.6145 207.37589 
L 561.033 191.543987 
L 561.4515 209.378567 
L 561.87 176.684451 
L 562.2885 186.395043 
L 562.707 178.309498 
L 563.1255 184.281766 
L 563.544 197.567117 
L 564.381 178.186412 
L 564.7995 179.430012 
L 565.6365 127.437044 
L 566.055 151.107618 
L 566.4735 151.710464 
L 566.892 110.865908 
L 567.3105 111.4316 
L 567.729 119.952898 
L 568.1475 168.533422 
L 568.566 180.325089 
L 569.403 228.207551 
L 569.8215 242.448912 
L 570.24 208.026205 
L 570.6585 133.076623 
L 571.077 100.958118 
L 571.4955 105.573201 
L 571.914 167.050597 
L 572.3325 161.035314 
L 572.751 169.97849 
L 573.588 145.652433 
L 574.425 170.46741 
L 574.8435 166.006055 
L 575.6805 144.952893 
L 576.099 178.916448 
L 576.5175 183.875688 
L 576.936 173.222777 
L 577.3545 189.887542 
L 577.773 194.221234 
L 578.1915 222.172725 
L 578.61 194.733484 
L 579.0285 198.509402 
L 579.447 218.370056 
L 579.8655 219.057483 
L 580.7025 145.427934 
L 581.121 158.302343 
L 581.5395 190.369385 
L 581.958 134.467707 
L 582.3765 158.924767 
L 582.795 169.845368 
L 583.2135 187.296144 
L 583.632 137.033447 
L 584.469 162.787436 
L 584.8875 172.000215 
L 585.306 140.71246 
L 585.7245 156.077552 
L 586.143 184.835548 
L 586.5615 154.476186 
L 586.98 159.541312 
L 587.3985 166.665555 
L 587.817 214.855271 
L 588.2355 247.063119 
L 588.654 179.063092 
L 589.0725 142.359293 
L 589.491 148.958301 
L 590.328 189.188723 
L 590.7465 177.724694 
L 591.5835 265.383639 
L 592.002 266.432697 
L 592.4205 190.228483 
L 592.839 254.651387 
L 593.2575 228.534683 
L 593.676 178.647603 
L 594.0945 163.073315 
L 594.513 169.679868 
L 594.9315 112.714104 
L 595.35 92.725518 
L 595.7685 96.137933 
L 596.187 157.217056 
L 596.6055 131.344033 
L 597.024 124.350205 
L 597.4425 102.102757 
L 597.861 169.464832 
L 598.2795 195.682822 
L 598.698 145.885584 
L 599.1165 139.972607 
L 599.535 157.499952 
L 599.9535 130.489567 
L 600.372 112.575312 
L 600.7905 84.862806 
L 601.6275 147.260758 
L 602.046 144.043159 
L 602.4645 173.563785 
L 602.883 152.951798 
L 603.3015 166.995976 
L 603.72 118.284582 
L 604.1385 195.993798 
L 604.557 199.958864 
L 604.9755 265.291586 
L 605.394 174.328022 
L 605.8125 189.142224 
L 606.231 185.114483 
L 607.068 221.277204 
L 607.905 168.196782 
L 608.3235 109.535077 
L 608.742 129.200166 
L 609.1605 125.829466 
L 609.579 150.741222 
L 609.9975 186.125679 
L 610.416 158.605544 
L 610.8345 153.866562 
L 611.253 117.499538 
L 611.6715 146.920843 
L 612.09 129.903136 
L 612.5085 164.664654 
L 612.927 151.246982 
L 613.3455 147.044617 
L 613.764 137.198333 
L 614.1825 139.660673 
L 614.601 184.239611 
L 615.0195 205.627361 
L 615.438 213.755418 
L 615.8565 171.608148 
L 616.275 152.20738 
L 616.6935 144.487844 
L 617.112 157.699629 
L 617.5305 139.963964 
L 617.949 231.452354 
L 618.3675 200.394595 
L 619.2045 185.351324 
L 619.623 170.676567 
L 620.0415 178.061277 
L 620.46 181.064932 
L 620.8785 220.906256 
L 621.297 182.165255 
L 621.7155 163.665574 
L 622.5525 218.09381 
L 623.3895 170.617941 
L 623.808 197.208867 
L 624.2265 125.635761 
L 624.645 122.860436 
L 625.0635 113.027696 
L 625.482 127.94439 
L 625.9005 71.647433 
L 626.319 111.76604 
L 626.7375 84.716923 
L 627.156 144.148611 
L 627.5745 127.621741 
L 627.993 177.578251 
L 628.4115 170.167674 
L 628.83 176.165938 
L 629.2485 159.322912 
L 629.667 184.521041 
L 630.504 128.193067 
L 630.9225 158.477111 
L 631.341 212.981102 
L 631.7595 223.057589 
L 632.5965 161.691868 
L 633.015 156.18024 
L 633.4335 208.315576 
L 633.852 170.775106 
L 634.2705 216.933654 
L 635.1075 207.437448 
L 635.526 96.925312 
L 636.363 198.973995 
L 636.7815 210.207519 
L 637.2 120.523834 
L 637.6185 129.100565 
L 638.037 163.289122 
L 638.4555 211.51843 
L 639.2925 155.317987 
L 639.711 153.91606 
L 640.1295 173.947903 
L 640.548 173.471937 
L 640.9665 167.963705 
L 641.385 198.111288 
L 641.8035 166.26135 
L 642.222 171.962255 
L 642.6405 223.555769 
L 643.059 252.770563 
L 643.4775 196.614195 
L 643.896 182.89364 
L 644.733 173.322953 
L 645.57 246.432724 
L 646.407 169.790679 
L 646.8255 198.090195 
L 647.244 211.712387 
L 647.6625 201.731484 
L 648.081 143.747122 
L 648.4995 158.015732 
L 648.918 180.073179 
L 649.3365 221.034771 
L 649.755 134.020291 
L 650.1735 132.223384 
L 650.592 148.2942 
L 651.0105 179.545769 
L 651.429 163.067397 
L 651.8475 211.817347 
L 652.266 230.905379 
L 652.6845 164.357379 
L 653.103 139.303209 
L 653.5215 153.31209 
L 653.94 173.039508 
L 654.3585 161.827876 
L 654.777 165.460632 
L 655.1955 162.500628 
L 655.614 131.976199 
L 656.0325 151.678763 
L 656.451 196.967131 
L 657.288 153.403721 
L 657.7065 179.083858 
L 658.125 220.234789 
L 658.5435 193.730926 
L 658.962 202.061589 
L 659.3805 171.981212 
L 659.799 199.941251 
L 660.2175 184.147657 
L 660.636 153.689445 
L 661.0545 197.031455 
L 661.473 174.816695 
L 661.8915 174.993928 
L 662.31 120.159555 
L 662.7285 127.362596 
L 663.147 146.150201 
L 663.5655 150.06525 
L 663.984 124.918953 
L 664.4025 160.677109 
L 664.821 162.475253 
L 665.2395 164.994739 
L 665.658 143.79368 
L 666.0765 137.996319 
L 666.495 161.37431 
L 666.9135 164.406509 
L 667.332 159.742033 
L 667.7505 203.379286 
L 668.169 224.408093 
L 669.006 129.086605 
L 669.4245 132.418884 
L 670.2615 177.967767 
L 670.68 146.508205 
L 671.0985 161.097415 
L 671.517 187.651799 
L 671.9355 189.21574 
L 672.354 151.928829 
L 672.7725 161.843215 
L 673.191 154.256939 
L 673.6095 138.481753 
L 674.028 162.271199 
L 674.4465 177.998712 
L 674.865 214.227147 
L 676.1205 126.070422 
L 676.539 166.013529 
L 676.9575 138.972208 
L 677.7945 168.6535 
L 678.213 204.820998 
L 678.6315 168.309063 
L 679.05 220.000492 
L 679.887 207.059718 
L 680.3055 205.752214 
L 680.724 225.307069 
L 681.1425 207.758615 
L 681.561 197.56505 
L 681.9795 192.273968 
L 682.398 181.234499 
L 682.8165 215.14077 
L 683.235 192.157688 
L 684.072 120.556306 
L 684.4905 186.666795 
L 684.909 164.486575 
L 685.3275 101.610715 
L 686.1645 124.011825 
L 686.583 145.581453 
L 687.0015 133.51674 
L 687.42 143.280777 
L 688.257 212.497458 
L 688.6755 173.263131 
L 689.094 206.998526 
L 689.5125 136.059881 
L 689.931 182.275008 
L 690.3495 165.781716 
L 690.768 186.585156 
L 691.1865 228.437759 
L 691.605 192.481346 
L 692.442 179.231998 
L 693.279 211.169702 
L 693.6975 132.779802 
L 694.116 132.670571 
L 694.5345 162.699502 
L 694.953 129.921971 
L 695.3715 153.135045 
L 695.79 164.782628 
L 696.2085 235.198426 
L 696.627 173.417663 
L 697.0455 189.524984 
L 697.464 128.789133 
L 697.8825 135.95382 
L 698.301 188.712613 
L 698.7195 197.762065 
L 699.138 147.140722 
L 699.5565 190.361568 
L 699.975 190.120744 
L 700.3935 216.067823 
L 700.812 173.010272 
L 701.2305 202.922229 
L 701.649 173.372533 
L 702.0675 186.637514 
L 702.486 205.674833 
L 702.9045 209.588109 
L 703.7415 149.424464 
L 704.5785 194.319076 
L 704.997 205.512135 
L 705.4155 172.188705 
L 705.834 176.800106 
L 706.2525 223.152443 
L 706.671 176.801441 
L 707.0895 211.764523 
L 707.508 126.269759 
L 707.9265 158.883452 
L 708.345 126.938987 
L 708.7635 160.758492 
L 709.182 208.720819 
L 709.6005 179.519038 
L 710.019 173.497629 
L 710.4375 118.684363 
L 710.856 220.819195 
L 711.2745 208.595224 
L 711.693 205.099775 
L 712.1115 197.207926 
L 712.9485 233.23264 
L 713.367 218.71204 
L 713.7855 227.823086 
L 714.204 179.820657 
L 714.6225 177.341588 
L 715.041 214.341727 
L 715.4595 224.027034 
L 715.878 217.701129 
L 716.2965 155.016719 
L 716.715 117.758306 
L 717.1335 145.431326 
L 717.552 150.296488 
L 717.9705 166.515571 
L 718.389 154.218822 
L 718.8075 222.155526 
L 719.226 263.126431 
L 719.6445 164.456988 
L 720.063 113.3872 
L 720.4815 129.335287 
L 720.9 188.991839 
L 721.3185 179.230229 
L 721.737 220.000218 
L 722.1555 127.414609 
L 722.574 186.800171 
L 722.9925 219.268817 
L 723.8295 188.903096 
L 724.248 215.157422 
L 724.6665 204.752764 
L 725.085 208.526431 
L 725.5035 209.61029 
L 725.922 185.006872 
L 726.3405 181.974013 
L 726.759 198.050482 
L 727.1775 172.640916 
L 727.596 134.806868 
L 728.0145 158.765848 
L 728.8515 131.592904 
L 729.27 151.136119 
L 729.6885 162.546511 
L 730.107 103.839376 
L 730.5255 98.282103 
L 730.944 104.788996 
L 731.3625 169.39067 
L 731.781 204.944742 
L 732.1995 227.031194 
L 732.618 150.140862 
L 733.0365 186.315218 
L 733.455 210.849522 
L 733.8735 195.698424 
L 734.292 171.979697 
L 734.7105 184.280795 
L 735.129 248.430551 
L 735.5475 242.325377 
L 735.966 175.056546 
L 736.3845 132.564793 
L 737.2215 217.743988 
L 737.64 188.127865 
L 738.0585 167.911747 
L 738.477 222.005531 
L 738.8955 199.939188 
L 739.314 147.964814 
L 739.7325 158.930526 
L 740.151 157.178024 
L 740.988 147.683419 
L 741.4065 171.526848 
L 741.825 168.042251 
L 742.2435 116.569146 
L 742.662 145.43712 
L 743.0805 141.132145 
L 743.499 168.888736 
L 743.9175 147.317599 
L 744.336 190.857991 
L 744.7545 194.935231 
L 745.173 213.279628 
L 745.5915 214.232728 
L 746.01 224.219798 
L 746.4285 242.744581 
L 746.847 221.719986 
L 747.2655 238.447987 
L 747.684 202.520455 
L 748.1025 218.181571 
L 748.521 209.542025 
L 748.9395 178.718791 
L 749.358 203.025581 
L 750.195 178.935067 
L 750.6135 142.329168 
L 751.032 168.433759 
L 751.4505 175.381957 
L 752.2875 100.703681 
L 752.706 176.819483 
L 753.1245 177.959698 
L 753.543 181.912971 
L 753.9615 163.82172 
L 754.38 105.964812 
L 755.217 165.161931 
L 755.6355 165.523216 
L 756.054 132.800702 
L 756.4725 158.718767 
L 757.3095 186.612287 
L 757.728 140.176866 
L 758.1465 193.472324 
L 758.565 169.315272 
L 758.9835 202.241655 
L 759.402 156.792274 
L 759.8205 139.858925 
L 760.239 108.6732 
L 760.6575 115.356048 
L 761.076 123.961884 
L 761.4945 109.58096 
L 761.913 157.270539 
L 762.3315 182.344443 
L 762.75 177.272026 
L 763.1685 154.543632 
L 763.587 143.715659 
L 764.0055 170.567843 
L 764.424 225.810211 
L 764.8425 237.390591 
L 765.261 214.569168 
L 765.6795 135.762348 
L 766.098 157.531527 
L 766.5165 222.496871 
L 766.935 221.472609 
L 767.3535 214.313187 
L 767.772 192.242007 
L 768.1905 193.467499 
L 768.609 135.290949 
L 769.446 213.698762 
L 769.8645 169.072071 
L 770.283 97.020927 
L 771.12 211.582646 
L 771.5385 194.259248 
L 771.957 137.237179 
L 772.3755 180.151639 
L 772.794 173.261024 
L 773.2125 174.306923 
L 773.631 229.877445 
L 774.0495 228.861465 
L 774.468 227.043052 
L 774.8865 211.819429 
L 775.305 184.018141 
L 775.7235 196.592905 
L 776.142 269.028394 
L 776.979 170.264811 
L 777.3975 143.608287 
L 777.816 160.965016 
L 778.2345 229.471668 
L 778.653 213.657326 
L 779.0715 211.810607 
L 779.49 222.910575 
L 779.9085 140.27768 
L 780.327 167.728529 
L 780.7455 187.131645 
L 781.164 196.611364 
L 781.5825 122.824605 
L 782.001 124.251952 
L 782.4195 147.046581 
L 782.838 160.248909 
L 783.2565 163.658949 
L 783.675 160.950309 
L 784.0935 142.012625 
L 784.512 200.224625 
L 784.9305 210.241063 
L 785.349 211.14315 
L 785.7675 218.631985 
L 786.186 178.545191 
L 786.6045 126.749747 
L 787.023 107.986275 
L 787.4415 186.954144 
L 787.86 226.469198 
L 788.2785 219.892467 
L 789.1155 186.093046 
L 789.534 170.418542 
L 789.9525 163.303443 
L 790.371 111.919101 
L 790.7895 138.292926 
L 791.208 149.695565 
L 791.6265 149.30586 
L 792.045 140.201838 
L 793.3005 238.237048 
L 793.719 203.613562 
L 794.1375 185.410817 
L 794.556 177.09319 
L 794.9745 241.935369 
L 795.393 234.988891 
L 795.8115 212.682195 
L 796.23 218.304366 
L 796.6485 263.048281 
L 797.067 223.718713 
L 797.4855 208.771775 
L 797.904 188.566156 
L 798.3225 186.987735 
L 798.741 141.231109 
L 799.1595 154.489959 
L 799.578 148.171889 
L 799.9965 133.046996 
L 800.415 111.472201 
L 800.8335 128.961779 
L 801.252 213.515454 
L 802.089 224.571143 
L 802.5075 138.151155 
L 803.3445 199.968534 
L 803.763 199.974509 
L 804.1815 153.659141 
L 804.6 224.817694 
L 805.0185 223.31903 
L 805.437 169.198918 
L 806.274 151.4196 
L 806.6925 156.195546 
L 807.111 170.684727 
L 807.5295 200.508845 
L 807.948 188.217222 
L 808.785 175.103744 
L 809.2035 204.374119 
L 809.622 185.387172 
L 810.0405 201.65389 
L 810.459 188.490136 
L 810.8775 171.737829 
L 811.296 220.602256 
L 811.7145 199.651617 
L 812.133 196.515902 
L 812.5515 157.205436 
L 812.97 151.958224 
L 813.3885 159.765217 
L 813.807 220.394858 
L 814.2255 173.901724 
L 814.644 150.970802 
L 815.481 230.137079 
L 815.8995 154.429094 
L 816.318 145.450668 
L 816.7365 173.978955 
L 817.155 161.540231 
L 817.5735 168.188911 
L 817.992 147.954625 
L 818.4105 168.006519 
L 818.829 158.496649 
L 819.2475 136.019233 
L 819.666 134.741724 
L 820.0845 126.889945 
L 820.503 132.510187 
L 820.9215 130.019495 
L 821.34 150.145595 
L 822.177 212.77921 
L 822.5955 163.555225 
L 823.014 154.093232 
L 823.4325 161.131305 
L 823.851 161.068398 
L 824.2695 203.186181 
L 824.688 207.121128 
L 825.1065 167.256798 
L 825.525 149.618176 
L 825.9435 178.325471 
L 826.362 228.006917 
L 826.7805 219.365913 
L 827.199 207.85232 
L 827.6175 151.28499 
L 828.036 161.6232 
L 828.4545 152.20818 
L 828.873 233.652131 
L 829.2915 171.574597 
L 829.71 217.234008 
L 830.1285 137.456584 
L 830.547 147.082212 
L 830.9655 186.101438 
L 831.384 195.09492 
L 831.8025 173.47565 
L 832.221 113.308941 
L 833.4765 254.767468 
L 833.895 199.19382 
L 834.3135 224.050926 
L 834.732 161.064837 
L 835.1505 190.893119 
L 835.569 124.888822 
L 835.9875 177.373521 
L 836.406 161.095348 
L 836.8245 187.06193 
L 837.243 146.171979 
L 837.6615 159.699783 
L 838.08 154.58007 
L 838.4985 200.239583 
L 838.917 183.800637 
L 839.3355 130.86416 
L 839.754 124.501424 
L 840.1725 219.574219 
L 840.591 232.193996 
L 841.0095 202.64641 
L 841.428 209.409072 
L 841.8465 208.424221 
L 842.265 215.352226 
L 842.6835 183.165836 
L 843.102 215.082153 
L 843.939 152.439218 
L 844.3575 139.221873 
L 844.776 180.587808 
L 845.1945 204.345529 
L 845.613 145.325374 
L 846.45 176.866532 
L 846.8685 225.933803 
L 847.287 198.111002 
L 847.7055 223.018629 
L 848.124 209.009716 
L 848.5425 173.147069 
L 848.961 195.954491 
L 849.3795 201.256233 
L 849.798 208.778365 
L 850.2165 179.084492 
L 850.635 180.392242 
L 851.0535 198.378987 
L 851.472 191.611669 
L 851.8905 211.775072 
L 852.309 173.688859 
L 852.7275 203.141112 
L 853.146 206.01295 
L 853.5645 185.035488 
L 853.983 213.435308 
L 854.4015 224.250231 
L 855.2385 134.09062 
L 855.657 123.338293 
L 856.0755 157.933178 
L 856.494 134.386126 
L 856.9125 166.229628 
L 857.331 157.636923 
L 857.7495 156.740137 
L 858.168 124.829833 
L 859.005 189.08187 
L 859.4235 202.455852 
L 859.842 171.312703 
L 860.2605 169.834447 
L 861.0975 131.538708 
L 861.516 135.621896 
L 861.9345 135.807496 
L 862.353 137.425559 
L 862.7715 106.35423 
L 863.19 148.015893 
L 863.6085 162.94399 
L 864.027 199.586553 
L 864.4455 199.680359 
L 864.864 220.345773 
L 865.2825 228.180376 
L 865.701 177.221603 
L 866.1195 175.661279 
L 866.538 155.614906 
L 866.9565 158.943959 
L 867.375 116.884726 
L 867.7935 149.915601 
L 868.212 214.747172 
L 868.6305 219.799995 
L 869.049 218.895739 
L 869.4675 202.099848 
L 869.886 145.890111 
L 870.3045 159.483478 
L 870.723 152.984333 
L 871.1415 168.559848 
L 871.56 145.958738 
L 871.9785 176.246206 
L 872.397 166.081283 
L 872.8155 163.907672 
L 873.234 133.963019 
L 873.6525 135.336238 
L 874.071 99.895619 
L 874.4895 174.255552 
L 874.908 195.557152 
L 875.3265 204.657536 
L 875.745 173.723408 
L 876.1635 243.211749 
L 876.582 196.8588 
L 877.419 143.790628 
L 877.8375 179.289346 
L 878.256 141.460277 
L 878.6745 135.477986 
L 879.093 112.091266 
L 879.5115 147.863542 
L 879.93 154.160716 
L 880.3485 150.107924 
L 880.767 132.477474 
L 881.1855 143.957732 
L 881.604 216.794546 
L 882.0225 173.814028 
L 882.8595 121.141056 
L 883.278 205.436182 
L 883.6965 248.51918 
L 884.5335 210.051768 
L 885.3705 148.608574 
L 885.789 120.475127 
L 886.2075 145.099513 
L 886.626 182.394806 
L 887.0445 176.719911 
L 887.463 200.56281 
L 887.8815 196.314177 
L 888.3 212.0469 
L 888.7185 213.302053 
L 889.137 193.606243 
L 889.5555 162.89981 
L 889.974 160.307422 
L 890.3925 223.707627 
L 890.811 227.903931 
L 891.2295 180.456192 
L 891.648 165.281669 
L 892.0665 195.166982 
L 892.485 198.882075 
L 892.9035 165.230299 
L 893.322 172.813326 
L 893.7405 193.748209 
L 894.159 180.801036 
L 894.5775 171.612207 
L 894.996 185.291514 
L 895.4145 229.49909 
L 895.833 205.68035 
L 896.2515 174.377369 
L 896.67 165.983505 
L 897.0885 184.019575 
L 897.507 208.003959 
L 897.9255 166.643593 
L 898.344 170.953525 
L 898.7625 212.983875 
L 899.181 210.157249 
L 899.5995 164.2237 
L 900.018 144.769689 
L 900.4365 118.926563 
L 900.855 174.63401 
L 901.2735 165.163067 
L 902.1105 129.003217 
L 902.529 162.55029 
L 902.9475 162.372839 
L 903.366 179.771092 
L 903.7845 156.600951 
L 904.203 213.183018 
L 904.6215 218.786374 
L 905.04 219.640849 
L 905.877 128.643276 
L 906.2955 213.116407 
L 906.714 228.577856 
L 907.1325 200.703163 
L 907.551 126.834454 
L 907.9695 143.615798 
L 908.388 92.832269 
L 908.8065 156.272363 
L 909.225 167.622956 
L 909.6435 170.961551 
L 910.062 204.467138 
L 910.4805 250.52793 
L 910.899 237.887981 
L 911.3175 183.631455 
L 911.736 191.485931 
L 912.1545 221.414548 
L 912.573 220.465384 
L 912.9915 190.304294 
L 913.41 188.728195 
L 913.8285 141.459166 
L 914.247 122.465364 
L 914.6655 144.733646 
L 915.084 224.522774 
L 915.921 157.242198 
L 916.3395 153.847668 
L 916.758 168.770644 
L 917.1765 147.279811 
L 917.595 177.874904 
L 918.0135 195.751846 
L 918.432 165.258872 
L 918.8505 194.533884 
L 919.6875 208.511057 
L 920.106 90.265955 
L 920.5245 83.962713 
L 920.943 80.909752 
L 921.3615 152.137485 
L 922.1985 109.551572 
L 922.617 141.389487 
L 923.0355 124.664744 
L 923.454 198.771009 
L 923.8725 198.194711 
L 924.291 190.452374 
L 924.7095 190.036745 
L 925.128 193.61349 
L 925.5465 175.832519 
L 925.965 187.093217 
L 926.3835 219.879968 
L 926.802 224.930532 
L 927.2205 242.412621 
L 928.0575 177.371751 
L 928.476 203.686791 
L 928.8945 181.115109 
L 929.313 182.654773 
L 929.7315 140.284645 
L 930.15 201.356984 
L 930.5685 146.666336 
L 930.987 106.82456 
L 931.4055 161.429426 
L 931.824 236.43348 
L 932.2425 209.24536 
L 932.661 156.415196 
L 933.0795 167.75451 
L 933.498 151.386601 
L 933.9165 167.46476 
L 934.335 159.436435 
L 934.7535 206.822427 
L 935.172 184.534451 
L 935.5905 202.332236 
L 936.009 203.526122 
L 936.4275 195.866939 
L 936.846 172.334136 
L 937.2645 164.92674 
L 937.683 150.426607 
L 938.1015 159.240896 
L 938.52 96.056112 
L 938.9385 134.406475 
L 939.357 129.956386 
L 939.7755 229.560558 
L 940.194 231.09806 
L 941.031 189.910495 
L 941.4495 183.990171 
L 942.2865 197.031405 
L 943.1235 177.745694 
L 943.542 179.862272 
L 944.379 217.227075 
L 945.6345 138.433763 
L 946.053 127.062487 
L 946.4715 175.015999 
L 946.89 209.369455 
L 947.3085 187.848201 
L 947.727 189.563344 
L 948.1455 130.785112 
L 948.564 139.112633 
L 948.9825 110.439087 
L 949.401 163.713573 
L 949.8195 128.288483 
L 950.238 139.608931 
L 950.6565 177.96806 
L 951.4935 147.337038 
L 951.912 193.439729 
L 952.3305 167.461112 
L 952.749 191.823139 
L 953.1675 136.374477 
L 953.586 136.856499 
L 954.0045 183.048243 
L 954.8415 125.589351 
L 955.26 109.721918 
L 955.6785 197.242771 
L 956.097 237.594496 
L 956.5155 232.11807 
L 956.934 179.221935 
L 957.3525 158.7702 
L 957.771 186.627841 
L 958.1895 199.806869 
L 958.608 170.617653 
L 959.0265 168.244952 
L 959.445 128.834891 
L 959.8635 154.337469 
L 960.282 166.659811 
L 960.7005 165.997025 
L 961.119 164.69088 
L 961.5375 161.425378 
L 961.956 153.248479 
L 962.3745 169.828186 
L 962.793 151.470236 
L 963.2115 149.385641 
L 963.63 207.708504 
L 964.0485 199.247554 
L 964.467 169.457596 
L 964.8855 159.832974 
L 965.304 178.010872 
L 965.7225 173.812118 
L 966.141 210.260473 
L 966.5595 182.548275 
L 966.978 178.537051 
L 967.3965 177.871604 
L 967.815 189.872816 
L 968.2335 146.363019 
L 968.652 158.392314 
L 969.0705 147.673305 
L 969.489 121.453492 
L 969.9075 156.99114 
L 970.326 171.649466 
L 971.5815 227.693017 
L 972 213.499158 
L 972.4185 204.527125 
L 972.4185 204.527125 
" clip-path="url(#pd49a46a4fd)" style="fill: none; stroke: #000000; stroke-linecap: square"/>
   </g>
   <g id="patch_3">
    <path d="M 135 320.4 
L 135 43.2 
" style="fill: none; stroke: #000000; stroke-width: 0.8; stroke-linejoin: miter; stroke-linecap: square"/>
   </g>
   <g id="patch_4">
    <path d="M 972 320.4 
L 972 43.2 
" style="fill: none; stroke: #000000; stroke-width: 0.8; stroke-linejoin: miter; stroke-linecap: square"/>
   </g>
   <g id="patch_5">
    <path d="M 135 320.4 
L 972 320.4 
" style="fill: none; stroke: #000000; stroke-width: 0.8; stroke-linejoin: miter; stroke-linecap: square"/>
   </g>
   <g id="patch_6">
    <path d="M 135 43.2 
L 972 43.2 
" style="fill: none; stroke: #000000; stroke-width: 0.8; stroke-linejoin: miter; stroke-linecap: square"/>
   </g>
  </g>
 </g>
 <defs>
  <clipPath id="pd49a46a4fd">
   <rect x="135" y="43.2" width="837" height="277.2"/>
  </clipPath>
 </defs>
</svg>
