<?xml version="1.0" encoding="utf-8" standalone="no"?>
<!DOCTYPE svg PUBLIC "-//W3C//DTD SVG 1.1//EN"
  "http://www.w3.org/Graphics/SVG/1.1/DTD/svg11.dtd">
<svg xmlns:xlink="http://www.w3.org/1999/xlink" width="1080pt" height="360pt" viewBox="0 0 1080 360" xmlns="http://www.w3.org/2000/svg" version="1.1">
 <metadata>
  <rdf:RDF xmlns:dc="http://purl.org/dc/elements/1.1/" xmlns:cc="http://creativecommons.org/ns#" xmlns:rdf="http://www.w3.org/1999/02/22-rdf-syntax-ns#">
   <cc:Work>
    <dc:type rdf:resource="http://purl.org/dc/dcmitype/StillImage"/>
    <dc:date>2024-02-18T12:18:49.678453</dc:date>
    <dc:format>image/svg+xml</dc:format>
    <dc:creator>
     <cc:Agent>
      <dc:title>Matplotlib v3.7.1, https://matplotlib.org/</dc:title>
     </cc:Agent>
    </dc:creator>
   </cc:Work>
  </rdf:RDF>
 </metadata>
 <defs>
  <style type="text/css">*{stroke-linejoin: round; stroke-linecap: butt}</style>
 </defs>
 <g id="figure_1">
  <g id="patch_1">
   <path d="M 0 360 
L 1080 360 
L 1080 0 
L 0 0 
L 0 360 
z
" style="fill: none"/>
  </g>
  <g id="axes_1">
   <g id="patch_2">
    <path d="M 135 315 
L 972 315 
L 972 43.2 
L 135 43.2 
z
" style="fill: #ffffff"/>
   </g>
   <g id="matplotlib.axis_1">
    <g id="xtick_1">
     <g id="line2d_1">
      <path d="M 173.045455 315 
L 173.045455 43.2 
" clip-path="url(#p3f0fe44dba)" style="fill: none; stroke: #b0b0b0; stroke-width: 0.8; stroke-linecap: square"/>
     </g>
     <g id="line2d_2">
      <defs>
       <path id="m40ab4c7a36" d="M 0 0 
L 0 3.5 
" style="stroke: #000000; stroke-width: 0.8"/>
      </defs>
      <g>
       <use xlink:href="#m40ab4c7a36" x="173.045455" y="315" style="stroke: #000000; stroke-width: 0.8"/>
      </g>
     </g>
     <g id="text_1">
      <!-- S(8,7) -->
      <g transform="translate(173.261421 383.835088) rotate(-80) scale(0.2 -0.2)">
       <defs>
        <path id="DejaVuSans-53" d="M 3425 4513 
L 3425 3897 
Q 3066 4069 2747 4153 
Q 2428 4238 2131 4238 
Q 1616 4238 1336 4038 
Q 1056 3838 1056 3469 
Q 1056 3159 1242 3001 
Q 1428 2844 1947 2747 
L 2328 2669 
Q 3034 2534 3370 2195 
Q 3706 1856 3706 1288 
Q 3706 609 3251 259 
Q 2797 -91 1919 -91 
Q 1588 -91 1214 -16 
Q 841 59 441 206 
L 441 856 
Q 825 641 1194 531 
Q 1563 422 1919 422 
Q 2459 422 2753 634 
Q 3047 847 3047 1241 
Q 3047 1584 2836 1778 
Q 2625 1972 2144 2069 
L 1759 2144 
Q 1053 2284 737 2584 
Q 422 2884 422 3419 
Q 422 4038 858 4394 
Q 1294 4750 2059 4750 
Q 2388 4750 2728 4690 
Q 3069 4631 3425 4513 
z
" transform="scale(0.015625)"/>
        <path id="DejaVuSans-28" d="M 1984 4856 
Q 1566 4138 1362 3434 
Q 1159 2731 1159 2009 
Q 1159 1288 1364 580 
Q 1569 -128 1984 -844 
L 1484 -844 
Q 1016 -109 783 600 
Q 550 1309 550 2009 
Q 550 2706 781 3412 
Q 1013 4119 1484 4856 
L 1984 4856 
z
" transform="scale(0.015625)"/>
        <path id="DejaVuSans-38" d="M 2034 2216 
Q 1584 2216 1326 1975 
Q 1069 1734 1069 1313 
Q 1069 891 1326 650 
Q 1584 409 2034 409 
Q 2484 409 2743 651 
Q 3003 894 3003 1313 
Q 3003 1734 2745 1975 
Q 2488 2216 2034 2216 
z
M 1403 2484 
Q 997 2584 770 2862 
Q 544 3141 544 3541 
Q 544 4100 942 4425 
Q 1341 4750 2034 4750 
Q 2731 4750 3128 4425 
Q 3525 4100 3525 3541 
Q 3525 3141 3298 2862 
Q 3072 2584 2669 2484 
Q 3125 2378 3379 2068 
Q 3634 1759 3634 1313 
Q 3634 634 3220 271 
Q 2806 -91 2034 -91 
Q 1263 -91 848 271 
Q 434 634 434 1313 
Q 434 1759 690 2068 
Q 947 2378 1403 2484 
z
M 1172 3481 
Q 1172 3119 1398 2916 
Q 1625 2713 2034 2713 
Q 2441 2713 2670 2916 
Q 2900 3119 2900 3481 
Q 2900 3844 2670 4047 
Q 2441 4250 2034 4250 
Q 1625 4250 1398 4047 
Q 1172 3844 1172 3481 
z
" transform="scale(0.015625)"/>
        <path id="DejaVuSans-2c" d="M 750 794 
L 1409 794 
L 1409 256 
L 897 -744 
L 494 -744 
L 750 256 
L 750 794 
z
" transform="scale(0.015625)"/>
        <path id="DejaVuSans-37" d="M 525 4666 
L 3525 4666 
L 3525 4397 
L 1831 0 
L 1172 0 
L 2766 4134 
L 525 4134 
L 525 4666 
z
" transform="scale(0.015625)"/>
        <path id="DejaVuSans-29" d="M 513 4856 
L 1013 4856 
Q 1481 4119 1714 3412 
Q 1947 2706 1947 2009 
Q 1947 1309 1714 600 
Q 1481 -109 1013 -844 
L 513 -844 
Q 928 -128 1133 580 
Q 1338 1288 1338 2009 
Q 1338 2731 1133 3434 
Q 928 4138 513 4856 
z
" transform="scale(0.015625)"/>
       </defs>
       <use xlink:href="#DejaVuSans-53"/>
       <use xlink:href="#DejaVuSans-28" x="63.476562"/>
       <use xlink:href="#DejaVuSans-38" x="102.490234"/>
       <use xlink:href="#DejaVuSans-2c" x="166.113281"/>
       <use xlink:href="#DejaVuSans-37" x="197.900391"/>
       <use xlink:href="#DejaVuSans-29" x="261.523438"/>
      </g>
     </g>
    </g>
    <g id="xtick_2">
     <g id="line2d_3">
      <path d="M 206.128458 315 
L 206.128458 43.2 
" clip-path="url(#p3f0fe44dba)" style="fill: none; stroke: #b0b0b0; stroke-width: 0.8; stroke-linecap: square"/>
     </g>
     <g id="line2d_4">
      <g>
       <use xlink:href="#m40ab4c7a36" x="206.128458" y="315" style="stroke: #000000; stroke-width: 0.8"/>
      </g>
     </g>
     <g id="text_2">
      <!-- S(9,8) -->
      <g transform="translate(206.344425 383.835088) rotate(-80) scale(0.2 -0.2)">
       <defs>
        <path id="DejaVuSans-39" d="M 703 97 
L 703 672 
Q 941 559 1184 500 
Q 1428 441 1663 441 
Q 2288 441 2617 861 
Q 2947 1281 2994 2138 
Q 2813 1869 2534 1725 
Q 2256 1581 1919 1581 
Q 1219 1581 811 2004 
Q 403 2428 403 3163 
Q 403 3881 828 4315 
Q 1253 4750 1959 4750 
Q 2769 4750 3195 4129 
Q 3622 3509 3622 2328 
Q 3622 1225 3098 567 
Q 2575 -91 1691 -91 
Q 1453 -91 1209 -44 
Q 966 3 703 97 
z
M 1959 2075 
Q 2384 2075 2632 2365 
Q 2881 2656 2881 3163 
Q 2881 3666 2632 3958 
Q 2384 4250 1959 4250 
Q 1534 4250 1286 3958 
Q 1038 3666 1038 3163 
Q 1038 2656 1286 2365 
Q 1534 2075 1959 2075 
z
" transform="scale(0.015625)"/>
       </defs>
       <use xlink:href="#DejaVuSans-53"/>
       <use xlink:href="#DejaVuSans-28" x="63.476562"/>
       <use xlink:href="#DejaVuSans-39" x="102.490234"/>
       <use xlink:href="#DejaVuSans-2c" x="166.113281"/>
       <use xlink:href="#DejaVuSans-38" x="197.900391"/>
       <use xlink:href="#DejaVuSans-29" x="261.523438"/>
      </g>
     </g>
    </g>
    <g id="xtick_3">
     <g id="line2d_5">
      <path d="M 239.211462 315 
L 239.211462 43.2 
" clip-path="url(#p3f0fe44dba)" style="fill: none; stroke: #b0b0b0; stroke-width: 0.8; stroke-linecap: square"/>
     </g>
     <g id="line2d_6">
      <g>
       <use xlink:href="#m40ab4c7a36" x="239.211462" y="315" style="stroke: #000000; stroke-width: 0.8"/>
      </g>
     </g>
     <g id="text_3">
      <!-- S(10,9) -->
      <g transform="translate(238.322592 396.366767) rotate(-80) scale(0.2 -0.2)">
       <defs>
        <path id="DejaVuSans-31" d="M 794 531 
L 1825 531 
L 1825 4091 
L 703 3866 
L 703 4441 
L 1819 4666 
L 2450 4666 
L 2450 531 
L 3481 531 
L 3481 0 
L 794 0 
L 794 531 
z
" transform="scale(0.015625)"/>
        <path id="DejaVuSans-30" d="M 2034 4250 
Q 1547 4250 1301 3770 
Q 1056 3291 1056 2328 
Q 1056 1369 1301 889 
Q 1547 409 2034 409 
Q 2525 409 2770 889 
Q 3016 1369 3016 2328 
Q 3016 3291 2770 3770 
Q 2525 4250 2034 4250 
z
M 2034 4750 
Q 2819 4750 3233 4129 
Q 3647 3509 3647 2328 
Q 3647 1150 3233 529 
Q 2819 -91 2034 -91 
Q 1250 -91 836 529 
Q 422 1150 422 2328 
Q 422 3509 836 4129 
Q 1250 4750 2034 4750 
z
" transform="scale(0.015625)"/>
       </defs>
       <use xlink:href="#DejaVuSans-53"/>
       <use xlink:href="#DejaVuSans-28" x="63.476562"/>
       <use xlink:href="#DejaVuSans-31" x="102.490234"/>
       <use xlink:href="#DejaVuSans-30" x="166.113281"/>
       <use xlink:href="#DejaVuSans-2c" x="229.736328"/>
       <use xlink:href="#DejaVuSans-39" x="261.523438"/>
       <use xlink:href="#DejaVuSans-29" x="325.146484"/>
      </g>
     </g>
    </g>
    <g id="xtick_4">
     <g id="line2d_7">
      <path d="M 272.294466 315 
L 272.294466 43.2 
" clip-path="url(#p3f0fe44dba)" style="fill: none; stroke: #b0b0b0; stroke-width: 0.8; stroke-linecap: square"/>
     </g>
     <g id="line2d_8">
      <g>
       <use xlink:href="#m40ab4c7a36" x="272.294466" y="315" style="stroke: #000000; stroke-width: 0.8"/>
      </g>
     </g>
     <g id="text_4">
      <!-- S(11,10) -->
      <g transform="translate(270.300759 408.898445) rotate(-80) scale(0.2 -0.2)">
       <use xlink:href="#DejaVuSans-53"/>
       <use xlink:href="#DejaVuSans-28" x="63.476562"/>
       <use xlink:href="#DejaVuSans-31" x="102.490234"/>
       <use xlink:href="#DejaVuSans-31" x="166.113281"/>
       <use xlink:href="#DejaVuSans-2c" x="229.736328"/>
       <use xlink:href="#DejaVuSans-31" x="261.523438"/>
       <use xlink:href="#DejaVuSans-30" x="325.146484"/>
       <use xlink:href="#DejaVuSans-29" x="388.769531"/>
      </g>
     </g>
    </g>
    <g id="xtick_5">
     <g id="line2d_9">
      <path d="M 305.37747 315 
L 305.37747 43.2 
" clip-path="url(#p3f0fe44dba)" style="fill: none; stroke: #b0b0b0; stroke-width: 0.8; stroke-linecap: square"/>
     </g>
     <g id="line2d_10">
      <g>
       <use xlink:href="#m40ab4c7a36" x="305.37747" y="315" style="stroke: #000000; stroke-width: 0.8"/>
      </g>
     </g>
     <g id="text_5">
      <!-- S(12,11) -->
      <g transform="translate(303.383763 408.898445) rotate(-80) scale(0.2 -0.2)">
       <defs>
        <path id="DejaVuSans-32" d="M 1228 531 
L 3431 531 
L 3431 0 
L 469 0 
L 469 531 
Q 828 903 1448 1529 
Q 2069 2156 2228 2338 
Q 2531 2678 2651 2914 
Q 2772 3150 2772 3378 
Q 2772 3750 2511 3984 
Q 2250 4219 1831 4219 
Q 1534 4219 1204 4116 
Q 875 4013 500 3803 
L 500 4441 
Q 881 4594 1212 4672 
Q 1544 4750 1819 4750 
Q 2544 4750 2975 4387 
Q 3406 4025 3406 3419 
Q 3406 3131 3298 2873 
Q 3191 2616 2906 2266 
Q 2828 2175 2409 1742 
Q 1991 1309 1228 531 
z
" transform="scale(0.015625)"/>
       </defs>
       <use xlink:href="#DejaVuSans-53"/>
       <use xlink:href="#DejaVuSans-28" x="63.476562"/>
       <use xlink:href="#DejaVuSans-31" x="102.490234"/>
       <use xlink:href="#DejaVuSans-32" x="166.113281"/>
       <use xlink:href="#DejaVuSans-2c" x="229.736328"/>
       <use xlink:href="#DejaVuSans-31" x="261.523438"/>
       <use xlink:href="#DejaVuSans-31" x="325.146484"/>
       <use xlink:href="#DejaVuSans-29" x="388.769531"/>
      </g>
     </g>
    </g>
    <g id="xtick_6">
     <g id="line2d_11">
      <path d="M 338.460474 315 
L 338.460474 43.2 
" clip-path="url(#p3f0fe44dba)" style="fill: none; stroke: #b0b0b0; stroke-width: 0.8; stroke-linecap: square"/>
     </g>
     <g id="line2d_12">
      <g>
       <use xlink:href="#m40ab4c7a36" x="338.460474" y="315" style="stroke: #000000; stroke-width: 0.8"/>
      </g>
     </g>
     <g id="text_6">
      <!-- S(13,12) -->
      <g transform="translate(336.466767 408.898445) rotate(-80) scale(0.2 -0.2)">
       <defs>
        <path id="DejaVuSans-33" d="M 2597 2516 
Q 3050 2419 3304 2112 
Q 3559 1806 3559 1356 
Q 3559 666 3084 287 
Q 2609 -91 1734 -91 
Q 1441 -91 1130 -33 
Q 819 25 488 141 
L 488 750 
Q 750 597 1062 519 
Q 1375 441 1716 441 
Q 2309 441 2620 675 
Q 2931 909 2931 1356 
Q 2931 1769 2642 2001 
Q 2353 2234 1838 2234 
L 1294 2234 
L 1294 2753 
L 1863 2753 
Q 2328 2753 2575 2939 
Q 2822 3125 2822 3475 
Q 2822 3834 2567 4026 
Q 2313 4219 1838 4219 
Q 1578 4219 1281 4162 
Q 984 4106 628 3988 
L 628 4550 
Q 988 4650 1302 4700 
Q 1616 4750 1894 4750 
Q 2613 4750 3031 4423 
Q 3450 4097 3450 3541 
Q 3450 3153 3228 2886 
Q 3006 2619 2597 2516 
z
" transform="scale(0.015625)"/>
       </defs>
       <use xlink:href="#DejaVuSans-53"/>
       <use xlink:href="#DejaVuSans-28" x="63.476562"/>
       <use xlink:href="#DejaVuSans-31" x="102.490234"/>
       <use xlink:href="#DejaVuSans-33" x="166.113281"/>
       <use xlink:href="#DejaVuSans-2c" x="229.736328"/>
       <use xlink:href="#DejaVuSans-31" x="261.523438"/>
       <use xlink:href="#DejaVuSans-32" x="325.146484"/>
       <use xlink:href="#DejaVuSans-29" x="388.769531"/>
      </g>
     </g>
    </g>
    <g id="xtick_7">
     <g id="line2d_13">
      <path d="M 371.543478 315 
L 371.543478 43.2 
" clip-path="url(#p3f0fe44dba)" style="fill: none; stroke: #b0b0b0; stroke-width: 0.8; stroke-linecap: square"/>
     </g>
     <g id="line2d_14">
      <g>
       <use xlink:href="#m40ab4c7a36" x="371.543478" y="315" style="stroke: #000000; stroke-width: 0.8"/>
      </g>
     </g>
     <g id="text_7">
      <!-- S(14,13) -->
      <g transform="translate(369.549771 408.898445) rotate(-80) scale(0.2 -0.2)">
       <defs>
        <path id="DejaVuSans-34" d="M 2419 4116 
L 825 1625 
L 2419 1625 
L 2419 4116 
z
M 2253 4666 
L 3047 4666 
L 3047 1625 
L 3713 1625 
L 3713 1100 
L 3047 1100 
L 3047 0 
L 2419 0 
L 2419 1100 
L 313 1100 
L 313 1709 
L 2253 4666 
z
" transform="scale(0.015625)"/>
       </defs>
       <use xlink:href="#DejaVuSans-53"/>
       <use xlink:href="#DejaVuSans-28" x="63.476562"/>
       <use xlink:href="#DejaVuSans-31" x="102.490234"/>
       <use xlink:href="#DejaVuSans-34" x="166.113281"/>
       <use xlink:href="#DejaVuSans-2c" x="229.736328"/>
       <use xlink:href="#DejaVuSans-31" x="261.523438"/>
       <use xlink:href="#DejaVuSans-33" x="325.146484"/>
       <use xlink:href="#DejaVuSans-29" x="388.769531"/>
      </g>
     </g>
    </g>
    <g id="xtick_8">
     <g id="line2d_15">
      <path d="M 404.626482 315 
L 404.626482 43.2 
" clip-path="url(#p3f0fe44dba)" style="fill: none; stroke: #b0b0b0; stroke-width: 0.8; stroke-linecap: square"/>
     </g>
     <g id="line2d_16">
      <g>
       <use xlink:href="#m40ab4c7a36" x="404.626482" y="315" style="stroke: #000000; stroke-width: 0.8"/>
      </g>
     </g>
     <g id="text_8">
      <!-- S(15,14) -->
      <g transform="translate(402.632775 408.898445) rotate(-80) scale(0.2 -0.2)">
       <defs>
        <path id="DejaVuSans-35" d="M 691 4666 
L 3169 4666 
L 3169 4134 
L 1269 4134 
L 1269 2991 
Q 1406 3038 1543 3061 
Q 1681 3084 1819 3084 
Q 2600 3084 3056 2656 
Q 3513 2228 3513 1497 
Q 3513 744 3044 326 
Q 2575 -91 1722 -91 
Q 1428 -91 1123 -41 
Q 819 9 494 109 
L 494 744 
Q 775 591 1075 516 
Q 1375 441 1709 441 
Q 2250 441 2565 725 
Q 2881 1009 2881 1497 
Q 2881 1984 2565 2268 
Q 2250 2553 1709 2553 
Q 1456 2553 1204 2497 
Q 953 2441 691 2322 
L 691 4666 
z
" transform="scale(0.015625)"/>
       </defs>
       <use xlink:href="#DejaVuSans-53"/>
       <use xlink:href="#DejaVuSans-28" x="63.476562"/>
       <use xlink:href="#DejaVuSans-31" x="102.490234"/>
       <use xlink:href="#DejaVuSans-35" x="166.113281"/>
       <use xlink:href="#DejaVuSans-2c" x="229.736328"/>
       <use xlink:href="#DejaVuSans-31" x="261.523438"/>
       <use xlink:href="#DejaVuSans-34" x="325.146484"/>
       <use xlink:href="#DejaVuSans-29" x="388.769531"/>
      </g>
     </g>
    </g>
    <g id="xtick_9">
     <g id="line2d_17">
      <path d="M 437.709486 315 
L 437.709486 43.2 
" clip-path="url(#p3f0fe44dba)" style="fill: none; stroke: #b0b0b0; stroke-width: 0.8; stroke-linecap: square"/>
     </g>
     <g id="line2d_18">
      <g>
       <use xlink:href="#m40ab4c7a36" x="437.709486" y="315" style="stroke: #000000; stroke-width: 0.8"/>
      </g>
     </g>
     <g id="text_9">
      <!-- S(16,15) -->
      <g transform="translate(435.715779 408.898445) rotate(-80) scale(0.2 -0.2)">
       <defs>
        <path id="DejaVuSans-36" d="M 2113 2584 
Q 1688 2584 1439 2293 
Q 1191 2003 1191 1497 
Q 1191 994 1439 701 
Q 1688 409 2113 409 
Q 2538 409 2786 701 
Q 3034 994 3034 1497 
Q 3034 2003 2786 2293 
Q 2538 2584 2113 2584 
z
M 3366 4563 
L 3366 3988 
Q 3128 4100 2886 4159 
Q 2644 4219 2406 4219 
Q 1781 4219 1451 3797 
Q 1122 3375 1075 2522 
Q 1259 2794 1537 2939 
Q 1816 3084 2150 3084 
Q 2853 3084 3261 2657 
Q 3669 2231 3669 1497 
Q 3669 778 3244 343 
Q 2819 -91 2113 -91 
Q 1303 -91 875 529 
Q 447 1150 447 2328 
Q 447 3434 972 4092 
Q 1497 4750 2381 4750 
Q 2619 4750 2861 4703 
Q 3103 4656 3366 4563 
z
" transform="scale(0.015625)"/>
       </defs>
       <use xlink:href="#DejaVuSans-53"/>
       <use xlink:href="#DejaVuSans-28" x="63.476562"/>
       <use xlink:href="#DejaVuSans-31" x="102.490234"/>
       <use xlink:href="#DejaVuSans-36" x="166.113281"/>
       <use xlink:href="#DejaVuSans-2c" x="229.736328"/>
       <use xlink:href="#DejaVuSans-31" x="261.523438"/>
       <use xlink:href="#DejaVuSans-35" x="325.146484"/>
       <use xlink:href="#DejaVuSans-29" x="388.769531"/>
      </g>
     </g>
    </g>
    <g id="xtick_10">
     <g id="line2d_19">
      <path d="M 470.79249 315 
L 470.79249 43.2 
" clip-path="url(#p3f0fe44dba)" style="fill: none; stroke: #b0b0b0; stroke-width: 0.8; stroke-linecap: square"/>
     </g>
     <g id="line2d_20">
      <g>
       <use xlink:href="#m40ab4c7a36" x="470.79249" y="315" style="stroke: #000000; stroke-width: 0.8"/>
      </g>
     </g>
     <g id="text_10">
      <!-- S(17,16) -->
      <g transform="translate(468.798783 408.898445) rotate(-80) scale(0.2 -0.2)">
       <use xlink:href="#DejaVuSans-53"/>
       <use xlink:href="#DejaVuSans-28" x="63.476562"/>
       <use xlink:href="#DejaVuSans-31" x="102.490234"/>
       <use xlink:href="#DejaVuSans-37" x="166.113281"/>
       <use xlink:href="#DejaVuSans-2c" x="229.736328"/>
       <use xlink:href="#DejaVuSans-31" x="261.523438"/>
       <use xlink:href="#DejaVuSans-36" x="325.146484"/>
       <use xlink:href="#DejaVuSans-29" x="388.769531"/>
      </g>
     </g>
    </g>
    <g id="xtick_11">
     <g id="line2d_21">
      <path d="M 503.875494 315 
L 503.875494 43.2 
" clip-path="url(#p3f0fe44dba)" style="fill: none; stroke: #b0b0b0; stroke-width: 0.8; stroke-linecap: square"/>
     </g>
     <g id="line2d_22">
      <g>
       <use xlink:href="#m40ab4c7a36" x="503.875494" y="315" style="stroke: #000000; stroke-width: 0.8"/>
      </g>
     </g>
     <g id="text_11">
      <!-- S(18,17) -->
      <g transform="translate(501.881787 408.898445) rotate(-80) scale(0.2 -0.2)">
       <use xlink:href="#DejaVuSans-53"/>
       <use xlink:href="#DejaVuSans-28" x="63.476562"/>
       <use xlink:href="#DejaVuSans-31" x="102.490234"/>
       <use xlink:href="#DejaVuSans-38" x="166.113281"/>
       <use xlink:href="#DejaVuSans-2c" x="229.736328"/>
       <use xlink:href="#DejaVuSans-31" x="261.523438"/>
       <use xlink:href="#DejaVuSans-37" x="325.146484"/>
       <use xlink:href="#DejaVuSans-29" x="388.769531"/>
      </g>
     </g>
    </g>
    <g id="xtick_12">
     <g id="line2d_23">
      <path d="M 536.958498 315 
L 536.958498 43.2 
" clip-path="url(#p3f0fe44dba)" style="fill: none; stroke: #b0b0b0; stroke-width: 0.8; stroke-linecap: square"/>
     </g>
     <g id="line2d_24">
      <g>
       <use xlink:href="#m40ab4c7a36" x="536.958498" y="315" style="stroke: #000000; stroke-width: 0.8"/>
      </g>
     </g>
     <g id="text_12">
      <!-- S(19,18) -->
      <g transform="translate(534.964791 408.898445) rotate(-80) scale(0.2 -0.2)">
       <use xlink:href="#DejaVuSans-53"/>
       <use xlink:href="#DejaVuSans-28" x="63.476562"/>
       <use xlink:href="#DejaVuSans-31" x="102.490234"/>
       <use xlink:href="#DejaVuSans-39" x="166.113281"/>
       <use xlink:href="#DejaVuSans-2c" x="229.736328"/>
       <use xlink:href="#DejaVuSans-31" x="261.523438"/>
       <use xlink:href="#DejaVuSans-38" x="325.146484"/>
       <use xlink:href="#DejaVuSans-29" x="388.769531"/>
      </g>
     </g>
    </g>
    <g id="xtick_13">
     <g id="line2d_25">
      <path d="M 570.041502 315 
L 570.041502 43.2 
" clip-path="url(#p3f0fe44dba)" style="fill: none; stroke: #b0b0b0; stroke-width: 0.8; stroke-linecap: square"/>
     </g>
     <g id="line2d_26">
      <g>
       <use xlink:href="#m40ab4c7a36" x="570.041502" y="315" style="stroke: #000000; stroke-width: 0.8"/>
      </g>
     </g>
     <g id="text_13">
      <!-- S(20,19) -->
      <g transform="translate(568.047795 408.898445) rotate(-80) scale(0.2 -0.2)">
       <use xlink:href="#DejaVuSans-53"/>
       <use xlink:href="#DejaVuSans-28" x="63.476562"/>
       <use xlink:href="#DejaVuSans-32" x="102.490234"/>
       <use xlink:href="#DejaVuSans-30" x="166.113281"/>
       <use xlink:href="#DejaVuSans-2c" x="229.736328"/>
       <use xlink:href="#DejaVuSans-31" x="261.523438"/>
       <use xlink:href="#DejaVuSans-39" x="325.146484"/>
       <use xlink:href="#DejaVuSans-29" x="388.769531"/>
      </g>
     </g>
    </g>
    <g id="xtick_14">
     <g id="line2d_27">
      <path d="M 603.124506 315 
L 603.124506 43.2 
" clip-path="url(#p3f0fe44dba)" style="fill: none; stroke: #b0b0b0; stroke-width: 0.8; stroke-linecap: square"/>
     </g>
     <g id="line2d_28">
      <g>
       <use xlink:href="#m40ab4c7a36" x="603.124506" y="315" style="stroke: #000000; stroke-width: 0.8"/>
      </g>
     </g>
     <g id="text_14">
      <!-- S(21,20) -->
      <g transform="translate(601.130799 408.898445) rotate(-80) scale(0.2 -0.2)">
       <use xlink:href="#DejaVuSans-53"/>
       <use xlink:href="#DejaVuSans-28" x="63.476562"/>
       <use xlink:href="#DejaVuSans-32" x="102.490234"/>
       <use xlink:href="#DejaVuSans-31" x="166.113281"/>
       <use xlink:href="#DejaVuSans-2c" x="229.736328"/>
       <use xlink:href="#DejaVuSans-32" x="261.523438"/>
       <use xlink:href="#DejaVuSans-30" x="325.146484"/>
       <use xlink:href="#DejaVuSans-29" x="388.769531"/>
      </g>
     </g>
    </g>
    <g id="xtick_15">
     <g id="line2d_29">
      <path d="M 636.20751 315 
L 636.20751 43.2 
" clip-path="url(#p3f0fe44dba)" style="fill: none; stroke: #b0b0b0; stroke-width: 0.8; stroke-linecap: square"/>
     </g>
     <g id="line2d_30">
      <g>
       <use xlink:href="#m40ab4c7a36" x="636.20751" y="315" style="stroke: #000000; stroke-width: 0.8"/>
      </g>
     </g>
     <g id="text_15">
      <!-- S(22,21) -->
      <g transform="translate(634.213803 408.898445) rotate(-80) scale(0.2 -0.2)">
       <use xlink:href="#DejaVuSans-53"/>
       <use xlink:href="#DejaVuSans-28" x="63.476562"/>
       <use xlink:href="#DejaVuSans-32" x="102.490234"/>
       <use xlink:href="#DejaVuSans-32" x="166.113281"/>
       <use xlink:href="#DejaVuSans-2c" x="229.736328"/>
       <use xlink:href="#DejaVuSans-32" x="261.523438"/>
       <use xlink:href="#DejaVuSans-31" x="325.146484"/>
       <use xlink:href="#DejaVuSans-29" x="388.769531"/>
      </g>
     </g>
    </g>
    <g id="xtick_16">
     <g id="line2d_31">
      <path d="M 669.290514 315 
L 669.290514 43.2 
" clip-path="url(#p3f0fe44dba)" style="fill: none; stroke: #b0b0b0; stroke-width: 0.8; stroke-linecap: square"/>
     </g>
     <g id="line2d_32">
      <g>
       <use xlink:href="#m40ab4c7a36" x="669.290514" y="315" style="stroke: #000000; stroke-width: 0.8"/>
      </g>
     </g>
     <g id="text_16">
      <!-- S(23,22) -->
      <g transform="translate(667.296807 408.898445) rotate(-80) scale(0.2 -0.2)">
       <use xlink:href="#DejaVuSans-53"/>
       <use xlink:href="#DejaVuSans-28" x="63.476562"/>
       <use xlink:href="#DejaVuSans-32" x="102.490234"/>
       <use xlink:href="#DejaVuSans-33" x="166.113281"/>
       <use xlink:href="#DejaVuSans-2c" x="229.736328"/>
       <use xlink:href="#DejaVuSans-32" x="261.523438"/>
       <use xlink:href="#DejaVuSans-32" x="325.146484"/>
       <use xlink:href="#DejaVuSans-29" x="388.769531"/>
      </g>
     </g>
    </g>
    <g id="xtick_17">
     <g id="line2d_33">
      <path d="M 702.373518 315 
L 702.373518 43.2 
" clip-path="url(#p3f0fe44dba)" style="fill: none; stroke: #b0b0b0; stroke-width: 0.8; stroke-linecap: square"/>
     </g>
     <g id="line2d_34">
      <g>
       <use xlink:href="#m40ab4c7a36" x="702.373518" y="315" style="stroke: #000000; stroke-width: 0.8"/>
      </g>
     </g>
     <g id="text_17">
      <!-- S(24,23) -->
      <g transform="translate(700.379811 408.898445) rotate(-80) scale(0.2 -0.2)">
       <use xlink:href="#DejaVuSans-53"/>
       <use xlink:href="#DejaVuSans-28" x="63.476562"/>
       <use xlink:href="#DejaVuSans-32" x="102.490234"/>
       <use xlink:href="#DejaVuSans-34" x="166.113281"/>
       <use xlink:href="#DejaVuSans-2c" x="229.736328"/>
       <use xlink:href="#DejaVuSans-32" x="261.523438"/>
       <use xlink:href="#DejaVuSans-33" x="325.146484"/>
       <use xlink:href="#DejaVuSans-29" x="388.769531"/>
      </g>
     </g>
    </g>
    <g id="xtick_18">
     <g id="line2d_35">
      <path d="M 735.456522 315 
L 735.456522 43.2 
" clip-path="url(#p3f0fe44dba)" style="fill: none; stroke: #b0b0b0; stroke-width: 0.8; stroke-linecap: square"/>
     </g>
     <g id="line2d_36">
      <g>
       <use xlink:href="#m40ab4c7a36" x="735.456522" y="315" style="stroke: #000000; stroke-width: 0.8"/>
      </g>
     </g>
     <g id="text_18">
      <!-- S(25,24) -->
      <g transform="translate(733.462815 408.898445) rotate(-80) scale(0.2 -0.2)">
       <use xlink:href="#DejaVuSans-53"/>
       <use xlink:href="#DejaVuSans-28" x="63.476562"/>
       <use xlink:href="#DejaVuSans-32" x="102.490234"/>
       <use xlink:href="#DejaVuSans-35" x="166.113281"/>
       <use xlink:href="#DejaVuSans-2c" x="229.736328"/>
       <use xlink:href="#DejaVuSans-32" x="261.523438"/>
       <use xlink:href="#DejaVuSans-34" x="325.146484"/>
       <use xlink:href="#DejaVuSans-29" x="388.769531"/>
      </g>
     </g>
    </g>
    <g id="xtick_19">
     <g id="line2d_37">
      <path d="M 768.539526 315 
L 768.539526 43.2 
" clip-path="url(#p3f0fe44dba)" style="fill: none; stroke: #b0b0b0; stroke-width: 0.8; stroke-linecap: square"/>
     </g>
     <g id="line2d_38">
      <g>
       <use xlink:href="#m40ab4c7a36" x="768.539526" y="315" style="stroke: #000000; stroke-width: 0.8"/>
      </g>
     </g>
     <g id="text_19">
      <!-- S(26,25) -->
      <g transform="translate(766.545819 408.898445) rotate(-80) scale(0.2 -0.2)">
       <use xlink:href="#DejaVuSans-53"/>
       <use xlink:href="#DejaVuSans-28" x="63.476562"/>
       <use xlink:href="#DejaVuSans-32" x="102.490234"/>
       <use xlink:href="#DejaVuSans-36" x="166.113281"/>
       <use xlink:href="#DejaVuSans-2c" x="229.736328"/>
       <use xlink:href="#DejaVuSans-32" x="261.523438"/>
       <use xlink:href="#DejaVuSans-35" x="325.146484"/>
       <use xlink:href="#DejaVuSans-29" x="388.769531"/>
      </g>
     </g>
    </g>
    <g id="xtick_20">
     <g id="line2d_39">
      <path d="M 801.62253 315 
L 801.62253 43.2 
" clip-path="url(#p3f0fe44dba)" style="fill: none; stroke: #b0b0b0; stroke-width: 0.8; stroke-linecap: square"/>
     </g>
     <g id="line2d_40">
      <g>
       <use xlink:href="#m40ab4c7a36" x="801.62253" y="315" style="stroke: #000000; stroke-width: 0.8"/>
      </g>
     </g>
     <g id="text_20">
      <!-- S(27,26) -->
      <g transform="translate(799.628823 408.898445) rotate(-80) scale(0.2 -0.2)">
       <use xlink:href="#DejaVuSans-53"/>
       <use xlink:href="#DejaVuSans-28" x="63.476562"/>
       <use xlink:href="#DejaVuSans-32" x="102.490234"/>
       <use xlink:href="#DejaVuSans-37" x="166.113281"/>
       <use xlink:href="#DejaVuSans-2c" x="229.736328"/>
       <use xlink:href="#DejaVuSans-32" x="261.523438"/>
       <use xlink:href="#DejaVuSans-36" x="325.146484"/>
       <use xlink:href="#DejaVuSans-29" x="388.769531"/>
      </g>
     </g>
    </g>
    <g id="xtick_21">
     <g id="line2d_41">
      <path d="M 834.705534 315 
L 834.705534 43.2 
" clip-path="url(#p3f0fe44dba)" style="fill: none; stroke: #b0b0b0; stroke-width: 0.8; stroke-linecap: square"/>
     </g>
     <g id="line2d_42">
      <g>
       <use xlink:href="#m40ab4c7a36" x="834.705534" y="315" style="stroke: #000000; stroke-width: 0.8"/>
      </g>
     </g>
     <g id="text_21">
      <!-- S(28,27) -->
      <g transform="translate(832.711827 408.898445) rotate(-80) scale(0.2 -0.2)">
       <use xlink:href="#DejaVuSans-53"/>
       <use xlink:href="#DejaVuSans-28" x="63.476562"/>
       <use xlink:href="#DejaVuSans-32" x="102.490234"/>
       <use xlink:href="#DejaVuSans-38" x="166.113281"/>
       <use xlink:href="#DejaVuSans-2c" x="229.736328"/>
       <use xlink:href="#DejaVuSans-32" x="261.523438"/>
       <use xlink:href="#DejaVuSans-37" x="325.146484"/>
       <use xlink:href="#DejaVuSans-29" x="388.769531"/>
      </g>
     </g>
    </g>
    <g id="xtick_22">
     <g id="line2d_43">
      <path d="M 867.788538 315 
L 867.788538 43.2 
" clip-path="url(#p3f0fe44dba)" style="fill: none; stroke: #b0b0b0; stroke-width: 0.8; stroke-linecap: square"/>
     </g>
     <g id="line2d_44">
      <g>
       <use xlink:href="#m40ab4c7a36" x="867.788538" y="315" style="stroke: #000000; stroke-width: 0.8"/>
      </g>
     </g>
     <g id="text_22">
      <!-- S(29,28) -->
      <g transform="translate(865.794831 408.898445) rotate(-80) scale(0.2 -0.2)">
       <use xlink:href="#DejaVuSans-53"/>
       <use xlink:href="#DejaVuSans-28" x="63.476562"/>
       <use xlink:href="#DejaVuSans-32" x="102.490234"/>
       <use xlink:href="#DejaVuSans-39" x="166.113281"/>
       <use xlink:href="#DejaVuSans-2c" x="229.736328"/>
       <use xlink:href="#DejaVuSans-32" x="261.523438"/>
       <use xlink:href="#DejaVuSans-38" x="325.146484"/>
       <use xlink:href="#DejaVuSans-29" x="388.769531"/>
      </g>
     </g>
    </g>
    <g id="xtick_23">
     <g id="line2d_45">
      <path d="M 900.871542 315 
L 900.871542 43.2 
" clip-path="url(#p3f0fe44dba)" style="fill: none; stroke: #b0b0b0; stroke-width: 0.8; stroke-linecap: square"/>
     </g>
     <g id="line2d_46">
      <g>
       <use xlink:href="#m40ab4c7a36" x="900.871542" y="315" style="stroke: #000000; stroke-width: 0.8"/>
      </g>
     </g>
     <g id="text_23">
      <!-- S(30,29) -->
      <g transform="translate(898.877835 408.898445) rotate(-80) scale(0.2 -0.2)">
       <use xlink:href="#DejaVuSans-53"/>
       <use xlink:href="#DejaVuSans-28" x="63.476562"/>
       <use xlink:href="#DejaVuSans-33" x="102.490234"/>
       <use xlink:href="#DejaVuSans-30" x="166.113281"/>
       <use xlink:href="#DejaVuSans-2c" x="229.736328"/>
       <use xlink:href="#DejaVuSans-32" x="261.523438"/>
       <use xlink:href="#DejaVuSans-39" x="325.146484"/>
       <use xlink:href="#DejaVuSans-29" x="388.769531"/>
      </g>
     </g>
    </g>
    <g id="xtick_24">
     <g id="line2d_47">
      <path d="M 933.954545 315 
L 933.954545 43.2 
" clip-path="url(#p3f0fe44dba)" style="fill: none; stroke: #b0b0b0; stroke-width: 0.8; stroke-linecap: square"/>
     </g>
     <g id="line2d_48">
      <g>
       <use xlink:href="#m40ab4c7a36" x="933.954545" y="315" style="stroke: #000000; stroke-width: 0.8"/>
      </g>
     </g>
     <g id="text_24">
      <!-- S(31,30) -->
      <g transform="translate(931.960838 408.898445) rotate(-80) scale(0.2 -0.2)">
       <use xlink:href="#DejaVuSans-53"/>
       <use xlink:href="#DejaVuSans-28" x="63.476562"/>
       <use xlink:href="#DejaVuSans-33" x="102.490234"/>
       <use xlink:href="#DejaVuSans-31" x="166.113281"/>
       <use xlink:href="#DejaVuSans-2c" x="229.736328"/>
       <use xlink:href="#DejaVuSans-33" x="261.523438"/>
       <use xlink:href="#DejaVuSans-30" x="325.146484"/>
       <use xlink:href="#DejaVuSans-29" x="388.769531"/>
      </g>
     </g>
    </g>
    <g id="xtick_25">
     <g id="line2d_49">
      <path d="M 967.037549 315 
L 967.037549 43.2 
" clip-path="url(#p3f0fe44dba)" style="fill: none; stroke: #b0b0b0; stroke-width: 0.8; stroke-linecap: square"/>
     </g>
     <g id="line2d_50">
      <g>
       <use xlink:href="#m40ab4c7a36" x="967.037549" y="315" style="stroke: #000000; stroke-width: 0.8"/>
      </g>
     </g>
     <g id="text_25">
      <!-- S(32,31) -->
      <g transform="translate(965.043842 408.898445) rotate(-80) scale(0.2 -0.2)">
       <use xlink:href="#DejaVuSans-53"/>
       <use xlink:href="#DejaVuSans-28" x="63.476562"/>
       <use xlink:href="#DejaVuSans-33" x="102.490234"/>
       <use xlink:href="#DejaVuSans-32" x="166.113281"/>
       <use xlink:href="#DejaVuSans-2c" x="229.736328"/>
       <use xlink:href="#DejaVuSans-33" x="261.523438"/>
       <use xlink:href="#DejaVuSans-31" x="325.146484"/>
       <use xlink:href="#DejaVuSans-29" x="388.769531"/>
      </g>
     </g>
    </g>
   </g>
   <g id="matplotlib.axis_2">
    <g id="ytick_1">
     <g id="line2d_51">
      <path d="M 135 294.532665 
L 972 294.532665 
" clip-path="url(#p3f0fe44dba)" style="fill: none; stroke: #b0b0b0; stroke-width: 0.8; stroke-linecap: square"/>
     </g>
     <g id="line2d_52">
      <defs>
       <path id="m9fb9d68113" d="M 0 0 
L -3.5 0 
" style="stroke: #000000; stroke-width: 0.8"/>
      </defs>
      <g>
       <use xlink:href="#m9fb9d68113" x="135" y="294.532665" style="stroke: #000000; stroke-width: 0.8"/>
      </g>
     </g>
     <g id="text_26">
      <!-- −6 -->
      <g transform="translate(98.515625 302.131102) scale(0.2 -0.2)">
       <defs>
        <path id="DejaVuSans-2212" d="M 678 2272 
L 4684 2272 
L 4684 1741 
L 678 1741 
L 678 2272 
z
" transform="scale(0.015625)"/>
       </defs>
       <use xlink:href="#DejaVuSans-2212"/>
       <use xlink:href="#DejaVuSans-36" x="83.789062"/>
      </g>
     </g>
    </g>
    <g id="ytick_2">
     <g id="line2d_53">
      <path d="M 135 254.702978 
L 972 254.702978 
" clip-path="url(#p3f0fe44dba)" style="fill: none; stroke: #b0b0b0; stroke-width: 0.8; stroke-linecap: square"/>
     </g>
     <g id="line2d_54">
      <g>
       <use xlink:href="#m9fb9d68113" x="135" y="254.702978" style="stroke: #000000; stroke-width: 0.8"/>
      </g>
     </g>
     <g id="text_27">
      <!-- −5 -->
      <g transform="translate(98.515625 262.301416) scale(0.2 -0.2)">
       <use xlink:href="#DejaVuSans-2212"/>
       <use xlink:href="#DejaVuSans-35" x="83.789062"/>
      </g>
     </g>
    </g>
    <g id="ytick_3">
     <g id="line2d_55">
      <path d="M 135 214.873292 
L 972 214.873292 
" clip-path="url(#p3f0fe44dba)" style="fill: none; stroke: #b0b0b0; stroke-width: 0.8; stroke-linecap: square"/>
     </g>
     <g id="line2d_56">
      <g>
       <use xlink:href="#m9fb9d68113" x="135" y="214.873292" style="stroke: #000000; stroke-width: 0.8"/>
      </g>
     </g>
     <g id="text_28">
      <!-- −4 -->
      <g transform="translate(98.515625 222.471729) scale(0.2 -0.2)">
       <use xlink:href="#DejaVuSans-2212"/>
       <use xlink:href="#DejaVuSans-34" x="83.789062"/>
      </g>
     </g>
    </g>
    <g id="ytick_4">
     <g id="line2d_57">
      <path d="M 135 175.043605 
L 972 175.043605 
" clip-path="url(#p3f0fe44dba)" style="fill: none; stroke: #b0b0b0; stroke-width: 0.8; stroke-linecap: square"/>
     </g>
     <g id="line2d_58">
      <g>
       <use xlink:href="#m9fb9d68113" x="135" y="175.043605" style="stroke: #000000; stroke-width: 0.8"/>
      </g>
     </g>
     <g id="text_29">
      <!-- −3 -->
      <g transform="translate(98.515625 182.642043) scale(0.2 -0.2)">
       <use xlink:href="#DejaVuSans-2212"/>
       <use xlink:href="#DejaVuSans-33" x="83.789062"/>
      </g>
     </g>
    </g>
    <g id="ytick_5">
     <g id="line2d_59">
      <path d="M 135 135.213919 
L 972 135.213919 
" clip-path="url(#p3f0fe44dba)" style="fill: none; stroke: #b0b0b0; stroke-width: 0.8; stroke-linecap: square"/>
     </g>
     <g id="line2d_60">
      <g>
       <use xlink:href="#m9fb9d68113" x="135" y="135.213919" style="stroke: #000000; stroke-width: 0.8"/>
      </g>
     </g>
     <g id="text_30">
      <!-- −2 -->
      <g transform="translate(98.515625 142.812356) scale(0.2 -0.2)">
       <use xlink:href="#DejaVuSans-2212"/>
       <use xlink:href="#DejaVuSans-32" x="83.789062"/>
      </g>
     </g>
    </g>
    <g id="ytick_6">
     <g id="line2d_61">
      <path d="M 135 95.384232 
L 972 95.384232 
" clip-path="url(#p3f0fe44dba)" style="fill: none; stroke: #b0b0b0; stroke-width: 0.8; stroke-linecap: square"/>
     </g>
     <g id="line2d_62">
      <g>
       <use xlink:href="#m9fb9d68113" x="135" y="95.384232" style="stroke: #000000; stroke-width: 0.8"/>
      </g>
     </g>
     <g id="text_31">
      <!-- −1 -->
      <g transform="translate(98.515625 102.98267) scale(0.2 -0.2)">
       <use xlink:href="#DejaVuSans-2212"/>
       <use xlink:href="#DejaVuSans-31" x="83.789062"/>
      </g>
     </g>
    </g>
    <g id="ytick_7">
     <g id="line2d_63">
      <path d="M 135 55.554545 
L 972 55.554545 
" clip-path="url(#p3f0fe44dba)" style="fill: none; stroke: #b0b0b0; stroke-width: 0.8; stroke-linecap: square"/>
     </g>
     <g id="line2d_64">
      <g>
       <use xlink:href="#m9fb9d68113" x="135" y="55.554545" style="stroke: #000000; stroke-width: 0.8"/>
      </g>
     </g>
     <g id="text_32">
      <!-- 0 -->
      <g transform="translate(115.275 63.152983) scale(0.2 -0.2)">
       <use xlink:href="#DejaVuSans-30"/>
      </g>
     </g>
    </g>
    <g id="text_33">
     <!-- MSE dB -->
     <g transform="translate(90.35625 216.782813) rotate(-90) scale(0.2 -0.2)">
      <defs>
       <path id="DejaVuSans-4d" d="M 628 4666 
L 1569 4666 
L 2759 1491 
L 3956 4666 
L 4897 4666 
L 4897 0 
L 4281 0 
L 4281 4097 
L 3078 897 
L 2444 897 
L 1241 4097 
L 1241 0 
L 628 0 
L 628 4666 
z
" transform="scale(0.015625)"/>
       <path id="DejaVuSans-45" d="M 628 4666 
L 3578 4666 
L 3578 4134 
L 1259 4134 
L 1259 2753 
L 3481 2753 
L 3481 2222 
L 1259 2222 
L 1259 531 
L 3634 531 
L 3634 0 
L 628 0 
L 628 4666 
z
" transform="scale(0.015625)"/>
       <path id="DejaVuSans-20" transform="scale(0.015625)"/>
       <path id="DejaVuSans-64" d="M 2906 2969 
L 2906 4863 
L 3481 4863 
L 3481 0 
L 2906 0 
L 2906 525 
Q 2725 213 2448 61 
Q 2172 -91 1784 -91 
Q 1150 -91 751 415 
Q 353 922 353 1747 
Q 353 2572 751 3078 
Q 1150 3584 1784 3584 
Q 2172 3584 2448 3432 
Q 2725 3281 2906 2969 
z
M 947 1747 
Q 947 1113 1208 752 
Q 1469 391 1925 391 
Q 2381 391 2643 752 
Q 2906 1113 2906 1747 
Q 2906 2381 2643 2742 
Q 2381 3103 1925 3103 
Q 1469 3103 1208 2742 
Q 947 2381 947 1747 
z
" transform="scale(0.015625)"/>
       <path id="DejaVuSans-42" d="M 1259 2228 
L 1259 519 
L 2272 519 
Q 2781 519 3026 730 
Q 3272 941 3272 1375 
Q 3272 1813 3026 2020 
Q 2781 2228 2272 2228 
L 1259 2228 
z
M 1259 4147 
L 1259 2741 
L 2194 2741 
Q 2656 2741 2882 2914 
Q 3109 3088 3109 3444 
Q 3109 3797 2882 3972 
Q 2656 4147 2194 4147 
L 1259 4147 
z
M 628 4666 
L 2241 4666 
Q 2963 4666 3353 4366 
Q 3744 4066 3744 3513 
Q 3744 3084 3544 2831 
Q 3344 2578 2956 2516 
Q 3422 2416 3680 2098 
Q 3938 1781 3938 1306 
Q 3938 681 3513 340 
Q 3088 0 2303 0 
L 628 0 
L 628 4666 
z
" transform="scale(0.015625)"/>
      </defs>
      <use xlink:href="#DejaVuSans-4d"/>
      <use xlink:href="#DejaVuSans-53" x="86.279297"/>
      <use xlink:href="#DejaVuSans-45" x="149.755859"/>
      <use xlink:href="#DejaVuSans-20" x="212.939453"/>
      <use xlink:href="#DejaVuSans-64" x="244.726562"/>
      <use xlink:href="#DejaVuSans-42" x="308.203125"/>
     </g>
    </g>
   </g>
   <g id="line2d_65">
    <path d="M 173.045455 264.917399 
L 206.128458 302.645455 
L 239.211462 289.196608 
L 272.294466 280.685309 
L 305.37747 286.185371 
L 338.460474 290.648965 
L 371.543478 289.959572 
L 404.626482 279.885138 
L 437.709486 245.527218 
L 470.79249 175.246544 
L 503.875494 105.487027 
L 536.958498 70.660922 
L 570.041502 59.416584 
L 603.124506 56.624581 
L 636.20751 55.803103 
L 669.290514 55.607854 
L 702.373518 55.572319 
L 735.456522 55.554545 
L 768.539526 55.554545 
L 801.62253 55.554545 
L 834.705534 55.554545 
L 867.788538 55.554545 
L 900.871542 55.554545 
L 933.954545 55.554545 
" clip-path="url(#p3f0fe44dba)" style="fill: none; stroke: #000000; stroke-width: 2; stroke-linecap: square"/>
   </g>
   <g id="patch_3">
    <path d="M 135 315 
L 135 43.2 
" style="fill: none; stroke: #000000; stroke-width: 0.8; stroke-linejoin: miter; stroke-linecap: square"/>
   </g>
   <g id="patch_4">
    <path d="M 972 315 
L 972 43.2 
" style="fill: none; stroke: #000000; stroke-width: 0.8; stroke-linejoin: miter; stroke-linecap: square"/>
   </g>
   <g id="patch_5">
    <path d="M 135 315 
L 972 315 
" style="fill: none; stroke: #000000; stroke-width: 0.8; stroke-linejoin: miter; stroke-linecap: square"/>
   </g>
   <g id="patch_6">
    <path d="M 135 43.2 
L 972 43.2 
" style="fill: none; stroke: #000000; stroke-width: 0.8; stroke-linejoin: miter; stroke-linecap: square"/>
   </g>
   <g id="legend_1">
    <g id="patch_7">
     <path d="M 950 69.2 
L 958 69.2 
Q 962 69.2 962 65.2 
L 962 57.2 
Q 962 53.2 958 53.2 
L 950 53.2 
Q 946 53.2 946 57.2 
L 946 65.2 
Q 946 69.2 950 69.2 
z
" style="fill: #ffffff; opacity: 0.8; stroke: #cccccc; stroke-linejoin: miter"/>
    </g>
   </g>
  </g>
 </g>
 <defs>
  <clipPath id="p3f0fe44dba">
   <rect x="135" y="43.2" width="837" height="271.8"/>
  </clipPath>
 </defs>
</svg>
