<?xml version="1.0" encoding="utf-8" standalone="no"?>
<!DOCTYPE svg PUBLIC "-//W3C//DTD SVG 1.1//EN"
  "http://www.w3.org/Graphics/SVG/1.1/DTD/svg11.dtd">
<svg xmlns:xlink="http://www.w3.org/1999/xlink" width="1080pt" height="360pt" viewBox="0 0 1080 360" xmlns="http://www.w3.org/2000/svg" version="1.1">
 <metadata>
  <rdf:RDF xmlns:dc="http://purl.org/dc/elements/1.1/" xmlns:cc="http://creativecommons.org/ns#" xmlns:rdf="http://www.w3.org/1999/02/22-rdf-syntax-ns#">
   <cc:Work>
    <dc:type rdf:resource="http://purl.org/dc/dcmitype/StillImage"/>
    <dc:date>2024-07-05T11:59:07.283977</dc:date>
    <dc:format>image/svg+xml</dc:format>
    <dc:creator>
     <cc:Agent>
      <dc:title>Matplotlib v3.8.4, https://matplotlib.org/</dc:title>
     </cc:Agent>
    </dc:creator>
   </cc:Work>
  </rdf:RDF>
 </metadata>
 <defs>
  <style type="text/css">*{stroke-linejoin: round; stroke-linecap: butt}</style>
 </defs>
 <g id="figure_1">
  <g id="patch_1">
   <path d="M 0 360 
L 1080 360 
L 1080 0 
L 0 0 
z
" style="fill: #ffffff"/>
  </g>
  <g id="axes_1">
   <g id="patch_2">
    <path d="M 135 320.4 
L 972 320.4 
L 972 43.2 
L 135 43.2 
z
" style="fill: #ffffff"/>
   </g>
   <g id="matplotlib.axis_1">
    <g id="xtick_1">
     <g id="line2d_1">
      <path d="M 135 320.4 
L 135 43.2 
" clip-path="url(#p045facd0ed)" style="fill: none; stroke: #b0b0b0; stroke-width: 0.8; stroke-linecap: square"/>
     </g>
     <g id="line2d_2">
      <defs>
       <path id="mcbf2561e02" d="M 0 0 
L 0 3.5 
" style="stroke: #000000; stroke-width: 0.8"/>
      </defs>
      <g>
       <use xlink:href="#mcbf2561e02" x="135" y="320.4" style="stroke: #000000; stroke-width: 0.8"/>
      </g>
     </g>
     <g id="text_1">
      <!-- 0 -->
      <g transform="translate(128.6375 342.596875) scale(0.2 -0.2)">
       <defs>
        <path id="DejaVuSans-30" d="M 2034 4250 
Q 1547 4250 1301 3770 
Q 1056 3291 1056 2328 
Q 1056 1369 1301 889 
Q 1547 409 2034 409 
Q 2525 409 2770 889 
Q 3016 1369 3016 2328 
Q 3016 3291 2770 3770 
Q 2525 4250 2034 4250 
z
M 2034 4750 
Q 2819 4750 3233 4129 
Q 3647 3509 3647 2328 
Q 3647 1150 3233 529 
Q 2819 -91 2034 -91 
Q 1250 -91 836 529 
Q 422 1150 422 2328 
Q 422 3509 836 4129 
Q 1250 4750 2034 4750 
z
" transform="scale(0.015625)"/>
       </defs>
       <use xlink:href="#DejaVuSans-30"/>
      </g>
     </g>
    </g>
    <g id="xtick_2">
     <g id="line2d_3">
      <path d="M 239.625 320.4 
L 239.625 43.2 
" clip-path="url(#p045facd0ed)" style="fill: none; stroke: #b0b0b0; stroke-width: 0.8; stroke-linecap: square"/>
     </g>
     <g id="line2d_4">
      <g>
       <use xlink:href="#mcbf2561e02" x="239.625" y="320.4" style="stroke: #000000; stroke-width: 0.8"/>
      </g>
     </g>
     <g id="text_2">
      <!-- 250 -->
      <g transform="translate(220.5375 342.596875) scale(0.2 -0.2)">
       <defs>
        <path id="DejaVuSans-32" d="M 1228 531 
L 3431 531 
L 3431 0 
L 469 0 
L 469 531 
Q 828 903 1448 1529 
Q 2069 2156 2228 2338 
Q 2531 2678 2651 2914 
Q 2772 3150 2772 3378 
Q 2772 3750 2511 3984 
Q 2250 4219 1831 4219 
Q 1534 4219 1204 4116 
Q 875 4013 500 3803 
L 500 4441 
Q 881 4594 1212 4672 
Q 1544 4750 1819 4750 
Q 2544 4750 2975 4387 
Q 3406 4025 3406 3419 
Q 3406 3131 3298 2873 
Q 3191 2616 2906 2266 
Q 2828 2175 2409 1742 
Q 1991 1309 1228 531 
z
" transform="scale(0.015625)"/>
        <path id="DejaVuSans-35" d="M 691 4666 
L 3169 4666 
L 3169 4134 
L 1269 4134 
L 1269 2991 
Q 1406 3038 1543 3061 
Q 1681 3084 1819 3084 
Q 2600 3084 3056 2656 
Q 3513 2228 3513 1497 
Q 3513 744 3044 326 
Q 2575 -91 1722 -91 
Q 1428 -91 1123 -41 
Q 819 9 494 109 
L 494 744 
Q 775 591 1075 516 
Q 1375 441 1709 441 
Q 2250 441 2565 725 
Q 2881 1009 2881 1497 
Q 2881 1984 2565 2268 
Q 2250 2553 1709 2553 
Q 1456 2553 1204 2497 
Q 953 2441 691 2322 
L 691 4666 
z
" transform="scale(0.015625)"/>
       </defs>
       <use xlink:href="#DejaVuSans-32"/>
       <use xlink:href="#DejaVuSans-35" x="63.623047"/>
       <use xlink:href="#DejaVuSans-30" x="127.246094"/>
      </g>
     </g>
    </g>
    <g id="xtick_3">
     <g id="line2d_5">
      <path d="M 344.25 320.4 
L 344.25 43.2 
" clip-path="url(#p045facd0ed)" style="fill: none; stroke: #b0b0b0; stroke-width: 0.8; stroke-linecap: square"/>
     </g>
     <g id="line2d_6">
      <g>
       <use xlink:href="#mcbf2561e02" x="344.25" y="320.4" style="stroke: #000000; stroke-width: 0.8"/>
      </g>
     </g>
     <g id="text_3">
      <!-- 500 -->
      <g transform="translate(325.1625 342.596875) scale(0.2 -0.2)">
       <use xlink:href="#DejaVuSans-35"/>
       <use xlink:href="#DejaVuSans-30" x="63.623047"/>
       <use xlink:href="#DejaVuSans-30" x="127.246094"/>
      </g>
     </g>
    </g>
    <g id="xtick_4">
     <g id="line2d_7">
      <path d="M 448.875 320.4 
L 448.875 43.2 
" clip-path="url(#p045facd0ed)" style="fill: none; stroke: #b0b0b0; stroke-width: 0.8; stroke-linecap: square"/>
     </g>
     <g id="line2d_8">
      <g>
       <use xlink:href="#mcbf2561e02" x="448.875" y="320.4" style="stroke: #000000; stroke-width: 0.8"/>
      </g>
     </g>
     <g id="text_4">
      <!-- 750 -->
      <g transform="translate(429.7875 342.596875) scale(0.2 -0.2)">
       <defs>
        <path id="DejaVuSans-37" d="M 525 4666 
L 3525 4666 
L 3525 4397 
L 1831 0 
L 1172 0 
L 2766 4134 
L 525 4134 
L 525 4666 
z
" transform="scale(0.015625)"/>
       </defs>
       <use xlink:href="#DejaVuSans-37"/>
       <use xlink:href="#DejaVuSans-35" x="63.623047"/>
       <use xlink:href="#DejaVuSans-30" x="127.246094"/>
      </g>
     </g>
    </g>
    <g id="xtick_5">
     <g id="line2d_9">
      <path d="M 553.5 320.4 
L 553.5 43.2 
" clip-path="url(#p045facd0ed)" style="fill: none; stroke: #b0b0b0; stroke-width: 0.8; stroke-linecap: square"/>
     </g>
     <g id="line2d_10">
      <g>
       <use xlink:href="#mcbf2561e02" x="553.5" y="320.4" style="stroke: #000000; stroke-width: 0.8"/>
      </g>
     </g>
     <g id="text_5">
      <!-- 1000 -->
      <g transform="translate(528.05 342.596875) scale(0.2 -0.2)">
       <defs>
        <path id="DejaVuSans-31" d="M 794 531 
L 1825 531 
L 1825 4091 
L 703 3866 
L 703 4441 
L 1819 4666 
L 2450 4666 
L 2450 531 
L 3481 531 
L 3481 0 
L 794 0 
L 794 531 
z
" transform="scale(0.015625)"/>
       </defs>
       <use xlink:href="#DejaVuSans-31"/>
       <use xlink:href="#DejaVuSans-30" x="63.623047"/>
       <use xlink:href="#DejaVuSans-30" x="127.246094"/>
       <use xlink:href="#DejaVuSans-30" x="190.869141"/>
      </g>
     </g>
    </g>
    <g id="xtick_6">
     <g id="line2d_11">
      <path d="M 658.125 320.4 
L 658.125 43.2 
" clip-path="url(#p045facd0ed)" style="fill: none; stroke: #b0b0b0; stroke-width: 0.8; stroke-linecap: square"/>
     </g>
     <g id="line2d_12">
      <g>
       <use xlink:href="#mcbf2561e02" x="658.125" y="320.4" style="stroke: #000000; stroke-width: 0.8"/>
      </g>
     </g>
     <g id="text_6">
      <!-- 1250 -->
      <g transform="translate(632.675 342.596875) scale(0.2 -0.2)">
       <use xlink:href="#DejaVuSans-31"/>
       <use xlink:href="#DejaVuSans-32" x="63.623047"/>
       <use xlink:href="#DejaVuSans-35" x="127.246094"/>
       <use xlink:href="#DejaVuSans-30" x="190.869141"/>
      </g>
     </g>
    </g>
    <g id="xtick_7">
     <g id="line2d_13">
      <path d="M 762.75 320.4 
L 762.75 43.2 
" clip-path="url(#p045facd0ed)" style="fill: none; stroke: #b0b0b0; stroke-width: 0.8; stroke-linecap: square"/>
     </g>
     <g id="line2d_14">
      <g>
       <use xlink:href="#mcbf2561e02" x="762.75" y="320.4" style="stroke: #000000; stroke-width: 0.8"/>
      </g>
     </g>
     <g id="text_7">
      <!-- 1500 -->
      <g transform="translate(737.3 342.596875) scale(0.2 -0.2)">
       <use xlink:href="#DejaVuSans-31"/>
       <use xlink:href="#DejaVuSans-35" x="63.623047"/>
       <use xlink:href="#DejaVuSans-30" x="127.246094"/>
       <use xlink:href="#DejaVuSans-30" x="190.869141"/>
      </g>
     </g>
    </g>
    <g id="xtick_8">
     <g id="line2d_15">
      <path d="M 867.375 320.4 
L 867.375 43.2 
" clip-path="url(#p045facd0ed)" style="fill: none; stroke: #b0b0b0; stroke-width: 0.8; stroke-linecap: square"/>
     </g>
     <g id="line2d_16">
      <g>
       <use xlink:href="#mcbf2561e02" x="867.375" y="320.4" style="stroke: #000000; stroke-width: 0.8"/>
      </g>
     </g>
     <g id="text_8">
      <!-- 1750 -->
      <g transform="translate(841.925 342.596875) scale(0.2 -0.2)">
       <use xlink:href="#DejaVuSans-31"/>
       <use xlink:href="#DejaVuSans-37" x="63.623047"/>
       <use xlink:href="#DejaVuSans-35" x="127.246094"/>
       <use xlink:href="#DejaVuSans-30" x="190.869141"/>
      </g>
     </g>
    </g>
    <g id="xtick_9">
     <g id="line2d_17">
      <path d="M 972 320.4 
L 972 43.2 
" clip-path="url(#p045facd0ed)" style="fill: none; stroke: #b0b0b0; stroke-width: 0.8; stroke-linecap: square"/>
     </g>
     <g id="line2d_18">
      <g>
       <use xlink:href="#mcbf2561e02" x="972" y="320.4" style="stroke: #000000; stroke-width: 0.8"/>
      </g>
     </g>
     <g id="text_9">
      <!-- 2000 -->
      <g transform="translate(946.55 342.596875) scale(0.2 -0.2)">
       <use xlink:href="#DejaVuSans-32"/>
       <use xlink:href="#DejaVuSans-30" x="63.623047"/>
       <use xlink:href="#DejaVuSans-30" x="127.246094"/>
       <use xlink:href="#DejaVuSans-30" x="190.869141"/>
      </g>
     </g>
    </g>
    <g id="text_10">
     <!-- n -->
     <g transform="translate(547.1625 365.953125) scale(0.2 -0.2)">
      <defs>
       <path id="DejaVuSans-6e" d="M 3513 2113 
L 3513 0 
L 2938 0 
L 2938 2094 
Q 2938 2591 2744 2837 
Q 2550 3084 2163 3084 
Q 1697 3084 1428 2787 
Q 1159 2491 1159 1978 
L 1159 0 
L 581 0 
L 581 3500 
L 1159 3500 
L 1159 2956 
Q 1366 3272 1645 3428 
Q 1925 3584 2291 3584 
Q 2894 3584 3203 3211 
Q 3513 2838 3513 2113 
z
" transform="scale(0.015625)"/>
      </defs>
      <use xlink:href="#DejaVuSans-6e"/>
     </g>
    </g>
   </g>
   <g id="matplotlib.axis_2">
    <g id="ytick_1">
     <g id="line2d_19">
      <path d="M 135 309.138268 
L 972 309.138268 
" clip-path="url(#p045facd0ed)" style="fill: none; stroke: #b0b0b0; stroke-width: 0.8; stroke-linecap: square"/>
     </g>
     <g id="line2d_20">
      <defs>
       <path id="m97e78af263" d="M 0 0 
L -3.5 0 
" style="stroke: #000000; stroke-width: 0.8"/>
      </defs>
      <g>
       <use xlink:href="#m97e78af263" x="135" y="309.138268" style="stroke: #000000; stroke-width: 0.8"/>
      </g>
     </g>
     <g id="text_11">
      <!-- −1.00 -->
      <g transform="translate(66.709375 316.736706) scale(0.2 -0.2)">
       <defs>
        <path id="DejaVuSans-2212" d="M 678 2272 
L 4684 2272 
L 4684 1741 
L 678 1741 
L 678 2272 
z
" transform="scale(0.015625)"/>
        <path id="DejaVuSans-2e" d="M 684 794 
L 1344 794 
L 1344 0 
L 684 0 
L 684 794 
z
" transform="scale(0.015625)"/>
       </defs>
       <use xlink:href="#DejaVuSans-2212"/>
       <use xlink:href="#DejaVuSans-31" x="83.789062"/>
       <use xlink:href="#DejaVuSans-2e" x="147.412109"/>
       <use xlink:href="#DejaVuSans-30" x="179.199219"/>
       <use xlink:href="#DejaVuSans-30" x="242.822266"/>
      </g>
     </g>
    </g>
    <g id="ytick_2">
     <g id="line2d_21">
      <path d="M 135 277.470985 
L 972 277.470985 
" clip-path="url(#p045facd0ed)" style="fill: none; stroke: #b0b0b0; stroke-width: 0.8; stroke-linecap: square"/>
     </g>
     <g id="line2d_22">
      <g>
       <use xlink:href="#m97e78af263" x="135" y="277.470985" style="stroke: #000000; stroke-width: 0.8"/>
      </g>
     </g>
     <g id="text_12">
      <!-- −0.75 -->
      <g transform="translate(66.709375 285.069422) scale(0.2 -0.2)">
       <use xlink:href="#DejaVuSans-2212"/>
       <use xlink:href="#DejaVuSans-30" x="83.789062"/>
       <use xlink:href="#DejaVuSans-2e" x="147.412109"/>
       <use xlink:href="#DejaVuSans-37" x="179.199219"/>
       <use xlink:href="#DejaVuSans-35" x="242.822266"/>
      </g>
     </g>
    </g>
    <g id="ytick_3">
     <g id="line2d_23">
      <path d="M 135 245.803701 
L 972 245.803701 
" clip-path="url(#p045facd0ed)" style="fill: none; stroke: #b0b0b0; stroke-width: 0.8; stroke-linecap: square"/>
     </g>
     <g id="line2d_24">
      <g>
       <use xlink:href="#m97e78af263" x="135" y="245.803701" style="stroke: #000000; stroke-width: 0.8"/>
      </g>
     </g>
     <g id="text_13">
      <!-- −0.50 -->
      <g transform="translate(66.709375 253.402139) scale(0.2 -0.2)">
       <use xlink:href="#DejaVuSans-2212"/>
       <use xlink:href="#DejaVuSans-30" x="83.789062"/>
       <use xlink:href="#DejaVuSans-2e" x="147.412109"/>
       <use xlink:href="#DejaVuSans-35" x="179.199219"/>
       <use xlink:href="#DejaVuSans-30" x="242.822266"/>
      </g>
     </g>
    </g>
    <g id="ytick_4">
     <g id="line2d_25">
      <path d="M 135 214.136418 
L 972 214.136418 
" clip-path="url(#p045facd0ed)" style="fill: none; stroke: #b0b0b0; stroke-width: 0.8; stroke-linecap: square"/>
     </g>
     <g id="line2d_26">
      <g>
       <use xlink:href="#m97e78af263" x="135" y="214.136418" style="stroke: #000000; stroke-width: 0.8"/>
      </g>
     </g>
     <g id="text_14">
      <!-- −0.25 -->
      <g transform="translate(66.709375 221.734855) scale(0.2 -0.2)">
       <use xlink:href="#DejaVuSans-2212"/>
       <use xlink:href="#DejaVuSans-30" x="83.789062"/>
       <use xlink:href="#DejaVuSans-2e" x="147.412109"/>
       <use xlink:href="#DejaVuSans-32" x="179.199219"/>
       <use xlink:href="#DejaVuSans-35" x="242.822266"/>
      </g>
     </g>
    </g>
    <g id="ytick_5">
     <g id="line2d_27">
      <path d="M 135 182.469134 
L 972 182.469134 
" clip-path="url(#p045facd0ed)" style="fill: none; stroke: #b0b0b0; stroke-width: 0.8; stroke-linecap: square"/>
     </g>
     <g id="line2d_28">
      <g>
       <use xlink:href="#m97e78af263" x="135" y="182.469134" style="stroke: #000000; stroke-width: 0.8"/>
      </g>
     </g>
     <g id="text_15">
      <!-- 0.00 -->
      <g transform="translate(83.46875 190.067572) scale(0.2 -0.2)">
       <use xlink:href="#DejaVuSans-30"/>
       <use xlink:href="#DejaVuSans-2e" x="63.623047"/>
       <use xlink:href="#DejaVuSans-30" x="95.410156"/>
       <use xlink:href="#DejaVuSans-30" x="159.033203"/>
      </g>
     </g>
    </g>
    <g id="ytick_6">
     <g id="line2d_29">
      <path d="M 135 150.801851 
L 972 150.801851 
" clip-path="url(#p045facd0ed)" style="fill: none; stroke: #b0b0b0; stroke-width: 0.8; stroke-linecap: square"/>
     </g>
     <g id="line2d_30">
      <g>
       <use xlink:href="#m97e78af263" x="135" y="150.801851" style="stroke: #000000; stroke-width: 0.8"/>
      </g>
     </g>
     <g id="text_16">
      <!-- 0.25 -->
      <g transform="translate(83.46875 158.400288) scale(0.2 -0.2)">
       <use xlink:href="#DejaVuSans-30"/>
       <use xlink:href="#DejaVuSans-2e" x="63.623047"/>
       <use xlink:href="#DejaVuSans-32" x="95.410156"/>
       <use xlink:href="#DejaVuSans-35" x="159.033203"/>
      </g>
     </g>
    </g>
    <g id="ytick_7">
     <g id="line2d_31">
      <path d="M 135 119.134567 
L 972 119.134567 
" clip-path="url(#p045facd0ed)" style="fill: none; stroke: #b0b0b0; stroke-width: 0.8; stroke-linecap: square"/>
     </g>
     <g id="line2d_32">
      <g>
       <use xlink:href="#m97e78af263" x="135" y="119.134567" style="stroke: #000000; stroke-width: 0.8"/>
      </g>
     </g>
     <g id="text_17">
      <!-- 0.50 -->
      <g transform="translate(83.46875 126.733005) scale(0.2 -0.2)">
       <use xlink:href="#DejaVuSans-30"/>
       <use xlink:href="#DejaVuSans-2e" x="63.623047"/>
       <use xlink:href="#DejaVuSans-35" x="95.410156"/>
       <use xlink:href="#DejaVuSans-30" x="159.033203"/>
      </g>
     </g>
    </g>
    <g id="ytick_8">
     <g id="line2d_33">
      <path d="M 135 87.467284 
L 972 87.467284 
" clip-path="url(#p045facd0ed)" style="fill: none; stroke: #b0b0b0; stroke-width: 0.8; stroke-linecap: square"/>
     </g>
     <g id="line2d_34">
      <g>
       <use xlink:href="#m97e78af263" x="135" y="87.467284" style="stroke: #000000; stroke-width: 0.8"/>
      </g>
     </g>
     <g id="text_18">
      <!-- 0.75 -->
      <g transform="translate(83.46875 95.065721) scale(0.2 -0.2)">
       <use xlink:href="#DejaVuSans-30"/>
       <use xlink:href="#DejaVuSans-2e" x="63.623047"/>
       <use xlink:href="#DejaVuSans-37" x="95.410156"/>
       <use xlink:href="#DejaVuSans-35" x="159.033203"/>
      </g>
     </g>
    </g>
    <g id="ytick_9">
     <g id="line2d_35">
      <path d="M 135 55.8 
L 972 55.8 
" clip-path="url(#p045facd0ed)" style="fill: none; stroke: #b0b0b0; stroke-width: 0.8; stroke-linecap: square"/>
     </g>
     <g id="line2d_36">
      <g>
       <use xlink:href="#m97e78af263" x="135" y="55.8" style="stroke: #000000; stroke-width: 0.8"/>
      </g>
     </g>
     <g id="text_19">
      <!-- 1.00 -->
      <g transform="translate(83.46875 63.398437) scale(0.2 -0.2)">
       <use xlink:href="#DejaVuSans-31"/>
       <use xlink:href="#DejaVuSans-2e" x="63.623047"/>
       <use xlink:href="#DejaVuSans-30" x="95.410156"/>
       <use xlink:href="#DejaVuSans-30" x="159.033203"/>
      </g>
     </g>
    </g>
    <g id="text_20">
     <!-- d(n) -->
     <g transform="translate(58.55 202.289062) rotate(-90) scale(0.2 -0.2)">
      <defs>
       <path id="DejaVuSans-64" d="M 2906 2969 
L 2906 4863 
L 3481 4863 
L 3481 0 
L 2906 0 
L 2906 525 
Q 2725 213 2448 61 
Q 2172 -91 1784 -91 
Q 1150 -91 751 415 
Q 353 922 353 1747 
Q 353 2572 751 3078 
Q 1150 3584 1784 3584 
Q 2172 3584 2448 3432 
Q 2725 3281 2906 2969 
z
M 947 1747 
Q 947 1113 1208 752 
Q 1469 391 1925 391 
Q 2381 391 2643 752 
Q 2906 1113 2906 1747 
Q 2906 2381 2643 2742 
Q 2381 3103 1925 3103 
Q 1469 3103 1208 2742 
Q 947 2381 947 1747 
z
" transform="scale(0.015625)"/>
       <path id="DejaVuSans-28" d="M 1984 4856 
Q 1566 4138 1362 3434 
Q 1159 2731 1159 2009 
Q 1159 1288 1364 580 
Q 1569 -128 1984 -844 
L 1484 -844 
Q 1016 -109 783 600 
Q 550 1309 550 2009 
Q 550 2706 781 3412 
Q 1013 4119 1484 4856 
L 1984 4856 
z
" transform="scale(0.015625)"/>
       <path id="DejaVuSans-29" d="M 513 4856 
L 1013 4856 
Q 1481 4119 1714 3412 
Q 1947 2706 1947 2009 
Q 1947 1309 1714 600 
Q 1481 -109 1013 -844 
L 513 -844 
Q 928 -128 1133 580 
Q 1338 1288 1338 2009 
Q 1338 2731 1133 3434 
Q 928 4138 513 4856 
z
" transform="scale(0.015625)"/>
      </defs>
      <use xlink:href="#DejaVuSans-64"/>
      <use xlink:href="#DejaVuSans-28" x="63.476562"/>
      <use xlink:href="#DejaVuSans-6e" x="102.490234"/>
      <use xlink:href="#DejaVuSans-29" x="165.869141"/>
     </g>
    </g>
   </g>
   <g id="line2d_37">
    <path d="M 135 188.374886 
L 135.4185 193.949605 
L 135.837 160.674108 
L 136.2555 138.083622 
L 136.674 92.06304 
L 137.0925 173.979743 
L 137.511 168.327913 
L 137.9295 176.194434 
L 138.348 141.429117 
L 138.7665 169.281522 
L 139.6035 130.334931 
L 140.022 99.409271 
L 140.4405 153.650578 
L 140.859 165.802641 
L 141.2775 187.038028 
L 141.696 181.04913 
L 142.1145 206.906196 
L 142.533 147.506825 
L 142.9515 146.583939 
L 143.37 155.370117 
L 144.207 227.866441 
L 144.6255 176.654575 
L 145.4625 182.320107 
L 145.881 211.822826 
L 146.2995 141.128045 
L 146.718 184.183534 
L 147.1365 197.417316 
L 147.555 196.070903 
L 147.9735 193.724725 
L 148.392 168.603221 
L 149.229 83.086207 
L 150.066 137.943688 
L 150.4845 135.204052 
L 150.903 202.41587 
L 151.3215 181.955116 
L 151.74 167.979397 
L 152.1585 143.96591 
L 152.577 135.905429 
L 153.414 210.990121 
L 153.8325 168.272034 
L 154.251 161.796655 
L 154.6695 166.83082 
L 155.088 161.028361 
L 155.925 211.413782 
L 156.3435 185.695495 
L 156.762 187.382057 
L 157.1805 196.650833 
L 157.599 145.494022 
L 158.0175 119.841341 
L 158.436 163.256594 
L 158.8545 167.168898 
L 159.273 169.734528 
L 159.6915 184.106928 
L 160.11 167.589746 
L 160.5285 177.218629 
L 160.947 145.640174 
L 161.3655 169.129528 
L 161.784 128.431385 
L 162.2025 175.964669 
L 163.0395 117.740719 
L 163.458 161.581415 
L 163.8765 116.895143 
L 164.295 153.20353 
L 164.7135 116.245834 
L 165.132 181.687093 
L 165.969 152.696858 
L 166.3875 158.493716 
L 167.2245 209.193976 
L 167.643 203.701738 
L 168.0615 199.731577 
L 168.48 202.982636 
L 168.8985 190.995686 
L 169.317 156.170583 
L 169.7355 159.46023 
L 170.991 233.760501 
L 171.4095 213.69983 
L 171.828 214.098145 
L 172.2465 189.651542 
L 172.665 207.881453 
L 173.0835 173.027526 
L 173.502 151.274893 
L 173.9205 114.572723 
L 174.339 115.548571 
L 174.7575 110.740686 
L 175.176 167.287329 
L 175.5945 147.004118 
L 176.013 157.979663 
L 176.4315 150.911462 
L 176.85 190.55525 
L 177.687 172.853569 
L 178.1055 205.272335 
L 178.524 226.654703 
L 178.9425 222.474266 
L 179.361 177.769299 
L 179.7795 112.186176 
L 180.198 140.791901 
L 181.035 181.720413 
L 182.2905 270.44153 
L 182.709 252.246462 
L 183.1275 146.050478 
L 183.546 162.527116 
L 183.9645 188.373893 
L 184.383 255.526989 
L 184.8015 174.834487 
L 185.22 194.937527 
L 185.6385 169.90494 
L 186.057 203.061388 
L 186.4755 130.312174 
L 187.3125 239.844174 
L 187.731 210.205324 
L 188.1495 197.338035 
L 188.568 191.014114 
L 188.9865 221.059198 
L 189.405 157.828065 
L 189.8235 125.724148 
L 190.242 172.177044 
L 190.6605 240.243194 
L 191.079 262.329141 
L 191.916 156.457231 
L 192.3345 143.336136 
L 192.753 149.968762 
L 193.1715 197.299557 
L 193.59 140.186244 
L 194.0085 141.101273 
L 194.427 157.931342 
L 194.8455 186.169547 
L 195.264 174.83519 
L 195.6825 184.243579 
L 196.101 178.633869 
L 196.5195 207.62411 
L 196.938 171.162327 
L 197.3565 197.203861 
L 197.775 202.156447 
L 198.1935 177.656534 
L 198.612 161.55898 
L 199.0305 197.203229 
L 199.449 165.905861 
L 199.8675 165.799834 
L 200.286 129.889462 
L 200.7045 202.187093 
L 201.123 206.807325 
L 201.5415 219.163401 
L 201.96 222.219554 
L 202.3785 204.85173 
L 202.797 209.879041 
L 203.2155 185.327466 
L 203.634 168.002839 
L 204.0525 209.586926 
L 204.471 156.21017 
L 205.308 179.199711 
L 205.7265 181.572636 
L 206.145 215.263705 
L 206.5635 193.996411 
L 206.982 186.045886 
L 207.4005 147.27731 
L 207.819 164.875626 
L 208.2375 202.391607 
L 208.656 215.318751 
L 209.493 204.104603 
L 209.9115 249.525218 
L 210.33 253.845922 
L 211.5855 195.140508 
L 212.004 168.69746 
L 212.4225 193.678745 
L 212.841 164.516495 
L 213.2595 198.697933 
L 213.678 176.225977 
L 214.0965 260.755129 
L 214.515 197.033702 
L 214.9335 170.487811 
L 215.352 123.848547 
L 215.7705 202.343587 
L 216.189 228.028842 
L 216.6075 176.181226 
L 217.026 219.793673 
L 217.4445 214.087246 
L 217.863 178.64189 
L 218.2815 109.018295 
L 218.7 144.274768 
L 219.1185 165.512325 
L 219.537 213.620567 
L 219.9555 238.212293 
L 220.374 218.494037 
L 221.211 117.413706 
L 221.6295 188.091852 
L 222.048 234.112709 
L 222.4665 296.62385 
L 223.3035 249.486485 
L 223.722 174.534617 
L 224.1405 228.507103 
L 224.559 169.45495 
L 224.9775 174.097185 
L 225.396 167.70307 
L 225.8145 221.805453 
L 226.233 220.397082 
L 226.6515 259.814101 
L 227.07 167.082059 
L 227.4885 131.870624 
L 227.907 151.851665 
L 228.3255 191.113126 
L 228.744 182.733859 
L 229.1625 167.274603 
L 229.581 194.545579 
L 229.9995 179.368006 
L 230.418 170.86334 
L 230.8365 135.746894 
L 231.255 146.655684 
L 231.6735 135.817801 
L 232.092 156.027628 
L 232.5105 140.049475 
L 232.929 185.129176 
L 233.3475 158.789699 
L 233.766 193.56862 
L 234.1845 151.241249 
L 234.603 143.425038 
L 235.0215 167.298197 
L 235.44 157.761965 
L 235.8585 154.776586 
L 236.6955 215.809805 
L 237.114 169.979233 
L 237.5325 200.773393 
L 237.951 197.087313 
L 238.3695 122.825396 
L 238.788 153.523656 
L 239.2065 170.792605 
L 239.625 225.274231 
L 240.8805 119.813515 
L 241.299 211.256821 
L 241.7175 202.598803 
L 242.136 207.557247 
L 242.5545 137.905993 
L 242.973 147.076678 
L 243.3915 112.256408 
L 243.81 160.627215 
L 244.2285 169.798558 
L 244.647 239.215916 
L 245.0655 210.940319 
L 245.484 210.909197 
L 245.9025 206.272551 
L 246.321 194.568821 
L 246.7395 157.433188 
L 247.158 164.334984 
L 247.5765 134.308559 
L 247.995 130.157942 
L 248.4135 151.259205 
L 248.832 210.028801 
L 249.2505 158.926064 
L 249.669 130.1629 
L 250.506 194.488038 
L 250.9245 139.063922 
L 251.343 177.6101 
L 251.7615 184.631665 
L 252.18 139.218448 
L 252.5985 136.278262 
L 253.017 155.885742 
L 253.4355 197.574526 
L 253.854 196.249755 
L 254.2725 219.102696 
L 254.691 148.041239 
L 255.1095 142.405056 
L 255.528 151.88938 
L 255.9465 182.833898 
L 256.365 232.347623 
L 256.7835 177.253751 
L 257.202 142.308776 
L 257.6205 196.497961 
L 258.039 182.24039 
L 258.4575 197.783159 
L 258.876 143.315785 
L 259.2945 214.855471 
L 259.713 205.301414 
L 260.1315 232.998512 
L 260.55 219.425694 
L 260.9685 253.352455 
L 262.224 153.428734 
L 262.6425 161.443149 
L 263.061 192.255547 
L 263.4795 210.324232 
L 263.898 188.670532 
L 264.3165 207.199425 
L 264.735 243.407274 
L 265.1535 204.022527 
L 265.572 131.707589 
L 265.9905 130.301124 
L 266.409 225.390451 
L 266.8275 234.015165 
L 267.246 225.518108 
L 267.6645 166.754395 
L 268.083 158.668997 
L 268.5015 129.799593 
L 268.92 176.849394 
L 269.3385 189.035995 
L 269.757 192.74799 
L 270.1755 168.573788 
L 270.594 176.194333 
L 271.0125 221.790143 
L 271.431 226.481125 
L 271.8495 142.948327 
L 272.268 184.684927 
L 272.6865 180.23339 
L 273.105 165.833649 
L 273.5235 134.189284 
L 273.942 187.311883 
L 274.3605 193.244633 
L 274.779 203.626216 
L 275.1975 195.220288 
L 275.616 146.713663 
L 276.0345 153.905089 
L 276.453 168.892725 
L 276.8715 147.578896 
L 277.29 192.483505 
L 277.7085 176.243885 
L 278.127 184.536642 
L 278.5455 154.829463 
L 278.964 170.608148 
L 279.3825 173.786336 
L 279.801 132.545083 
L 280.2195 121.154156 
L 281.0565 212.682004 
L 281.475 221.04021 
L 281.8935 189.460717 
L 282.312 182.914968 
L 282.7305 181.567454 
L 283.149 153.754177 
L 283.5675 171.976036 
L 283.986 212.642459 
L 284.4045 212.381139 
L 284.823 125.46833 
L 285.2415 143.271334 
L 285.66 204.028253 
L 286.0785 207.480665 
L 286.497 202.035779 
L 286.9155 180.365408 
L 287.334 246.548023 
L 287.7525 205.774261 
L 288.171 191.246243 
L 288.5895 136.592589 
L 289.4265 205.329706 
L 289.845 206.999315 
L 290.2635 175.235367 
L 290.682 161.535931 
L 291.1005 264.093431 
L 291.519 181.373277 
L 291.9375 161.26317 
L 292.356 151.192362 
L 292.7745 178.028665 
L 293.193 190.703846 
L 293.6115 190.571924 
L 294.03 173.100996 
L 294.867 192.661149 
L 295.2855 195.035381 
L 295.704 179.846396 
L 296.1225 189.616909 
L 296.541 191.723209 
L 296.9595 204.977037 
L 297.378 172.424231 
L 297.7965 178.114957 
L 298.215 88.419587 
L 298.6335 92.349641 
L 299.052 125.30879 
L 299.4705 210.131069 
L 299.889 226.977129 
L 300.3075 237.283507 
L 300.726 198.820502 
L 301.1445 179.685096 
L 301.563 181.585789 
L 301.9815 182.952364 
L 302.4 154.523937 
L 302.8185 225.22437 
L 303.237 211.712978 
L 303.6555 207.145756 
L 304.074 157.191758 
L 304.4925 202.658181 
L 305.3295 160.362419 
L 305.748 187.139671 
L 306.1665 237.284519 
L 306.585 218.167797 
L 307.0035 229.594338 
L 307.422 231.739585 
L 307.8405 185.119672 
L 308.259 162.309404 
L 308.6775 168.255798 
L 309.096 184.281207 
L 309.5145 186.277041 
L 309.933 168.129939 
L 310.3515 195.830848 
L 310.77 206.905981 
L 311.1885 243.152019 
L 311.607 206.48915 
L 312.0255 232.131201 
L 312.444 201.425463 
L 312.8625 187.74534 
L 313.281 246.357841 
L 313.6995 244.105992 
L 314.118 214.917335 
L 314.5365 200.649171 
L 314.955 145.764974 
L 315.3735 189.893036 
L 315.792 205.776359 
L 316.2105 241.887927 
L 316.629 133.666381 
L 317.8845 261.174954 
L 318.303 249.189666 
L 318.7215 220.570777 
L 319.14 171.08775 
L 319.5585 186.083212 
L 319.977 133.930672 
L 320.814 206.280241 
L 321.2325 198.696664 
L 322.0695 164.221921 
L 322.488 168.225049 
L 322.9065 130.320221 
L 323.325 110.963173 
L 323.7435 147.177603 
L 324.162 157.391205 
L 324.5805 220.016523 
L 324.999 203.613777 
L 325.4175 167.511251 
L 325.836 149.898001 
L 326.2545 190.467994 
L 326.673 201.966588 
L 327.0915 182.631351 
L 327.51 133.102719 
L 327.9285 155.754291 
L 328.347 144.353274 
L 328.7655 166.588161 
L 329.184 131.710833 
L 329.6025 156.842451 
L 330.021 170.210067 
L 330.4395 172.027961 
L 330.858 109.574536 
L 331.2765 152.989718 
L 331.695 165.570138 
L 332.1135 208.222339 
L 332.532 221.984203 
L 332.9505 211.533067 
L 333.7875 121.194221 
L 334.206 130.015547 
L 334.6245 175.799182 
L 335.043 171.656553 
L 335.4615 128.05739 
L 335.88 159.267795 
L 336.2985 157.03268 
L 336.717 179.634831 
L 337.1355 165.105947 
L 337.554 170.170853 
L 337.9725 149.877963 
L 338.391 168.41147 
L 338.8095 242.086312 
L 339.228 279.442198 
L 339.6465 203.734071 
L 340.065 177.551023 
L 340.4835 180.812735 
L 340.902 192.789695 
L 341.3205 188.260747 
L 341.739 212.061683 
L 342.1575 165.614171 
L 342.576 183.986785 
L 342.9945 171.6563 
L 343.413 220.089782 
L 343.8315 145.367938 
L 344.25 208.297274 
L 344.6685 169.873202 
L 345.087 252.503295 
L 345.924 241.141415 
L 346.761 193.656815 
L 347.1795 210.103786 
L 347.598 188.80299 
L 348.0165 186.589869 
L 348.435 206.817835 
L 348.8535 203.218879 
L 349.272 189.923183 
L 349.6905 148.973552 
L 350.109 199.327157 
L 350.5275 197.928551 
L 351.3645 157.376531 
L 351.783 173.407054 
L 352.2015 204.987268 
L 352.62 181.779486 
L 353.0385 210.423318 
L 353.457 224.040832 
L 353.8755 203.889044 
L 354.294 144.235285 
L 354.7125 174.591032 
L 355.131 135.837615 
L 355.5495 164.858682 
L 355.968 151.760641 
L 356.3865 181.522666 
L 356.805 160.475593 
L 357.2235 185.467662 
L 357.642 198.86664 
L 358.0605 127.326837 
L 358.479 155.538982 
L 359.316 245.772807 
L 359.7345 194.098816 
L 360.153 92.551876 
L 360.5715 83.791642 
L 360.99 123.882092 
L 361.4085 141.552792 
L 361.827 151.831452 
L 362.2455 126.219123 
L 362.664 143.308058 
L 363.0825 141.575739 
L 363.501 242.284775 
L 363.9195 184.792087 
L 364.338 171.002865 
L 364.7565 122.303321 
L 365.175 144.815662 
L 365.5935 121.734985 
L 366.012 190.609897 
L 366.4305 171.968074 
L 366.849 185.039497 
L 367.2675 164.272571 
L 367.686 149.087466 
L 368.1045 185.482156 
L 368.523 252.634522 
L 368.9415 253.400902 
L 369.7785 173.58491 
L 370.197 188.407407 
L 370.6155 179.971253 
L 371.034 158.690305 
L 371.4525 181.907363 
L 371.871 196.731875 
L 372.2895 195.711203 
L 372.708 223.513047 
L 373.1265 180.239193 
L 373.545 195.139223 
L 373.9635 231.70975 
L 374.8005 122.767747 
L 375.219 102.720041 
L 375.6375 157.841553 
L 376.056 165.495373 
L 376.4745 222.402963 
L 376.893 147.427675 
L 377.3115 171.93916 
L 377.73 167.772848 
L 378.1485 194.662593 
L 378.567 168.923324 
L 378.9855 127.56725 
L 379.404 129.474956 
L 379.8225 165.321294 
L 380.241 187.933833 
L 380.6595 155.062692 
L 381.078 228.118857 
L 381.4965 222.642213 
L 381.915 222.874548 
L 382.3335 163.298922 
L 382.752 176.461375 
L 383.1705 198.790783 
L 383.589 248.800818 
L 384.0075 198.068734 
L 384.426 127.470234 
L 384.8445 151.855778 
L 385.263 157.059788 
L 385.6815 164.281956 
L 386.1 129.697694 
L 386.5185 158.261417 
L 386.937 159.473891 
L 387.3555 208.723241 
L 387.774 182.299848 
L 388.1925 169.801867 
L 388.611 138.64566 
L 389.0295 177.158898 
L 389.448 203.839096 
L 389.8665 193.166819 
L 390.285 127.658521 
L 390.7035 105.476356 
L 391.122 127.022193 
L 391.5405 209.430598 
L 391.959 183.668515 
L 392.3775 169.71569 
L 392.796 137.885662 
L 393.2145 217.526816 
L 393.633 219.525351 
L 394.0515 249.545175 
L 394.47 200.823184 
L 394.8885 210.449153 
L 395.307 150.967933 
L 395.7255 154.091875 
L 396.144 114.182753 
L 396.5625 206.543067 
L 396.981 181.826898 
L 397.3995 217.390592 
L 397.818 167.930968 
L 398.2365 176.068715 
L 398.655 177.166116 
L 399.0735 181.028545 
L 400.329 157.499772 
L 400.7475 126.980466 
L 401.166 143.344258 
L 401.5845 195.001905 
L 402.003 173.335478 
L 402.4215 177.45168 
L 402.84 210.788311 
L 403.2585 163.944922 
L 403.677 171.948743 
L 404.0955 168.957221 
L 404.514 192.597234 
L 404.9325 138.05006 
L 405.351 143.319463 
L 406.188 196.31442 
L 406.6065 152.554496 
L 407.4435 184.213908 
L 407.862 213.001709 
L 408.2805 137.176687 
L 408.699 114.385817 
L 409.1175 163.917517 
L 409.536 181.48246 
L 409.9545 191.567126 
L 410.373 160.795041 
L 410.7915 222.775409 
L 411.21 239.733374 
L 411.6285 183.95337 
L 412.047 186.349564 
L 412.4655 191.78002 
L 412.884 171.38598 
L 413.3025 160.982571 
L 413.721 228.082243 
L 414.1395 224.455856 
L 414.9765 167.412894 
L 415.395 171.641724 
L 415.8135 151.828677 
L 416.232 181.077262 
L 416.6505 178.911371 
L 417.069 214.706305 
L 417.4875 181.433032 
L 418.3245 151.617607 
L 418.743 173.37377 
L 419.1615 209.555105 
L 419.58 216.887692 
L 419.9985 204.959437 
L 420.417 197.754452 
L 420.8355 209.40049 
L 421.254 161.046266 
L 421.6725 188.856575 
L 422.091 159.684156 
L 422.5095 155.491792 
L 422.928 116.221777 
L 423.3465 166.007904 
L 423.765 171.954267 
L 424.1835 183.076104 
L 424.602 211.432661 
L 425.0205 183.69594 
L 425.439 176.379225 
L 425.8575 176.070736 
L 426.276 217.575891 
L 426.6945 203.807815 
L 427.113 224.723013 
L 427.5315 225.533824 
L 427.95 191.932953 
L 428.3685 200.908365 
L 428.787 173.659038 
L 429.2055 189.482313 
L 429.624 215.997148 
L 430.0425 192.770662 
L 430.461 197.035517 
L 430.8795 180.37934 
L 431.298 177.921829 
L 431.7165 144.874105 
L 432.135 164.500625 
L 432.5535 150.029663 
L 432.972 110.323601 
L 433.3905 138.730023 
L 433.809 150.915024 
L 434.2275 205.799223 
L 434.646 168.633625 
L 435.0645 167.652924 
L 435.483 141.660804 
L 435.9015 190.067595 
L 436.32 180.982323 
L 436.7385 205.784134 
L 437.157 206.141495 
L 437.5755 154.148783 
L 437.994 160.100295 
L 438.4125 179.760352 
L 438.831 217.209111 
L 439.2495 131.48705 
L 439.668 144.46197 
L 440.0865 170.075628 
L 440.505 205.729508 
L 440.9235 166.43903 
L 441.342 160.55788 
L 441.7605 214.151973 
L 442.179 213.163038 
L 443.016 224.782314 
L 443.4345 226.912386 
L 443.853 138.479985 
L 444.2715 109.873714 
L 444.69 127.317686 
L 445.1085 183.626912 
L 445.527 169.615784 
L 445.9455 140.151203 
L 446.364 213.861833 
L 446.7825 251.272766 
L 447.201 171.2646 
L 447.6195 132.290634 
L 448.038 167.345386 
L 448.4565 218.373317 
L 448.875 216.241215 
L 449.2935 164.674637 
L 449.712 187.61999 
L 450.1305 124.794099 
L 450.549 172.108908 
L 450.9675 137.422131 
L 451.386 156.241808 
L 451.8045 138.089031 
L 452.223 145.155542 
L 452.6415 126.564695 
L 453.06 139.352017 
L 453.4785 113.83903 
L 453.897 148.683932 
L 454.3155 146.651219 
L 454.734 168.666844 
L 455.1525 180.066838 
L 455.571 221.744289 
L 455.9895 191.522911 
L 456.408 179.262892 
L 456.8265 135.723427 
L 457.245 167.829933 
L 457.6635 157.251857 
L 458.082 226.009207 
L 458.5005 185.141637 
L 458.919 173.926022 
L 459.3375 153.897353 
L 460.1745 237.031736 
L 460.593 200.705792 
L 461.0115 204.843093 
L 461.43 148.747133 
L 461.8485 160.11169 
L 462.267 181.646855 
L 462.6855 191.512122 
L 463.104 154.874892 
L 463.5225 147.064035 
L 463.941 197.450884 
L 464.3595 227.313343 
L 464.778 208.307475 
L 465.1965 174.169463 
L 465.615 268.730446 
L 466.0335 247.559875 
L 466.8705 164.223323 
L 467.7075 216.34913 
L 468.126 213.131019 
L 468.5445 183.942293 
L 468.963 141.921223 
L 469.3815 167.580898 
L 469.8 164.122768 
L 470.2185 172.504499 
L 470.637 185.276108 
L 471.0555 210.954542 
L 471.474 198.253694 
L 471.8925 179.274634 
L 472.311 191.187706 
L 472.7295 177.622974 
L 473.148 158.122017 
L 473.5665 147.96096 
L 473.985 208.868525 
L 474.4035 174.284477 
L 474.822 167.494979 
L 475.2405 170.966713 
L 475.659 201.399489 
L 476.496 84.661535 
L 476.9145 114.417641 
L 477.333 200.045648 
L 477.7515 227.81452 
L 478.17 176.059007 
L 478.5885 153.262144 
L 479.007 193.676544 
L 479.4255 217.500422 
L 479.844 186.424278 
L 480.2625 224.433322 
L 480.681 186.815047 
L 481.0995 244.899413 
L 481.518 202.513143 
L 481.9365 204.19818 
L 482.355 190.044219 
L 482.7735 190.222332 
L 483.192 197.058154 
L 483.6105 253.306927 
L 484.029 240.966159 
L 484.4475 206.777078 
L 484.866 225.973705 
L 485.2845 205.083329 
L 485.703 222.665501 
L 486.1215 170.161268 
L 486.54 156.988622 
L 486.9585 187.204697 
L 487.377 142.645754 
L 487.7955 128.874778 
L 488.214 135.972831 
L 488.6325 154.981133 
L 489.051 206.525531 
L 489.4695 167.81138 
L 489.888 170.071265 
L 490.3065 144.428239 
L 490.725 150.46252 
L 491.1435 137.625145 
L 491.562 175.703068 
L 491.9805 200.388917 
L 492.399 166.205296 
L 492.8175 143.36811 
L 493.236 139.988738 
L 493.6545 126.686656 
L 494.4915 195.384606 
L 494.91 180.034909 
L 495.3285 213.403414 
L 495.747 164.875035 
L 496.1655 169.904471 
L 497.0025 204.642542 
L 497.421 125.642958 
L 497.8395 203.561246 
L 498.6765 228.925407 
L 499.095 195.588015 
L 499.5135 200.33724 
L 499.932 199.938607 
L 500.3505 186.450693 
L 500.769 177.910956 
L 501.1875 147.096289 
L 501.606 127.995011 
L 502.0245 197.122334 
L 502.443 219.713465 
L 502.8615 219.871954 
L 503.28 136.564719 
L 503.6985 125.579608 
L 504.5355 221.256935 
L 504.954 229.733204 
L 505.3725 206.040729 
L 506.2095 102.888994 
L 506.628 147.832918 
L 507.0465 141.146178 
L 507.465 165.795851 
L 507.8835 155.117131 
L 508.302 157.815208 
L 508.7205 121.026069 
L 509.139 160.570601 
L 509.5575 183.914534 
L 509.976 146.388465 
L 510.3945 137.315072 
L 510.813 186.208372 
L 511.2315 207.404399 
L 511.65 174.810429 
L 512.0685 216.577867 
L 512.487 270.794934 
L 512.9055 240.521593 
L 513.324 190.405864 
L 513.7425 160.887593 
L 514.161 183.642485 
L 514.5795 172.089346 
L 514.998 189.594447 
L 515.4165 178.087073 
L 515.835 188.045223 
L 516.2535 151.663071 
L 516.672 148.792919 
L 517.0905 222.291529 
L 517.509 257.613587 
L 517.9275 207.822166 
L 518.346 199.134857 
L 518.7645 235.333509 
L 519.183 214.485034 
L 519.6015 162.379162 
L 520.02 172.696177 
L 520.4385 137.393086 
L 520.857 168.686852 
L 521.2755 134.595842 
L 522.1125 191.393258 
L 522.531 190.36003 
L 522.9495 160.549184 
L 523.368 155.518924 
L 523.7865 185.223132 
L 524.205 159.41029 
L 524.6235 183.811861 
L 525.042 177.179446 
L 525.4605 210.839725 
L 525.879 161.353063 
L 526.2975 153.857951 
L 526.716 137.55492 
L 527.1345 191.577274 
L 527.553 131.05887 
L 527.9715 166.650713 
L 528.39 142.548586 
L 528.8085 147.134663 
L 529.227 97.223591 
L 529.6455 186.941389 
L 530.064 162.186081 
L 530.4825 226.392632 
L 530.901 252.453713 
L 531.3195 254.721591 
L 531.738 170.368864 
L 532.1565 178.71173 
L 532.575 175.194376 
L 532.9935 166.631644 
L 533.412 181.229937 
L 533.8305 174.610578 
L 534.249 219.102849 
L 534.6675 203.06422 
L 535.086 267.152519 
L 535.5045 164.926635 
L 536.3415 129.982816 
L 536.76 182.935475 
L 537.1785 172.736959 
L 537.597 125.948696 
L 538.0155 107.001421 
L 538.434 133.26353 
L 538.8525 170.549202 
L 539.271 184.990806 
L 539.6895 215.789733 
L 540.108 203.410319 
L 540.5265 201.431753 
L 540.945 180.269003 
L 541.3635 178.19067 
L 541.782 202.621692 
L 542.2005 184.120208 
L 543.0375 229.079948 
L 543.456 195.696452 
L 543.8745 142.39713 
L 544.7115 232.793833 
L 545.13 201.169971 
L 545.5485 186.51192 
L 545.967 224.811024 
L 546.3855 242.695064 
L 546.804 209.167071 
L 547.2225 157.225863 
L 547.641 157.704075 
L 548.0595 171.988107 
L 548.478 201.426114 
L 548.8965 218.580607 
L 549.315 248.040151 
L 549.7335 198.691671 
L 550.152 222.092803 
L 550.5705 220.349086 
L 550.989 210.680396 
L 551.4075 177.886505 
L 551.826 193.54102 
L 552.2445 224.102923 
L 552.663 173.593494 
L 553.0815 208.846414 
L 553.5 180.852575 
L 553.9185 226.646735 
L 554.337 184.578645 
L 554.7555 186.978368 
L 555.174 150.250019 
L 555.5925 214.237615 
L 556.011 227.368042 
L 556.4295 138.649977 
L 556.848 125.027882 
L 557.2665 161.926296 
L 557.685 181.20681 
L 558.1035 184.409854 
L 558.522 159.025331 
L 558.9405 164.919128 
L 559.359 183.85481 
L 559.7775 171.610579 
L 560.196 192.511058 
L 560.6145 176.069069 
L 561.033 213.427207 
L 561.4515 161.121558 
L 561.87 171.174089 
L 562.707 238.130638 
L 563.1255 233.46109 
L 563.544 186.321767 
L 563.9625 210.814678 
L 564.381 205.612785 
L 565.218 236.06025 
L 565.6365 204.946865 
L 566.055 145.563474 
L 566.4735 202.851901 
L 566.892 227.521023 
L 567.3105 182.124884 
L 567.729 177.066895 
L 568.1475 180.61033 
L 568.566 188.091717 
L 568.9845 173.778188 
L 569.403 169.473113 
L 569.8215 171.366848 
L 570.24 155.935775 
L 570.6585 185.714169 
L 571.077 137.277566 
L 571.4955 136.816351 
L 571.914 145.095587 
L 572.3325 133.581684 
L 572.751 169.208347 
L 573.1695 134.581922 
L 573.588 196.948944 
L 574.0065 212.806778 
L 574.425 223.081651 
L 574.8435 170.298834 
L 575.262 166.860233 
L 575.6805 152.02804 
L 576.099 145.288867 
L 576.5175 173.449227 
L 576.936 140.864819 
L 577.3545 159.541379 
L 577.773 158.459365 
L 578.1915 144.334913 
L 578.61 217.395016 
L 579.0285 162.503215 
L 579.447 188.158178 
L 579.8655 168.591529 
L 580.284 192.601918 
L 580.7025 223.128187 
L 581.121 202.198741 
L 581.5395 196.495215 
L 581.958 180.69063 
L 582.3765 195.575908 
L 582.795 186.026084 
L 583.2135 121.319572 
L 583.632 141.466548 
L 584.0505 174.19134 
L 584.469 189.717974 
L 584.8875 184.521973 
L 585.306 153.044201 
L 585.7245 180.419956 
L 586.143 131.559979 
L 586.5615 125.532163 
L 587.3985 234.989094 
L 587.817 245.796834 
L 588.2355 166.274777 
L 588.654 218.514303 
L 589.0725 172.416489 
L 589.491 184.410289 
L 589.9095 165.26431 
L 590.328 198.818344 
L 590.7465 153.444411 
L 591.165 187.762679 
L 591.5835 182.206218 
L 592.002 224.108615 
L 592.4205 222.619936 
L 592.839 211.10757 
L 593.2575 203.915478 
L 593.676 131.622593 
L 594.0945 157.686881 
L 594.9315 169.952029 
L 595.35 133.125043 
L 595.7685 172.220014 
L 596.187 230.053289 
L 596.6055 203.561679 
L 597.024 188.174523 
L 597.4425 144.839144 
L 597.861 172.587482 
L 598.2795 169.952573 
L 598.698 187.889098 
L 599.1165 135.512385 
L 599.535 133.11025 
L 599.9535 132.382955 
L 600.372 176.627212 
L 600.7905 142.041851 
L 601.209 175.443176 
L 601.6275 163.492218 
L 602.046 183.117154 
L 602.4645 177.75553 
L 602.883 203.989974 
L 603.3015 237.633648 
L 603.72 253.0949 
L 604.1385 222.935503 
L 605.394 248.964155 
L 605.8125 176.416172 
L 606.231 158.403182 
L 606.6495 132.183331 
L 607.068 167.981685 
L 607.4865 163.536333 
L 607.905 236.190886 
L 608.3235 204.947098 
L 608.742 152.845511 
L 609.1605 133.307989 
L 609.579 149.499506 
L 609.9975 160.234123 
L 610.416 116.804655 
L 610.8345 191.085063 
L 611.253 115.680132 
L 611.6715 142.70146 
L 612.09 151.757768 
L 612.927 208.437185 
L 613.3455 208.856661 
L 613.764 236.16384 
L 614.1825 158.025296 
L 614.601 216.00238 
L 615.0195 169.934961 
L 615.8565 153.91354 
L 616.275 155.579707 
L 616.6935 204.921062 
L 617.112 221.801824 
L 617.5305 224.261532 
L 617.949 239.876002 
L 618.3675 246.459601 
L 618.786 255.91872 
L 619.2045 221.828097 
L 619.623 234.511994 
L 620.0415 197.699096 
L 620.8785 162.459641 
L 621.297 179.111008 
L 621.7155 234.801731 
L 622.134 242.795667 
L 622.5525 177.986021 
L 622.971 175.483848 
L 623.3895 201.737694 
L 623.808 189.584009 
L 624.2265 198.811235 
L 624.645 183.481347 
L 625.0635 135.979044 
L 625.482 109.446754 
L 625.9005 129.590524 
L 626.319 209.049226 
L 626.7375 217.32712 
L 627.156 159.818107 
L 627.5745 161.221648 
L 627.993 149.454813 
L 628.4115 191.29426 
L 628.83 211.841897 
L 629.2485 161.172801 
L 629.667 149.882453 
L 630.0855 149.274012 
L 630.504 183.024386 
L 630.9225 148.062749 
L 631.341 191.474892 
L 631.7595 178.049187 
L 632.178 175.041948 
L 632.5965 166.929067 
L 633.015 233.04333 
L 633.4335 242.780153 
L 633.852 213.368887 
L 634.689 132.514716 
L 635.1075 127.832637 
L 635.9445 185.967712 
L 636.7815 148.06392 
L 637.2 112.03157 
L 638.037 160.041405 
L 638.4555 208.770331 
L 638.874 178.582902 
L 639.711 109.008311 
L 640.1295 109.656935 
L 640.548 193.496232 
L 640.9665 207.422969 
L 641.385 247.313347 
L 641.8035 245.457719 
L 642.222 257.663344 
L 642.6405 177.902892 
L 643.059 157.971774 
L 643.4775 163.460133 
L 643.896 137.3742 
L 644.3145 170.990339 
L 644.733 194.026319 
L 645.1515 197.329817 
L 645.57 198.971541 
L 645.9885 169.103595 
L 646.407 189.667286 
L 646.8255 182.863901 
L 647.244 179.904192 
L 647.6625 162.201002 
L 648.081 156.775545 
L 648.4995 154.794383 
L 648.918 150.399576 
L 649.3365 141.533312 
L 649.755 165.623113 
L 650.1735 155.685573 
L 650.592 103.9767 
L 651.0105 163.630045 
L 651.429 171.378602 
L 651.8475 184.564406 
L 652.266 176.959917 
L 652.6845 214.522283 
L 653.103 183.668174 
L 653.5215 240.248995 
L 653.94 271.210003 
L 654.3585 241.284849 
L 654.777 160.461642 
L 655.1955 171.436076 
L 655.614 187.74598 
L 656.0325 196.134459 
L 656.451 187.817093 
L 656.8695 227.404153 
L 657.7065 161.574724 
L 658.125 169.980621 
L 658.5435 200.994496 
L 658.962 190.009503 
L 659.3805 172.531875 
L 659.799 168.946838 
L 660.2175 129.914192 
L 660.636 186.368364 
L 661.0545 193.591272 
L 661.473 196.787914 
L 661.8915 148.132018 
L 662.31 154.850891 
L 663.147 229.052944 
L 663.5655 193.709787 
L 663.984 209.52353 
L 664.4025 179.338065 
L 665.2395 197.820304 
L 665.658 222.389729 
L 666.0765 167.904851 
L 666.9135 161.244626 
L 667.332 186.16692 
L 667.7505 204.039386 
L 668.169 192.374161 
L 668.5875 141.236776 
L 669.006 167.359953 
L 669.4245 150.343242 
L 669.843 233.445522 
L 670.2615 224.33264 
L 670.68 274.644915 
L 671.0985 214.039125 
L 671.517 227.274079 
L 671.9355 195.071394 
L 672.354 200.164585 
L 672.7725 215.176359 
L 673.191 221.042389 
L 673.6095 179.359564 
L 674.028 199.248651 
L 674.4465 241.045186 
L 674.865 210.135365 
L 675.2835 150.798136 
L 675.702 148.09979 
L 676.1205 201.224441 
L 676.539 193.473764 
L 676.9575 197.923739 
L 677.376 173.524691 
L 677.7945 166.099295 
L 678.213 186.867924 
L 678.6315 216.063527 
L 679.05 199.633939 
L 679.4685 223.608668 
L 680.3055 190.94693 
L 680.724 153.321041 
L 681.1425 180.724902 
L 681.561 175.546786 
L 681.9795 178.630312 
L 682.398 194.115944 
L 682.8165 231.585852 
L 683.235 220.651522 
L 683.6535 176.063002 
L 684.072 175.53618 
L 684.4905 146.816491 
L 684.909 133.101534 
L 685.3275 210.583322 
L 685.746 218.434369 
L 686.1645 214.595412 
L 686.583 195.09631 
L 687.0015 146.928977 
L 687.42 159.788223 
L 687.8385 162.222623 
L 688.257 176.801584 
L 688.6755 195.498528 
L 689.094 206.114793 
L 689.5125 231.625712 
L 689.931 223.411216 
L 690.3495 199.991542 
L 690.768 186.382396 
L 691.1865 197.908435 
L 691.605 194.022628 
L 692.0235 231.419466 
L 692.442 243.824073 
L 692.8605 188.127616 
L 693.279 190.595284 
L 694.116 231.151691 
L 694.5345 191.611738 
L 694.953 197.851701 
L 695.3715 154.845768 
L 695.79 157.941564 
L 696.627 214.519873 
L 697.0455 212.533907 
L 697.464 160.418585 
L 697.8825 154.810995 
L 698.301 140.040629 
L 698.7195 148.808131 
L 699.138 160.630515 
L 699.5565 137.73845 
L 699.975 211.824292 
L 700.3935 169.857949 
L 700.812 218.836086 
L 701.2305 221.61385 
L 701.649 222.751696 
L 702.0675 184.252243 
L 702.486 169.198238 
L 702.9045 225.315962 
L 703.323 227.312233 
L 703.7415 208.52633 
L 704.16 155.237313 
L 704.997 202.346699 
L 705.4155 199.442197 
L 705.834 155.599092 
L 706.2525 190.44877 
L 706.671 192.084049 
L 707.0895 207.879258 
L 707.508 188.354948 
L 707.9265 205.327459 
L 708.345 186.174165 
L 708.7635 185.187212 
L 709.182 192.010282 
L 709.6005 166.168317 
L 710.019 175.137662 
L 710.4375 203.172126 
L 710.856 216.968307 
L 711.2745 174.904504 
L 711.693 145.072277 
L 712.1115 143.328977 
L 712.53 191.993398 
L 712.9485 197.945471 
L 713.367 173.805747 
L 714.204 260.608017 
L 714.6225 264.103089 
L 715.878 177.666371 
L 716.2965 137.455846 
L 716.715 169.882606 
L 717.1335 229.670402 
L 717.552 233.685028 
L 717.9705 210.181444 
L 718.389 202.080018 
L 719.226 73.895079 
L 719.6445 177.578376 
L 720.063 217.192704 
L 720.4815 218.089212 
L 720.9 131.954873 
L 721.3185 165.709052 
L 721.737 113.330968 
L 722.1555 168.432719 
L 722.9925 192.87186 
L 723.411 188.527359 
L 723.8295 176.180479 
L 724.248 177.106537 
L 724.6665 237.268987 
L 725.085 218.548809 
L 725.5035 150.236515 
L 725.922 167.648564 
L 726.3405 231.042021 
L 726.759 220.699643 
L 727.1775 181.590067 
L 727.596 202.414408 
L 728.0145 214.422611 
L 728.433 221.408617 
L 728.8515 197.179479 
L 729.27 160.236125 
L 729.6885 154.547817 
L 730.107 198.676638 
L 730.5255 225.831292 
L 730.944 179.67192 
L 731.3625 184.323079 
L 731.781 169.474173 
L 732.1995 228.921674 
L 732.618 194.287275 
L 733.0365 213.137584 
L 733.455 168.494094 
L 733.8735 161.763929 
L 734.292 150.126725 
L 734.7105 212.666852 
L 735.129 158.816951 
L 735.5475 165.973788 
L 735.966 153.595596 
L 736.3845 168.38563 
L 736.803 126.161916 
L 737.2215 174.493723 
L 737.64 194.521671 
L 738.0585 172.282476 
L 738.477 126.972849 
L 738.8955 143.354364 
L 739.314 168.940933 
L 739.7325 178.308367 
L 740.151 154.027047 
L 740.5695 188.531247 
L 740.988 139.564228 
L 741.4065 167.396782 
L 741.825 166.342979 
L 742.2435 206.721283 
L 743.0805 199.111019 
L 743.499 191.482874 
L 743.9175 158.986434 
L 744.336 167.454561 
L 744.7545 179.143365 
L 745.173 174.51088 
L 745.5915 175.275152 
L 746.01 178.699812 
L 746.4285 165.375504 
L 746.847 185.027693 
L 747.2655 195.226111 
L 747.684 200.974941 
L 748.1025 186.084343 
L 748.521 186.226311 
L 748.9395 215.426056 
L 749.358 181.124616 
L 749.7765 170.566376 
L 750.195 126.551179 
L 750.6135 162.667575 
L 751.032 215.60681 
L 751.4505 190.124637 
L 751.869 119.844163 
L 752.2875 158.807094 
L 752.706 132.391334 
L 753.1245 154.720863 
L 753.543 169.045356 
L 753.9615 224.282026 
L 754.38 231.897399 
L 754.7985 235.943222 
L 755.217 215.229004 
L 755.6355 147.236945 
L 756.054 138.20034 
L 756.4725 166.053482 
L 756.891 183.437293 
L 757.3095 155.004653 
L 757.728 174.287542 
L 758.1465 207.394299 
L 758.565 202.392814 
L 758.9835 155.612417 
L 759.402 153.744922 
L 759.8205 143.033215 
L 760.239 189.620994 
L 760.6575 193.696239 
L 761.076 217.30132 
L 761.4945 223.778277 
L 761.913 208.591418 
L 762.3315 175.24347 
L 762.75 196.821755 
L 763.1685 158.943151 
L 763.587 162.56638 
L 764.0055 134.887525 
L 764.424 200.330889 
L 764.8425 190.827957 
L 765.261 152.353227 
L 765.6795 182.926622 
L 766.098 188.435535 
L 766.5165 223.199485 
L 766.935 157.777622 
L 767.3535 179.57873 
L 767.772 171.767444 
L 768.1905 167.566495 
L 768.609 212.695191 
L 769.0275 230.937239 
L 769.446 211.091321 
L 769.8645 211.480846 
L 770.283 197.484446 
L 770.7015 234.061788 
L 771.12 191.50627 
L 771.5385 181.29973 
L 771.957 166.551136 
L 772.3755 164.791678 
L 772.794 206.038346 
L 773.2125 142.45086 
L 773.631 196.561404 
L 774.0495 164.675218 
L 774.468 193.150591 
L 774.8865 188.858397 
L 775.305 203.886185 
L 775.7235 193.120887 
L 776.142 239.216788 
L 776.5605 243.484439 
L 776.979 152.504545 
L 777.3975 91.427813 
L 777.816 150.859281 
L 778.2345 170.056207 
L 778.653 175.953037 
L 779.0715 138.273614 
L 779.49 159.737345 
L 779.9085 147.063994 
L 780.327 144.969018 
L 780.7455 145.949814 
L 781.164 167.633471 
L 781.5825 144.285137 
L 782.001 177.141126 
L 782.4195 167.534406 
L 782.838 186.180081 
L 783.2565 190.923349 
L 783.675 205.430339 
L 784.0935 159.972784 
L 784.512 177.799825 
L 784.9305 229.344938 
L 785.349 214.000462 
L 785.7675 223.427622 
L 786.186 205.225616 
L 786.6045 176.825948 
L 787.023 206.543929 
L 787.4415 169.836068 
L 787.86 154.25683 
L 788.2785 199.715171 
L 788.697 225.668118 
L 789.1155 218.268925 
L 789.534 188.785344 
L 789.9525 177.111149 
L 790.371 201.103526 
L 790.7895 245.42845 
L 791.208 138.502678 
L 791.6265 142.760217 
L 792.045 130.122326 
L 792.4635 149.067442 
L 792.882 116.304689 
L 793.3005 159.229104 
L 793.719 154.874992 
L 794.1375 133.357397 
L 795.393 243.351808 
L 795.8115 220.752593 
L 796.23 220.611226 
L 797.067 199.794165 
L 797.4855 249.391824 
L 797.904 170.164767 
L 798.3225 196.918875 
L 798.741 146.691934 
L 799.1595 185.28258 
L 799.578 166.379443 
L 799.9965 239.440976 
L 800.415 172.312892 
L 800.8335 168.391994 
L 801.252 100.098584 
L 802.089 206.086045 
L 802.5075 234.885128 
L 802.926 186.869677 
L 803.3445 218.685329 
L 803.763 193.872137 
L 804.1815 223.454443 
L 804.6 206.239418 
L 805.0185 209.787287 
L 805.437 208.920979 
L 805.8555 167.14553 
L 806.274 174.427264 
L 806.6925 135.166033 
L 807.111 154.662302 
L 807.5295 146.776455 
L 807.948 191.931491 
L 808.3665 177.935245 
L 808.785 142.177542 
L 809.2035 202.507616 
L 809.622 113.605117 
L 810.0405 136.735827 
L 810.459 116.893024 
L 810.8775 160.86388 
L 811.296 168.541198 
L 811.7145 168.468429 
L 812.133 175.692803 
L 812.5515 203.63068 
L 812.97 194.805391 
L 813.3885 195.577192 
L 813.807 188.421284 
L 814.644 156.664314 
L 815.0625 173.354299 
L 815.481 174.859189 
L 815.8995 243.159719 
L 816.318 206.532272 
L 816.7365 182.713915 
L 817.155 144.089874 
L 817.5735 160.636563 
L 817.992 153.957493 
L 818.4105 157.920714 
L 818.829 188.634317 
L 819.2475 183.279887 
L 819.666 191.694683 
L 820.0845 189.160699 
L 820.503 209.409965 
L 820.9215 174.874247 
L 821.34 209.306728 
L 822.5955 244.395322 
L 823.014 178.358855 
L 823.4325 151.063448 
L 823.851 170.167636 
L 824.2695 179.557719 
L 824.688 175.410667 
L 825.1065 205.995581 
L 825.525 199.557823 
L 825.9435 138.253201 
L 826.362 130.660788 
L 826.7805 172.477251 
L 827.6175 80.522373 
L 828.036 172.552813 
L 828.4545 155.805886 
L 828.873 170.514959 
L 829.2915 142.449943 
L 829.71 208.72526 
L 830.1285 206.336898 
L 830.547 179.887331 
L 830.9655 169.178009 
L 831.384 188.639258 
L 831.8025 184.749761 
L 832.221 170.066472 
L 833.058 213.578355 
L 833.4765 184.477528 
L 833.895 214.796278 
L 834.3135 205.652351 
L 834.732 227.91294 
L 835.569 178.119082 
L 835.9875 96.454289 
L 836.406 119.626092 
L 837.243 206.290221 
L 837.6615 207.960752 
L 838.4985 125.953112 
L 838.917 157.183415 
L 839.3355 159.973611 
L 839.754 168.649149 
L 840.1725 162.533776 
L 840.591 225.153237 
L 841.0095 183.473368 
L 841.428 196.52871 
L 841.8465 142.945664 
L 842.265 164.305335 
L 842.6835 164.559476 
L 843.102 197.465849 
L 843.5205 192.106857 
L 843.939 216.733958 
L 844.3575 208.970093 
L 844.776 161.161938 
L 845.1945 168.428525 
L 845.613 111.160981 
L 846.0315 183.844526 
L 846.45 135.950873 
L 846.8685 163.859925 
L 847.287 165.680199 
L 847.7055 215.146717 
L 848.124 184.77698 
L 848.5425 217.779144 
L 848.961 200.486018 
L 849.3795 207.463735 
L 849.798 202.075176 
L 850.2165 202.660922 
L 850.635 215.999388 
L 851.0535 183.075281 
L 851.472 214.513401 
L 851.8905 193.240084 
L 852.309 207.049553 
L 852.7275 204.525559 
L 853.146 213.111939 
L 853.5645 212.957904 
L 853.983 187.031372 
L 854.4015 145.867221 
L 854.82 162.470221 
L 855.657 226.56123 
L 856.0755 164.412831 
L 856.494 126.564831 
L 856.9125 169.038815 
L 857.331 227.835695 
L 857.7495 234.186219 
L 858.168 226.162308 
L 858.5865 179.968758 
L 859.005 188.352479 
L 859.4235 173.159753 
L 859.842 170.540438 
L 860.2605 222.353846 
L 860.679 211.742002 
L 861.0975 225.454498 
L 861.516 173.580257 
L 861.9345 232.170097 
L 862.353 198.817648 
L 863.19 164.120692 
L 863.6085 223.304749 
L 864.027 249.597234 
L 864.4455 196.638629 
L 864.864 242.44105 
L 865.2825 213.509473 
L 865.701 247.168021 
L 866.1195 140.87424 
L 866.9565 165.404157 
L 867.375 200.831315 
L 867.7935 193.994224 
L 868.212 168.212533 
L 868.6305 228.511692 
L 869.049 226.763576 
L 869.4675 277.221083 
L 869.886 206.463275 
L 870.3045 242.009409 
L 871.56 160.557879 
L 871.9785 189.218123 
L 872.397 162.494968 
L 873.234 132.731708 
L 873.6525 183.724566 
L 874.071 151.916015 
L 874.4895 175.349304 
L 874.908 101.278368 
L 875.3265 109.302161 
L 875.745 103.269524 
L 876.1635 176.749066 
L 876.582 154.591783 
L 877.0005 209.776797 
L 877.419 231.041658 
L 877.8375 182.921614 
L 878.256 202.013932 
L 878.6745 254.528826 
L 879.093 183.709964 
L 879.5115 145.861759 
L 879.93 154.93811 
L 880.3485 146.023954 
L 880.767 177.255717 
L 881.1855 171.745834 
L 881.604 216.585027 
L 882.0225 134.27792 
L 882.441 142.007288 
L 882.8595 129.37161 
L 883.278 196.122315 
L 883.6965 185.811078 
L 884.115 197.292273 
L 884.5335 175.9171 
L 884.952 190.301495 
L 885.3705 137.918752 
L 885.789 134.483611 
L 886.2075 148.911783 
L 886.626 188.988106 
L 887.0445 168.742254 
L 887.463 161.324354 
L 887.8815 203.979321 
L 888.3 205.634947 
L 888.7185 149.709925 
L 889.137 117.644462 
L 889.5555 98.540934 
L 889.974 126.858026 
L 890.3925 124.509911 
L 890.811 190.876872 
L 891.2295 201.146812 
L 891.648 191.443967 
L 892.0665 160.682973 
L 892.485 232.159777 
L 892.9035 219.303331 
L 893.322 215.386635 
L 893.7405 139.287406 
L 894.5775 251.798604 
L 894.996 234.419471 
L 895.4145 180.511865 
L 895.833 222.22117 
L 896.2515 187.332634 
L 896.67 198.666767 
L 897.0885 198.296596 
L 897.507 165.70459 
L 897.9255 153.142492 
L 898.344 161.232101 
L 898.7625 205.593581 
L 899.181 124.886034 
L 899.5995 188.577443 
L 900.018 200.711204 
L 900.4365 217.432481 
L 900.855 168.495022 
L 901.2735 189.432549 
L 901.692 248.945469 
L 902.1105 228.8398 
L 902.529 226.066255 
L 902.9475 194.492153 
L 903.366 188.649648 
L 903.7845 150.088785 
L 904.203 226.63396 
L 904.6215 211.060733 
L 905.04 204.63764 
L 905.4585 192.649516 
L 905.877 226.539746 
L 906.2955 214.563101 
L 907.551 163.178203 
L 907.9695 205.877678 
L 908.388 204.112467 
L 908.8065 227.121322 
L 909.225 166.948953 
L 909.6435 207.564604 
L 910.062 218.377998 
L 910.4805 247.867757 
L 910.899 162.538272 
L 911.3175 169.434304 
L 911.736 188.749027 
L 912.1545 181.090541 
L 912.573 209.872988 
L 912.9915 227.089654 
L 913.41 280.130805 
L 913.8285 250.993834 
L 914.247 207.610866 
L 915.084 194.515922 
L 915.5025 162.038174 
L 915.921 178.482098 
L 916.3395 117.448587 
L 916.758 184.481295 
L 917.1765 193.645358 
L 917.595 232.320802 
L 918.0135 203.259651 
L 918.432 254.299781 
L 918.8505 269.696219 
L 919.269 180.774853 
L 919.6875 174.922138 
L 920.106 140.756612 
L 920.5245 131.467191 
L 920.943 109.151238 
L 921.3615 191.775767 
L 921.78 170.806146 
L 922.1985 134.954464 
L 922.617 151.820792 
L 923.0355 200.052077 
L 923.454 218.178634 
L 923.8725 141.223421 
L 924.291 149.087133 
L 924.7095 168.7465 
L 925.128 199.00318 
L 925.5465 197.099385 
L 925.965 152.930896 
L 926.3835 142.758868 
L 926.802 181.804259 
L 927.2205 176.177003 
L 927.639 111.191147 
L 928.476 156.181702 
L 928.8945 145.495742 
L 929.313 124.180174 
L 929.7315 144.965085 
L 930.15 199.557531 
L 930.5685 237.940631 
L 930.987 158.577396 
L 931.4055 137.165351 
L 931.824 164.945028 
L 932.2425 221.690497 
L 932.661 186.595245 
L 933.0795 183.501201 
L 933.498 168.576644 
L 933.9165 278.45014 
L 934.335 222.279798 
L 934.7535 207.204844 
L 935.172 164.252086 
L 935.5905 136.743835 
L 936.009 152.874814 
L 936.4275 186.920849 
L 936.846 251.345601 
L 937.2645 215.799968 
L 937.683 219.817264 
L 938.1015 211.446141 
L 938.52 181.268759 
L 938.9385 212.346019 
L 939.357 199.825736 
L 939.7755 193.709797 
L 940.194 155.285648 
L 941.031 209.792844 
L 941.4495 218.326125 
L 941.868 188.057539 
L 942.2865 137.139699 
L 942.705 250.57574 
L 943.1235 226.982093 
L 943.542 193.837739 
L 943.9605 128.628035 
L 944.379 152.933289 
L 944.7975 168.907971 
L 945.216 201.32102 
L 945.6345 165.669073 
L 946.053 119.951339 
L 946.4715 144.312541 
L 946.89 202.10527 
L 947.3085 214.440338 
L 947.727 211.062546 
L 948.1455 192.889747 
L 948.564 160.504566 
L 948.9825 159.829221 
L 949.401 207.962513 
L 949.8195 192.728748 
L 950.238 198.155838 
L 950.6565 137.486464 
L 951.075 179.417897 
L 951.4935 206.26751 
L 952.3305 178.04558 
L 952.749 169.544586 
L 953.1675 137.613578 
L 954.0045 195.35163 
L 954.423 181.548175 
L 954.8415 146.477897 
L 955.26 145.695118 
L 955.6785 172.231847 
L 956.097 210.063949 
L 956.5155 229.67732 
L 956.934 238.089046 
L 957.3525 232.231451 
L 957.771 200.783419 
L 958.1895 219.293812 
L 958.608 172.631433 
L 959.0265 143.190404 
L 959.445 198.923347 
L 959.8635 217.05771 
L 960.282 186.930071 
L 960.7005 166.444679 
L 961.119 241.588621 
L 961.5375 191.340672 
L 961.956 212.777751 
L 962.3745 162.041044 
L 962.793 175.109803 
L 963.2115 206.159709 
L 963.63 158.670018 
L 964.0485 223.725857 
L 964.467 207.508649 
L 964.8855 248.957892 
L 965.304 171.050875 
L 966.141 215.179055 
L 966.5595 172.592217 
L 966.978 195.863657 
L 967.815 154.169954 
L 968.2335 158.71245 
L 968.652 188.019092 
L 969.489 143.497145 
L 969.9075 151.720232 
L 970.326 146.196874 
L 970.7445 214.5531 
L 971.163 214.704895 
L 971.5815 252.743896 
L 972 155.414014 
L 972.4185 175.589716 
L 972.4185 175.589716 
" clip-path="url(#p045facd0ed)" style="fill: none; stroke: #000000; stroke-linecap: square"/>
   </g>
   <g id="patch_3">
    <path d="M 135 320.4 
L 135 43.2 
" style="fill: none; stroke: #000000; stroke-width: 0.8; stroke-linejoin: miter; stroke-linecap: square"/>
   </g>
   <g id="patch_4">
    <path d="M 972 320.4 
L 972 43.2 
" style="fill: none; stroke: #000000; stroke-width: 0.8; stroke-linejoin: miter; stroke-linecap: square"/>
   </g>
   <g id="patch_5">
    <path d="M 135 320.4 
L 972 320.4 
" style="fill: none; stroke: #000000; stroke-width: 0.8; stroke-linejoin: miter; stroke-linecap: square"/>
   </g>
   <g id="patch_6">
    <path d="M 135 43.2 
L 972 43.2 
" style="fill: none; stroke: #000000; stroke-width: 0.8; stroke-linejoin: miter; stroke-linecap: square"/>
   </g>
  </g>
 </g>
 <defs>
  <clipPath id="p045facd0ed">
   <rect x="135" y="43.2" width="837" height="277.2"/>
  </clipPath>
 </defs>
</svg>
